<svg xmlns="http://www.w3.org/2000/svg" xmlns:xlink="http://www.w3.org/1999/xlink" width="109.96" height="108.018" viewBox="0 0 109.96 108.018">
  <defs>
    <linearGradient id="linear-gradient" x1="0.5" x2="0.5" y2="1" gradientUnits="objectBoundingBox">
      <stop offset="0" stop-color="#21f5fc"/>
      <stop offset="1" stop-color="#b241f2"/>
    </linearGradient>
  </defs>
  <g id="art" transform="translate(-1992.827 -462.9)">
    <path id="Path_705" data-name="Path 705" d="M2077.751,497.351c-7.665,11.386-15.2,22.619-22.813,33.8-.512.752-1.71,1-2.45,1.641-1.433,1.243-3.469,2.38-3.965,3.964a4.135,4.135,0,0,1-3.264,3.289c-7.7,2.347-11.931,9.082-11.546,17.918.106,2.447.344,4.894.32,7.339a5.1,5.1,0,0,1-4.172,5.322c-5.423,1.378-10.372,1.657-15.545-1.917-17.788-12.292-25.744-34.328-19.238-54.854a48.174,48.174,0,0,1,47.4-33.5C2056.6,480.848,2068.311,486.606,2077.751,497.351Zm-30.044-3.7a6.445,6.445,0,0,0-6.49-6.327,6.457,6.457,0,0,0,.262,12.912A6.376,6.376,0,0,0,2047.707,493.647Zm-20.568,6.511a6.578,6.578,0,0,0-6.357-6.525,6.448,6.448,0,0,0-.141,12.9A6.547,6.547,0,0,0,2027.139,500.159Zm34.485,7.755a6.363,6.363,0,0,0,6.285-6.537,6.388,6.388,0,1,0-12.774.2A6.382,6.382,0,0,0,2061.624,507.913Zm-53.095,3.393a6.44,6.44,0,1,0,6.088,6.8A6.412,6.412,0,0,0,2008.529,511.306Zm.69,21.548a6.679,6.679,0,0,0-6.429,6.552,6.443,6.443,0,0,0,12.882-.038A6.6,6.6,0,0,0,2009.219,532.853Z" transform="translate(0 -5.215)" fill="url(#linear-gradient)"/>
    <path id="Path_706" data-name="Path 706" d="M2042.809,601.063c7.859-1.959,9.5-4.153,9.287-11.893a79.752,79.752,0,0,1-.076-8.047c.508-6.821,6.051-12.659,12.681-11.888,8.894,1.035,16.889,7.447,12.845,18.079C2073.142,598.9,2054.7,606.225,2042.809,601.063Zm12.7-19.863c-.4,6.225-.774,12.115-1.149,17.993a21.95,21.95,0,0,0,15.235-6.63l-8.259,2.1,7.943-6.219-.476-.7-5.894,1.634C2060.7,586.39,2061.321,580.993,2055.51,581.2Z" transform="translate(-14.969 -31.826)" fill="url(#linear-gradient)"/>
    <path id="Path_707" data-name="Path 707" d="M2129.963,463.431a15.937,15.937,0,0,1-.93,3.853q-15.521,29.387-31.166,58.709c-1.579,2.97-3.156,5.942-4.882,9.193l-9.42-5.631,44.908-66.654Zm-43.573,65.23,1.534.916c11.178-17.887,24.358-34.478,34.088-53.3C2109.965,493.624,2098,511.027,2086.39,528.661Z" transform="translate(-27.176 0)" fill="url(#linear-gradient)"/>
    <path id="Path_708" data-name="Path 708" d="M2119.289,523.874c.8,5.947,2.213,11.89,2.262,17.843.076,9.2-8.107,15.8-17.121,14.62-1.8-.235-3.543-.651-2.316-3,5.167-9.873,10.428-19.7,15.654-29.537Z" transform="translate(-32.608 -18.241)" fill="url(#linear-gradient)"/>
    <path id="Path_709" data-name="Path 709" d="M2091.9,568.791c-1.219.607-2.773,1.975-3.462,1.627a115.547,115.547,0,0,1-11.306-6.678c-.525-.345-.675-2.053-.3-2.758s1.963-1.584,2.442-1.325c3.945,2.146,7.771,4.516,11.585,6.894C2091.261,566.8,2091.347,567.545,2091.9,568.791Z" transform="translate(-25.098 -28.964)" fill="url(#linear-gradient)"/>
  </g>
</svg>
