<svg xmlns="http://www.w3.org/2000/svg" xmlns:xlink="http://www.w3.org/1999/xlink" width="132" height="132" viewBox="0 0 132 132">
  <defs>
    <linearGradient id="linear-gradient" x1="0.5" x2="0.5" y2="1" gradientUnits="objectBoundingBox">
      <stop offset="0" stop-color="#21f5fc"/>
      <stop offset="1" stop-color="#b241f2"/>
    </linearGradient>
  </defs>
  <g id="authencity" transform="translate(-358 -4693)">
    <rect id="Rectangle_79" data-name="Rectangle 79" width="132" height="132" rx="20" transform="translate(358 4693)" fill="#ac49f3" opacity="0.19"/>
    <g id="Group_932" data-name="Group 932" transform="translate(397 4728)">
      <path id="Path_604" data-name="Path 604" d="M2166.642,442.779h-1.12c-.452-.2-.92-.368-1.354-.6a64.949,64.949,0,0,1-9.437-6.1,47.756,47.756,0,0,1-11.05-11.528,25.771,25.771,0,0,1-4.415-14.581c.069-6.261.015-12.523.017-18.785a3.335,3.335,0,0,1,2.466-3.526q11.413-4.134,22.823-8.273a4.042,4.042,0,0,1,2.9.007q11.379,4.133,22.773,8.228a3.283,3.283,0,0,1,2.513,3.542c0,6.489.04,12.979-.025,19.469a27.816,27.816,0,0,1-.571,5.237,27.308,27.308,0,0,1-5.555,11.334,52.022,52.022,0,0,1-11.459,10.6A47.562,47.562,0,0,1,2166.642,442.779Zm-.615-31.862v26.435a6.385,6.385,0,0,0,.959-.35c5.938-3.413,11.392-7.428,15.67-12.855a23.446,23.446,0,0,0,4.542-8.762,17.319,17.319,0,0,0,.564-4.45h-21.754q0-13.182.008-26.365a1.748,1.748,0,0,0-.054-.279c-.363.106-.7.184-1.031.3q-9.479,3.446-18.955,6.9c-1.275.464-1.562.862-1.562,2.194q0,8.27,0,16.54c0,.22.02.439.031.688Z" transform="translate(-2139.264 -379.123)" fill="url(#linear-gradient)"/>
    </g>
  </g>
</svg>
