<svg id="backward_arrow" xmlns="http://www.w3.org/2000/svg" xmlns:xlink="http://www.w3.org/1999/xlink" width="70" height="70" viewBox="0 0 70 70">
  <defs>
    <linearGradient id="linear-gradient" x1="0.5" x2="0.5" y2="1" gradientUnits="objectBoundingBox">
      <stop offset="0" stop-color="#21f5fc"/>
      <stop offset="1" stop-color="#b241f2"/>
    </linearGradient>
  </defs>
  <g id="Rectangle_50" data-name="Rectangle 50" fill="none" stroke="#03dbf8" stroke-width="2">
    <rect width="70" height="70" stroke="none"/>
    <rect x="1" y="1" width="68" height="68" fill="none"/>
  </g>
  <path id="Icon_awesome-arrow-right" data-name="Icon awesome-arrow-right" d="M-2.094,5.109-3.962,3.241a2.011,2.011,0,0,0-2.853,0L-23.176,19.593a2.011,2.011,0,0,0,0,2.853L-6.815,38.806a2.011,2.011,0,0,0,2.853,0l1.868-1.868a2.022,2.022,0,0,0-.034-2.887L-12.269,24.39H16.688a2.015,2.015,0,0,0,2.02-2.02V19.677a2.015,2.015,0,0,0-2.02-2.02H-12.269L-2.127,8A2.008,2.008,0,0,0-2.094,5.109Z" transform="translate(37.769 14.353)" fill="url(#linear-gradient)"/>
</svg>
