<svg xmlns="http://www.w3.org/2000/svg" xmlns:xlink="http://www.w3.org/1999/xlink" width="142.839" height="108.987" viewBox="0 0 142.839 108.987">
  <defs>
    <linearGradient id="linear-gradient" x1="0.5" x2="0.5" y2="1" gradientUnits="objectBoundingBox">
      <stop offset="0" stop-color="#21f5fc"/>
      <stop offset="1" stop-color="#b241f2"/>
    </linearGradient>
  </defs>
  <g id="celebrities" transform="translate(-2349.554 -404.065)">
    <path id="Path_595" data-name="Path 595" d="M2349.554,460.476a28.9,28.9,0,0,1,.821-3.428,10.792,10.792,0,0,1,20.886,3.4c.229,5.945-3.759,10.539-9.845,11.342-5.146.679-10.3-3.132-11.515-8.52-.137-.609-.232-1.228-.347-1.842Z" transform="translate(0 -19.511)" fill="url(#linear-gradient)"/>
    <path id="Path_596" data-name="Path 596" d="M2581.549,461.368c-.147.73-.269,1.466-.447,2.189-1.247,5.081-6.232,8.732-11.182,8.2-5.792-.62-9.883-4.849-10.082-10.421a10.8,10.8,0,0,1,9.873-11.331c5.18-.634,10.281,3.162,11.492,8.561.137.611.232,1.232.346,1.847Z" transform="translate(-89.156 -19.45)" fill="url(#linear-gradient)"/>
    <path id="Path_597" data-name="Path 597" d="M2425.83,404.065c2.063.8,3.739,1.981,4.327,4.287a5.835,5.835,0,0,1-3.827,7.088,5.727,5.727,0,0,1-7.2-3.749,5.827,5.827,0,0,1,3.567-7.326c.252-.091.5-.2.748-.3Z" transform="translate(-29.377)" fill="url(#linear-gradient)"/>
    <path id="Path_598" data-name="Path 598" d="M2515.155,404.065a6.292,6.292,0,0,1,4.174,3.553,5.855,5.855,0,0,1-3.222,7.674,5.7,5.7,0,0,1-7.435-3.222,5.789,5.789,0,0,1,3.275-7.627c.281-.112.552-.251.827-.378Z" transform="translate(-67.28)" fill="url(#linear-gradient)"/>
    <path id="Path_599" data-name="Path 599" d="M2456.831,426.549h5.234v11.093c0,4.523-.019,9.046.021,13.568a4.246,4.246,0,0,0,.477,1.9q12.313,22.9,24.656,45.775a4.972,4.972,0,0,1,.571,2.236c.043,6.744.026,13.489.023,20.233,0,.386-.034.773-.054,1.213h-108.04c-.021-.433-.056-.817-.056-1.2,0-6.784-.018-13.568.019-20.353a4.487,4.487,0,0,1,.514-2.013q6.126-11.468,12.322-22.9,6.2-11.495,12.394-23a4.222,4.222,0,0,0,.478-1.9c.032-7.855.021-15.711.021-23.566v-1.093h5.139v22.978h46.282Zm1.419,65.635c-.731-.093-1.156-.173-1.584-.2-4.51-.26-9.019-.618-13.533-.711a4.054,4.054,0,0,1-3.752-2.016c-1.738-2.627-3.7-5.106-5.626-7.733-.248.313-.421.517-.58.732-1.966,2.683-3.948,5.355-5.882,8.061a1.914,1.914,0,0,1-1.663.888c-3.445.137-6.888.331-10.33.522-1.925.107-3.848.249-5.771.376l-.045.213,12.872,6.744c-1.291,3.441-2.531,6.749-3.839,10.24,3.624-1.271,7.136-2.261,10.438-3.729a11.021,11.021,0,0,1,9.579.008c3.3,1.461,6.809,2.454,10.419,3.719l-3.834-10.245Zm-24.515-33.9c-1.092,1.494-2.112,2.81-3.04,4.189a1.95,1.95,0,0,1-1.768.9c-2.513.093-5.022.27-7.532.415l-.032.211,6.463,3.386c-.687,1.793-1.33,3.468-2.071,5.4,1.834-.665,3.438-1.174,4.981-1.827,1.723-.729,3.354-1.163,5.217-.31,1.742.8,3.615,1.309,5.654,2.025l-1.943-5.243,6.464-3.446c-2.591-.346-5.12-.522-7.652-.613a1.855,1.855,0,0,1-1.669-.857C2435.85,461.112,2434.819,459.766,2433.735,458.282Z" transform="translate(-12.763 -9.533)" fill="url(#linear-gradient)"/>
    <path id="Path_600" data-name="Path 600" d="M2369.712,549.124h-9.565V489.141a30.336,30.336,0,0,0,4.777.742,29.86,29.86,0,0,0,4.788-.717Z" transform="translate(-4.491 -36.072)" fill="url(#linear-gradient)"/>
    <path id="Path_601" data-name="Path 601" d="M2570.378,488.71a11.308,11.308,0,0,0,9.555-.049v60.214h-9.555Z" transform="translate(-93.628 -35.868)" fill="url(#linear-gradient)"/>
    <path id="Path_602" data-name="Path 602" d="M2403.667,432.626a60.988,60.988,0,0,1-9.077,32.01,16.662,16.662,0,0,1-11.265,8.058c-1.228.237-2.49.3-3.823.46v-6.841c1.051-.168,2.107-.27,3.13-.512,4.448-1.052,7.8-3.741,10.563-7.248,4.236-5.38,6.692-11.62,8.547-18.123C2402.478,437.856,2403.031,435.229,2403.667,432.626Z" transform="translate(-12.698 -12.11)" fill="url(#linear-gradient)"/>
    <path id="Path_603" data-name="Path 603" d="M2525.015,432.516c.558,2.334,1.05,4.685,1.686,7,1.855,6.757,4.32,13.248,8.676,18.851,3.061,3.937,6.825,6.824,11.9,7.633.584.093,1.177.132,1.865.207V473a16.356,16.356,0,0,1-10.516-3.4,25.768,25.768,0,0,1-7.167-9.5,78.008,78.008,0,0,1-6.14-19.893,63.739,63.739,0,0,1-.531-7.684Z" transform="translate(-74.3 -12.063)" fill="url(#linear-gradient)"/>
  </g>
</svg>
