<svg xmlns="http://www.w3.org/2000/svg" xmlns:xlink="http://www.w3.org/1999/xlink" width="70" height="70" viewBox="0 0 70 70">
  <defs>
    <linearGradient id="linear-gradient" x1="0.5" x2="0.5" y2="1" gradientUnits="objectBoundingBox">
      <stop offset="0" stop-color="#21f5fc"/>
      <stop offset="1" stop-color="#b241f2"/>
    </linearGradient>
  </defs>
  <g id="forward_arrow" transform="translate(0 0)">
    <g id="Rectangle_50" data-name="Rectangle 50" transform="translate(0 0)" fill="none" stroke="#03dbf8" stroke-width="2">
      <rect width="70" height="70" stroke="none"/>
      <rect x="1" y="1" width="68" height="68" fill="none"/>
    </g>
    <path id="Icon_awesome-arrow-right" data-name="Icon awesome-arrow-right" d="M-2.968,5.109-1.1,3.241a2.011,2.011,0,0,1,2.853,0L18.114,19.593a2.011,2.011,0,0,1,0,2.853L1.754,38.806a2.011,2.011,0,0,1-2.853,0l-1.868-1.868a2.022,2.022,0,0,1,.034-2.887L7.207,24.39H-21.749a2.015,2.015,0,0,1-2.02-2.02V19.677a2.015,2.015,0,0,1,2.02-2.02H7.207L-2.934,8A2.008,2.008,0,0,1-2.968,5.109Z" transform="translate(37.292 14.353)" fill="url(#linear-gradient)"/>
  </g>
</svg>
