<svg xmlns="http://www.w3.org/2000/svg" xmlns:xlink="http://www.w3.org/1999/xlink" width="589.149" height="412.068" viewBox="0 0 589.149 412.068">
  <defs>
    <linearGradient id="linear-gradient" x1="2.065" y1="-3.597" x2="2.065" y2="-4.579" gradientUnits="objectBoundingBox">
      <stop offset="0" stop-color="#68b0ff"/>
      <stop offset="0.149" stop-color="#678aff"/>
      <stop offset="0.461" stop-color="#6640ff"/>
      <stop offset="0.684" stop-color="#61f"/>
      <stop offset="0.796" stop-color="#60f"/>
      <stop offset="0.835" stop-color="#5500db"/>
      <stop offset="0.884" stop-color="#4300b6"/>
      <stop offset="0.929" stop-color="#36009b"/>
      <stop offset="0.969" stop-color="#2e008a"/>
      <stop offset="1" stop-color="#2c0085"/>
    </linearGradient>
    <linearGradient id="linear-gradient-2" x1="2.302" y1="-3.152" x2="2.302" y2="-4.144" xlink:href="#linear-gradient"/>
    <radialGradient id="radial-gradient" cx="0.502" cy="0.502" r="0.9" gradientTransform="matrix(0.371, -0.409, 0.176, 0.966, 2.103, 0.329)" gradientUnits="objectBoundingBox">
      <stop offset="0" stop-color="#2c5cff"/>
      <stop offset="0.274" stop-color="#396eff"/>
      <stop offset="0.828" stop-color="#5c9fff"/>
      <stop offset="1" stop-color="#68b0ff"/>
    </radialGradient>
    <radialGradient id="radial-gradient-2" cx="0.511" cy="0.5" r="0.374" gradientTransform="matrix(-1.643, 0.408, 0.778, 0.966, -6.379, 1.21)" xlink:href="#radial-gradient"/>
    <radialGradient id="radial-gradient-3" cx="0.5" cy="0.5" r="0.598" gradientTransform="matrix(0.718, -0.098, 0.071, 0.995, 0.18, 0.051)" gradientUnits="objectBoundingBox">
      <stop offset="0" stop-color="#2c5cff"/>
      <stop offset="0.254" stop-color="#3849ff"/>
      <stop offset="0.765" stop-color="#5818ff"/>
      <stop offset="1" stop-color="#6800ff"/>
    </radialGradient>
    <clipPath id="clip-path">
      <path id="Path_128" data-name="Path 128" d="M1004.943,355.6s63.424-33.282,149.944,9.7c0,0-57.315-35.557-142.745-1.375Z" transform="translate(-1004.943 -343.31)" fill="none"/>
    </clipPath>
    <clipPath id="clip-path-2">
      <path id="Path_176" data-name="Path 176" d="M774.617,544.184s15.173-79.015,85.853-115.232l1.932,10.911S798.57,463.032,774.617,544.184Z" transform="translate(-774.617 -428.952)" fill="none"/>
    </clipPath>
    <clipPath id="clip-path-3">
      <path id="Path_214" data-name="Path 214" d="M903.768,583.9l22.788-45.571L962.9,435.9l14.449,2.15s-37.176,98.928-54.372,133.869Z" transform="translate(-903.768 -435.898)" fill="none"/>
    </clipPath>
    <radialGradient id="radial-gradient-4" cx="0.489" cy="0.507" r="0.427" gradientTransform="matrix(1.482, -0.408, 0.663, 0.913, 1.425, 0.646)" gradientUnits="objectBoundingBox">
      <stop offset="0.006" stop-color="#4c5cff"/>
      <stop offset="0.226" stop-color="#3540b3"/>
      <stop offset="0.433" stop-color="#222973"/>
      <stop offset="0.62" stop-color="#131741"/>
      <stop offset="0.783" stop-color="#080a1d"/>
      <stop offset="0.915" stop-color="#020207"/>
      <stop offset="1"/>
    </radialGradient>
  </defs>
  <g id="Group_96" data-name="Group 96" transform="translate(-761.945 -342.594)" style="isolation: isolate">
    <path id="Path_54" data-name="Path 54" d="M1254.236,352.281a139.532,139.532,0,0,0-102.137-.012l-.035-.094a109.373,109.373,0,0,0-23.739,12.037c-.354.222-.719.43-1.069.655a35.377,35.377,0,0,0-3.3,2.328l.024.031c-37.432,27.343-62.474,77.7-84.549,131.886C981.292,475.92,922.587,459.233,867.5,479.781l-.042-.111c-2.378.9-4.76,1.886-7.28,3.015-.628.28-1.253.565-1.859.856a140.478,140.478,0,0,0-68.979,184.738c31.639,70.7,114.9,102.475,185.6,70.837.946-.424,1.886-.863,2.808-1.3l.16-.077-.02-.04c45.45-22.306,74.238-82.331,99.937-147.982,62.5,25.911,125.865,47.03,182.656,21.615l-.058-.139.058.134c70.7-31.639,102.475-114.9,70.836-185.6A139.666,139.666,0,0,0,1254.236,352.281ZM949.248,675.251l.007.018-.01-.024-.742.342c-.543.256-1.094.517-1.652.766a71.7,71.7,0,0,1-59.651-130.4c33.737-15.02,79.666-1.688,127.172,17.215C995.147,612.233,972.451,664.866,949.248,675.251ZM1233.4,548.084c-32,14.086-81.129-2.2-130.5-22.469,18.207-44.7,38.41-86.524,61.936-103.129a71.247,71.247,0,0,1,8.975-4.826c.277-.123.55-.25.833-.369l.306-.129c35.731-15.278,77.72,1.166,93.6,36.659A71.779,71.779,0,0,1,1233.4,548.084Z" transform="translate(7.528 0)" fill="#ff40ff" opacity="0.83" style="mix-blend-mode: screen;isolation: isolate"/>
    <path id="Path_55" data-name="Path 55" d="M1239.155,354.435a139.528,139.528,0,0,0-102.138-.013l-.034-.094a109.436,109.436,0,0,0-23.739,12.037c-.352.222-.719.432-1.069.657a35.545,35.545,0,0,0-3.3,2.327l.024.031c-37.43,27.343-62.472,77.7-84.547,131.886-58.147-23.192-116.851-39.879-171.937-19.331l-.042-.111c-2.378.9-4.758,1.886-7.28,3.015-.627.28-1.252.565-1.857.856A140.475,140.475,0,0,0,774.262,670.43c31.639,70.7,114.9,102.477,185.6,70.838.944-.424,1.884-.863,2.808-1.3l.16-.075-.021-.042c45.451-22.3,74.238-82.331,99.939-147.98,62.5,25.91,125.865,47.028,182.654,21.613l-.059-.139.06.133c70.7-31.638,102.474-114.9,70.834-185.6A139.656,139.656,0,0,0,1239.155,354.435ZM934.165,677.4l.007.018-.01-.024-.742.342c-.543.256-1.094.517-1.651.766a71.7,71.7,0,0,1-59.652-130.4c33.737-15.02,79.668-1.688,127.172,17.215C980.064,614.385,957.37,667.018,934.165,677.4Zm284.154-127.166c-32,14.086-81.129-2.2-130.5-22.468,18.207-44.7,38.408-86.526,61.936-103.131a71.211,71.211,0,0,1,8.974-4.826c.277-.123.55-.25.833-.369l.308-.129c35.729-15.278,77.72,1.166,93.6,36.659A71.78,71.78,0,0,1,1218.319,550.236Z" transform="translate(0 1.074)" fill="#00bdff" opacity="0.42" style="mix-blend-mode: screen;isolation: isolate"/>
    <g id="Group_81" data-name="Group 81" transform="translate(794.971 346.356)">
      <g id="Group_78" data-name="Group 78" transform="translate(0 122.507)">
        <path id="Path_56" data-name="Path 56" d="M965.869,673.092c-63.456,28.4-139.531-3.133-169.585-70.287-14.438-32.263-16.237-67.953-5.069-100.5,11.128-32.423,33.843-57.99,63.98-72.022.544-.262,1.1-.517,1.667-.771,2.264-1.012,4.4-1.893,6.539-2.694l23.306,61c-.986.37-2.022.8-3.165,1.309l-.733.343C851,504.191,837.46,543.721,852.618,577.594c15.342,34.282,54.177,50.379,86.571,35.882.5-.223,1-.459,1.483-.688l.664-.307,14.93,33.2,12.266,26.178-.142.067C967.56,672.317,966.718,672.713,965.869,673.092Z" transform="translate(-783.975 -426.822)" fill="url(#linear-gradient)"/>
      </g>
      <g id="Group_79" data-name="Group 79" transform="translate(71.824)">
        <path id="Path_57" data-name="Path 57" d="M1108.335,355.265c-31.506-13.353-65.667-13.552-96.212-.562a115.8,115.8,0,0,0-18.624,9.93,30,30,0,0,0-2.94,2.126l39.82,51.5a28.512,28.512,0,0,1-6.422,3.959l2.175-.973,1.99-1.315a60.472,60.472,0,0,1,8.6-4.7c.249-.111.493-.225.748-.331l.276-.115c32.083-13.681,70.459,2.615,85.545,36.326,15.342,34.282,1.471,73.966-30.923,88.464l26.679,59.615c63.457-28.4,90.631-106.135,60.579-173.289C1165.229,393.732,1139.911,368.648,1108.335,355.265Z" transform="translate(-752.684 -345.104)" fill="url(#linear-gradient-2)"/>
        <path id="Path_58" data-name="Path 58" d="M1032.556,467.6c-67.679-31.085-137.663-63.229-200.671-35.032l26.68,59.616c38.416-17.192,95.558,9.053,150.818,34.435,64.435,29.6,131.064,60.2,188.862,34.335l-25.506-60.164C1139.535,515.648,1084.572,491.489,1032.556,467.6Z" transform="translate(-831.885 -306.864)" fill="url(#radial-gradient)"/>
      </g>
      <g id="Group_80" data-name="Group 80" transform="translate(157.365 8.067)">
        <path id="Path_59" data-name="Path 59" d="M915.624,710.2l-26.679-59.616c23.791-10.647,45.905-73.2,63.675-123.453,27.093-76.629,55.092-155.866,113.836-176.65l22.312,61.363c-32.08,11.364-56.233,79.612-77.524,139.827C986.245,622.382,962.634,689.167,915.624,710.2Z" transform="translate(-888.945 -350.485)" fill="url(#radial-gradient-2)"/>
      </g>
    </g>
    <path id="Path_60" data-name="Path 60" d="M1250.061,354.482a139.528,139.528,0,0,0-102.138-.013l-.035-.094a109.509,109.509,0,0,0-23.739,12.037c-.352.223-.72.432-1.069.657a35.273,35.273,0,0,0-3.3,2.328l.024.03c-37.431,27.343-62.472,77.7-84.547,131.887-58.147-23.193-116.851-39.88-171.937-19.331l-.042-.111c-2.378.9-4.758,1.886-7.28,3.013-.627.28-1.252.565-1.858.856a140.475,140.475,0,0,0-68.979,184.738c31.639,70.7,114.9,102.477,185.6,70.838.946-.423,1.885-.862,2.808-1.3l.16-.075-.019-.042c45.449-22.3,74.237-82.331,99.937-147.98,62.5,25.91,125.865,47.028,182.654,21.615l-.059-.139.06.133c70.7-31.639,102.474-114.9,70.834-185.6A139.656,139.656,0,0,0,1250.061,354.482ZM945.071,677.45l.007.018-.01-.023-.741.342c-.544.255-1.1.516-1.652.765a71.7,71.7,0,0,1-59.652-130.4c33.737-15.02,79.667-1.69,127.172,17.213C990.97,614.432,968.276,667.065,945.071,677.45Zm284.154-127.166c-32,14.087-81.129-2.2-130.5-22.468,18.207-44.7,38.408-86.525,61.936-103.13a71.189,71.189,0,0,1,8.974-4.824c.277-.124.55-.252.833-.369l.307-.13c35.729-15.278,77.72,1.168,93.6,36.659A71.78,71.78,0,0,1,1229.225,550.283Z" transform="translate(5.444 1.098)" fill="url(#radial-gradient-3)"/>
    <path id="Path_61" data-name="Path 61" d="M973.5,532.548l27-68.8,9.3,6.607-10.736,72.413Z" transform="translate(105.595 60.471)" fill="#776692" style="mix-blend-mode: multiply;isolation: isolate"/>
    <g id="Group_82" data-name="Group 82" transform="translate(1036.038 455.232)">
      <path id="Path_62" data-name="Path 62" d="M1023.441,467.553l-1,.236-11.491-48.62L959.264,442.3l-14.485-3.157.217-1,14.157,3.086,52.512-23.5Z" transform="translate(-944.778 -417.729)" fill="#201d9f"/>
    </g>
    <g id="Group_83" data-name="Group 83" transform="translate(1242.368 423.703)">
      <path id="Path_63" data-name="Path 63" d="M1150.449,437.324l-.37-.063-40.148-6.619-27.107,12.009-.414-.935,27.386-12.132,40.078,6.607,19.883-39.492.914.46Z" transform="translate(-1082.41 -396.698)" fill="#201d9f"/>
    </g>
    <g id="Group_84" data-name="Group 84" transform="translate(1122.7 539.899)">
      <path id="Path_64" data-name="Path 64" d="M1034.512,554.006l-31.927-39.814.314-.323,31.163-32.188-3.157-7.058.934-.417,3.441,7.687-31.333,32.364,31.364,39.107Z" transform="translate(-1002.586 -474.206)" fill="#201d9f"/>
    </g>
    <g id="Group_87" data-name="Group 87" transform="translate(1126.234 343.668)">
      <g id="Group_86" data-name="Group 86">
        <g id="Group_85" data-name="Group 85" clip-path="url(#clip-path)">
          <rect id="Rectangle_45" data-name="Rectangle 45" width="138.704" height="68.71" transform="translate(-3.542 1.95) rotate(-18.913)" fill="#68b0ff"/>
          <path id="Path_65" data-name="Path 65" d="M1024.318,393.625c-12.684-28.346-1.255-61.041,25.53-73.028l4.589,13.395,36.807-12.611-.376-1.1a58.575,58.575,0,0,1,32.483,72.584l-1.7-4.949-70.792,24.255,3.9,11.388A57.741,57.741,0,0,1,1024.318,393.625Z" transform="translate(-997.856 -354.805)" fill="#68b0ff"/>
          <path id="Path_66" data-name="Path 66" d="M1024.684,393.162c-12.534-28.008-1.241-60.315,25.225-72.158l4.373,12.764,36.369-12.461-.21-.615a57.877,57.877,0,0,1,32.1,71.721l-1.555-4.542-69.95,23.967,3.736,10.9A57.045,57.045,0,0,1,1024.684,393.162Z" transform="translate(-997.643 -354.6)" fill="#67afff"/>
          <path id="Path_67" data-name="Path 67" d="M1025.049,392.7c-12.385-27.671-1.226-59.588,24.92-71.29l4.158,12.134,35.93-12.311-.043-.13a57.18,57.18,0,0,1,31.708,70.855l-1.416-4.133L1051.2,411.5l3.569,10.419A56.365,56.365,0,0,1,1025.049,392.7Z" transform="translate(-997.43 -354.396)" fill="#66aeff"/>
          <path id="Path_68" data-name="Path 68" d="M1025.413,393.552c-12.233-27.332-1.211-58.861,24.617-70.419a49.709,49.709,0,0,1,39.555-.3,56.482,56.482,0,0,1,31.323,69.992l-1.277-3.725-68.264,23.388,3.4,9.935A55.677,55.677,0,0,1,1025.413,393.552Z" transform="translate(-997.217 -355.507)" fill="#66adff"/>
          <path id="Path_69" data-name="Path 69" d="M1025.778,393.073c-12.082-27-1.2-58.135,24.313-69.551s55.983,1.214,68.064,28.211a54.991,54.991,0,0,1,1.94,40.618l-1.138-3.319-67.421,23.1,3.238,9.451A54.985,54.985,0,0,1,1025.778,393.073Z" transform="translate(-997.005 -355.287)" fill="#65abff"/>
          <path id="Path_70" data-name="Path 70" d="M1026.142,392.593c-11.93-26.658-1.18-57.407,24.01-68.68s55.282,1.2,67.213,27.857a54.294,54.294,0,0,1,1.914,40.11l-1-2.91L1051.7,411.78l3.072,8.966A54.3,54.3,0,0,1,1026.142,392.593Z" transform="translate(-996.792 -355.065)" fill="#64aaff"/>
          <path id="Path_71" data-name="Path 71" d="M1026.506,392.114c-11.779-26.32-1.165-56.681,23.706-67.811s54.582,1.183,66.362,27.5a53.616,53.616,0,0,1,1.89,39.6l-.857-2.5-65.736,22.523,2.905,8.482A53.616,53.616,0,0,1,1026.506,392.114Z" transform="translate(-996.579 -354.844)" fill="#63a9ff"/>
          <path id="Path_72" data-name="Path 72" d="M1026.871,391.635c-11.628-25.983-1.15-55.954,23.4-66.943s53.882,1.168,65.51,27.152a52.92,52.92,0,0,1,1.868,39.095l-.718-2.1-64.893,22.234,2.74,8A52.934,52.934,0,0,1,1026.871,391.635Z" transform="translate(-996.366 -354.624)" fill="#62a8ff"/>
          <path id="Path_73" data-name="Path 73" d="M1027.235,391.156c-11.476-25.647-1.135-55.228,23.1-66.073s53.182,1.153,64.66,26.8a52.232,52.232,0,0,1,1.842,38.586l-.577-1.687-64.051,21.944,2.574,7.512A52.236,52.236,0,0,1,1027.235,391.156Z" transform="translate(-996.154 -354.403)" fill="#61a7ff"/>
          <path id="Path_74" data-name="Path 74" d="M1027.6,390.676c-11.326-25.309-1.121-54.5,22.793-65.2s52.484,1.139,63.809,26.446a51.544,51.544,0,0,1,1.818,38.08l-.438-1.28-63.208,21.657,2.408,7.029A51.553,51.553,0,0,1,1027.6,390.676Z" transform="translate(-995.94 -354.182)" fill="#61a6ff"/>
          <path id="Path_75" data-name="Path 75" d="M1027.966,390.2c-11.176-24.971-1.106-53.774,22.49-64.334s51.783,1.123,62.958,26.094a50.864,50.864,0,0,1,1.795,37.572l-.3-.872-62.366,21.367,2.243,6.544A50.857,50.857,0,0,1,1027.966,390.2Z" transform="translate(-995.728 -353.961)" fill="#60a4ff"/>
          <path id="Path_76" data-name="Path 76" d="M1028.33,389.717c-11.025-24.632-1.091-53.047,22.186-63.465s51.083,1.108,62.108,25.742a50.176,50.176,0,0,1,1.77,37.063l-.16-.465-61.522,21.079,2.076,6.06A50.175,50.175,0,0,1,1028.33,389.717Z" transform="translate(-995.515 -353.74)" fill="#5fa3ff"/>
          <path id="Path_77" data-name="Path 77" d="M1028.694,389.238c-10.873-24.3-1.076-52.322,21.881-62.6s50.385,1.093,61.258,25.388a49.491,49.491,0,0,1,1.745,36.557l-.019-.057-60.679,20.79,1.911,5.575A49.483,49.483,0,0,1,1028.694,389.238Z" transform="translate(-995.303 -353.519)" fill="#5ea2ff"/>
          <path id="Path_78" data-name="Path 78" d="M1029.059,388.76c-10.722-23.959-1.061-51.594,21.578-61.727s49.685,1.078,60.407,25.037a48.8,48.8,0,0,1,1.721,36.048,44.943,44.943,0,0,1-8.869,15.128l-3.587-10.469-47.26,16.192,1.745,5.091A48.8,48.8,0,0,1,1029.059,388.76Z" transform="translate(-995.09 -353.298)" fill="#5da1ff"/>
          <path id="Path_79" data-name="Path 79" d="M1029.423,388.279c-10.571-23.62-1.047-50.867,21.274-60.856s48.985,1.063,59.557,24.683a48.12,48.12,0,0,1,1.7,35.54,44.305,44.305,0,0,1-8.745,14.915l-3.4-9.908-46.595,15.964,1.579,4.607A48.109,48.109,0,0,1,1029.423,388.279Z" transform="translate(-994.877 -353.077)" fill="#5ca0ff"/>
          <path id="Path_80" data-name="Path 80" d="M1029.788,387.8c-10.419-23.285-1.031-50.142,20.972-59.988s48.284,1.048,58.7,24.333a47.417,47.417,0,0,1,1.673,35.032,43.655,43.655,0,0,1-8.619,14.7l-3.2-9.349-45.929,15.737,1.414,4.123A47.427,47.427,0,0,1,1029.788,387.8Z" transform="translate(-994.664 -352.856)" fill="#5c9fff"/>
          <path id="Path_81" data-name="Path 81" d="M1030.152,387.321c-10.269-22.947-1.015-49.415,20.667-59.119s47.584,1.033,57.854,23.979a46.739,46.739,0,0,1,1.649,34.525,43.027,43.027,0,0,1-8.494,14.488l-3.012-8.788-45.264,15.509,1.247,3.638A46.738,46.738,0,0,1,1030.152,387.321Z" transform="translate(-994.452 -352.635)" fill="#5b9eff"/>
          <path id="Path_82" data-name="Path 82" d="M1030.517,386.841c-10.118-22.609-1-48.688,20.363-58.248s46.886,1.016,57,23.625,1,48.688-20.363,58.249l-4.44-12.963-29.359,10.059,1.081,3.154A46.054,46.054,0,0,1,1030.517,386.841Z" transform="translate(-994.239 -352.414)" fill="#5a9cff"/>
          <path id="Path_83" data-name="Path 83" d="M1030.882,386.363c-9.968-22.271-.986-47.961,20.058-57.38s46.186,1,56.152,23.273.986,47.962-20.058,57.38l-4.226-12.332-28.92,9.909.916,2.67A45.365,45.365,0,0,1,1030.882,386.363Z" transform="translate(-994.026 -352.193)" fill="#599bff"/>
          <path id="Path_84" data-name="Path 84" d="M1031.247,385.884c-9.816-21.934-.971-47.235,19.754-56.51s45.486.986,55.3,22.92.971,47.235-19.756,56.51l-4.009-11.7-28.482,9.759.75,2.186A44.679,44.679,0,0,1,1031.247,385.884Z" transform="translate(-993.813 -351.972)" fill="#589aff"/>
          <ellipse id="Ellipse_17" data-name="Ellipse 17" cx="40.482" cy="42.841" rx="40.482" ry="42.841" transform="translate(20.511 -5.452) rotate(-24.109)" fill="#5899ff"/>
          <path id="Path_85" data-name="Path 85" d="M1031.976,384.925c-9.514-21.259-.941-45.781,19.147-54.771s44.085.956,53.6,22.216.942,45.781-19.147,54.77S1041.489,406.184,1031.976,384.925Z" transform="translate(-993.388 -351.531)" fill="#5798ff"/>
          <ellipse id="Ellipse_18" data-name="Ellipse 18" cx="39.217" cy="41.503" rx="39.217" ry="41.503" transform="translate(22.212 -4.746) rotate(-24.11)" fill="#5697ff"/>
          <ellipse id="Ellipse_19" data-name="Ellipse 19" cx="38.585" cy="40.833" rx="38.585" ry="40.833" transform="translate(23.063 -4.393) rotate(-24.11)" fill="#5596ff"/>
          <ellipse id="Ellipse_20" data-name="Ellipse 20" cx="37.952" cy="40.164" rx="37.952" ry="40.164" transform="translate(23.914 -4.042) rotate(-24.109)" fill="#5495ff"/>
          <ellipse id="Ellipse_21" data-name="Ellipse 21" cx="37.319" cy="39.494" rx="37.319" ry="39.494" transform="matrix(0.913, -0.409, 0.409, 0.913, 24.764, -3.686)" fill="#5494ff"/>
          <ellipse id="Ellipse_22" data-name="Ellipse 22" cx="36.687" cy="38.825" rx="36.687" ry="38.825" transform="matrix(0.913, -0.408, 0.408, 0.913, 25.616, -3.337)" fill="#5392ff"/>
          <path id="Path_86" data-name="Path 86" d="M1034.164,382.049c-8.608-19.235-.851-41.421,17.323-49.556s39.888.865,48.5,20.1.851,41.42-17.324,49.554S1042.772,401.283,1034.164,382.049Z" transform="translate(-992.111 -350.205)" fill="#5291ff"/>
          <path id="Path_87" data-name="Path 87" d="M1034.528,381.569c-8.457-18.9-.837-40.693,17.02-48.685s39.187.85,47.644,19.747.837,40.694-17.02,48.685S1042.985,400.467,1034.528,381.569Z" transform="translate(-991.898 -349.984)" fill="#5190ff"/>
          <ellipse id="Ellipse_23" data-name="Ellipse 23" cx="34.789" cy="36.817" rx="34.789" ry="36.817" transform="translate(28.168 -2.279) rotate(-24.108)" fill="#518fff"/>
          <path id="Path_88" data-name="Path 88" d="M1035.257,380.611c-8.154-18.222-.807-39.242,16.413-46.947s37.787.82,45.943,19.042.807,39.24-16.413,46.946S1043.412,398.833,1035.257,380.611Z" transform="translate(-991.473 -349.542)" fill="#508eff"/>
          <path id="Path_89" data-name="Path 89" d="M1035.622,380.131c-8-17.885-.792-38.513,16.108-46.076s37.089.8,45.091,18.688.793,38.515-16.107,46.078S1043.625,398.015,1035.622,380.131Z" transform="translate(-991.26 -349.321)" fill="#4f8dff"/>
          <ellipse id="Ellipse_24" data-name="Ellipse 24" cx="32.892" cy="34.808" rx="32.892" ry="34.808" transform="translate(30.721 -1.22) rotate(-24.109)" fill="#4e8cff"/>
          <ellipse id="Ellipse_25" data-name="Ellipse 25" cx="32.259" cy="34.139" rx="32.259" ry="34.139" transform="translate(31.573 -0.871) rotate(-24.105)" fill="#4d8bff"/>
          <ellipse id="Ellipse_26" data-name="Ellipse 26" cx="31.627" cy="33.47" rx="31.627" ry="33.47" transform="translate(32.421 -0.514) rotate(-24.111)" fill="#4d8aff"/>
          <path id="Path_90" data-name="Path 90" d="M1037.08,378.214c-7.4-16.536-.733-35.608,14.893-42.6s34.288.744,41.688,17.279.732,35.606-14.892,42.6S1044.48,394.75,1037.08,378.214Z" transform="translate(-990.409 -348.437)" fill="#4c89ff"/>
          <path id="Path_91" data-name="Path 91" d="M1037.445,377.735c-7.248-16.2-.718-34.88,14.588-41.732s33.59.729,40.838,16.927.717,34.881-14.588,41.73S1044.693,393.932,1037.445,377.735Z" transform="translate(-990.196 -348.217)" fill="#4b88ff"/>
          <ellipse id="Ellipse_27" data-name="Ellipse 27" cx="29.729" cy="31.462" rx="29.729" ry="31.462" transform="translate(34.974 0.543) rotate(-24.11)" fill="#4a86ff"/>
          <ellipse id="Ellipse_28" data-name="Ellipse 28" cx="29.097" cy="30.792" rx="29.097" ry="30.792" transform="translate(35.826 0.894) rotate(-24.108)" fill="#4a85ff"/>
          <path id="Path_92" data-name="Path 92" d="M1038.538,376.3c-6.8-15.186-.672-32.7,13.677-39.123s31.491.684,38.285,15.868.673,32.7-13.675,39.122S1045.334,391.482,1038.538,376.3Z" transform="translate(-989.558 -347.554)" fill="#4984ff"/>
          <ellipse id="Ellipse_29" data-name="Ellipse 29" cx="27.831" cy="29.453" rx="27.831" ry="29.453" transform="matrix(0.913, -0.408, 0.408, 0.913, 37.527, 1.6)" fill="#4883ff"/>
          <ellipse id="Ellipse_30" data-name="Ellipse 30" cx="27.199" cy="28.784" rx="27.199" ry="28.784" transform="translate(38.378 1.952) rotate(-24.108)" fill="#4782ff"/>
          <path id="Path_93" data-name="Path 93" d="M1039.633,374.858c-6.343-14.171-.628-30.52,12.764-36.513s29.391.637,35.734,14.81.628,30.521-12.765,36.515S1045.976,389.031,1039.633,374.858Z" transform="translate(-988.92 -346.891)" fill="#4781ff"/>
          <ellipse id="Ellipse_31" data-name="Ellipse 31" cx="25.934" cy="27.445" rx="25.934" ry="27.445" transform="translate(40.079 2.659) rotate(-24.111)" fill="#4680ff"/>
          <path id="Path_94" data-name="Path 94" d="M1040.362,373.9c-6.04-13.5-.6-29.067,12.156-34.776s27.992.607,34.032,14.105.6,29.067-12.157,34.774S1046.4,387.4,1040.362,373.9Z" transform="translate(-988.494 -346.449)" fill="#457fff"/>
          <path id="Path_95" data-name="Path 95" d="M1040.726,373.42c-5.89-13.159-.583-28.34,11.852-33.9s27.292.591,33.182,13.752.582,28.341-11.854,33.906S1046.616,386.581,1040.726,373.42Z" transform="translate(-988.282 -346.228)" fill="#447eff"/>
          <path id="Path_96" data-name="Path 96" d="M1041.091,372.942c-5.739-12.822-.568-27.614,11.549-33.037s26.592.577,32.331,13.4.567,27.614-11.55,33.037S1046.829,385.765,1041.091,372.942Z" transform="translate(-988.069 -346.007)" fill="#447dff"/>
          <path id="Path_97" data-name="Path 97" d="M1041.455,372.463c-5.587-12.486-.553-26.887,11.245-32.167s25.892.561,31.479,13.047.553,26.887-11.245,32.167S1047.044,384.948,1041.455,372.463Z" transform="translate(-987.856 -345.786)" fill="#437cff"/>
          <ellipse id="Ellipse_32" data-name="Ellipse 32" cx="22.771" cy="24.098" rx="22.771" ry="24.098" transform="translate(44.333 4.421) rotate(-24.108)" fill="#427bff"/>
          <ellipse id="Ellipse_33" data-name="Ellipse 33" cx="22.139" cy="23.429" rx="22.139" ry="23.429" transform="translate(45.183 4.776) rotate(-24.112)" fill="#417aff"/>
          <path id="Path_98" data-name="Path 98" d="M1042.55,371.025c-5.135-11.473-.509-24.707,10.333-29.56s23.791.517,28.926,11.99.508,24.707-10.334,29.559S1047.684,382.5,1042.55,371.025Z" transform="translate(-987.218 -345.124)" fill="#4179ff"/>
          <ellipse id="Ellipse_34" data-name="Ellipse 34" cx="20.874" cy="22.09" rx="20.874" ry="22.09" transform="translate(46.885 5.48) rotate(-24.111)" fill="#4078ff"/>
          <ellipse id="Ellipse_35" data-name="Ellipse 35" cx="20.241" cy="21.421" rx="20.241" ry="21.421" transform="translate(47.736 5.833) rotate(-24.111)" fill="#3f77ff"/>
          <path id="Path_99" data-name="Path 99" d="M1043.643,369.587c-4.682-10.461-.463-22.528,9.422-26.952s21.693.471,26.375,10.932.463,22.528-9.422,26.95S1048.325,380.047,1043.643,369.587Z" transform="translate(-986.58 -344.461)" fill="#3f76ff"/>
          <path id="Path_100" data-name="Path 100" d="M1044.007,369.107c-4.53-10.124-.448-21.8,9.118-26.081s20.994.454,25.524,10.578.448,21.8-9.118,26.082S1048.538,379.23,1044.007,369.107Z" transform="translate(-986.367 -344.24)" fill="#3e75ff"/>
          <path id="Path_101" data-name="Path 101" d="M1044.372,368.628c-4.379-9.786-.433-21.073,8.813-25.213s20.294.441,24.673,10.227.435,21.073-8.813,25.211S1048.752,378.414,1044.372,368.628Z" transform="translate(-986.154 -344.019)" fill="#3d74ff"/>
          <path id="Path_102" data-name="Path 102" d="M1044.736,368.149c-4.228-9.449-.418-20.348,8.511-24.343s19.594.424,23.821,9.873.42,20.346-8.509,24.343S1048.966,377.6,1044.736,368.149Z" transform="translate(-985.942 -343.798)" fill="#3c73ff"/>
          <path id="Path_103" data-name="Path 103" d="M1045.1,367.669c-4.078-9.11-.4-19.621,8.2-23.474s18.894.411,22.971,9.521.4,19.621-8.2,23.474S1049.178,376.781,1045.1,367.669Z" transform="translate(-985.728 -343.577)" fill="#3c72ff"/>
          <ellipse id="Ellipse_36" data-name="Ellipse 36" cx="16.446" cy="17.404" rx="16.446" ry="17.404" transform="translate(52.841 7.948) rotate(-24.11)" fill="#3b71ff"/>
          <ellipse id="Ellipse_37" data-name="Ellipse 37" cx="15.813" cy="16.735" rx="15.813" ry="16.735" transform="matrix(0.913, -0.408, 0.408, 0.913, 53.692, 8.301)" fill="#3a70ff"/>
          <path id="Path_104" data-name="Path 104" d="M1046.2,366.231c-3.625-8.1-.358-17.44,7.293-20.865s16.795.364,20.42,8.463.358,17.441-7.295,20.865S1049.82,374.329,1046.2,366.231Z" transform="translate(-985.09 -342.914)" fill="#3a6fff"/>
          <path id="Path_105" data-name="Path 105" d="M1046.56,365.752c-3.473-7.761-.343-16.714,6.99-20s16.095.349,19.568,8.11.343,16.714-6.99,20S1050.033,373.513,1046.56,365.752Z" transform="translate(-984.878 -342.693)" fill="#396eff"/>
          <path id="Path_106" data-name="Path 106" d="M1046.924,365.273c-3.322-7.425-.328-15.988,6.686-19.128s15.395.334,18.718,7.758.328,15.987-6.686,19.126S1050.246,372.7,1046.924,365.273Z" transform="translate(-984.665 -342.472)" fill="#386dff"/>
          <path id="Path_107" data-name="Path 107" d="M1047.289,364.793c-3.171-7.086-.313-15.26,6.383-18.257s14.695.318,17.865,7.4.315,15.261-6.382,18.258S1050.461,371.88,1047.289,364.793Z" transform="translate(-984.452 -342.251)" fill="#386cff"/>
          <path id="Path_108" data-name="Path 108" d="M1047.653,364.314c-3.019-6.749-.3-14.534,6.079-17.389s14,.3,17.015,7.053.3,14.533-6.078,17.387S1050.674,371.063,1047.653,364.314Z" transform="translate(-984.239 -342.03)" fill="#376bff"/>
          <path id="Path_109" data-name="Path 109" d="M1048.019,363.834c-2.87-6.41-.285-13.807,5.773-16.518s13.3.288,16.165,6.7.285,13.807-5.775,16.518S1050.887,370.246,1048.019,363.834Z" transform="translate(-984.027 -341.81)" fill="#366aff"/>
          <path id="Path_110" data-name="Path 110" d="M1048.384,363.355c-2.72-6.074-.27-13.08,5.47-15.65s12.6.274,15.314,6.347.27,13.082-5.47,15.65S1051.1,369.43,1048.384,363.355Z" transform="translate(-983.814 -341.589)" fill="#3669ff"/>
          <path id="Path_111" data-name="Path 111" d="M1048.748,362.876c-2.568-5.737-.255-12.354,5.166-14.78s11.9.258,14.464,6,.253,12.353-5.166,14.779S1051.314,368.612,1048.748,362.876Z" transform="translate(-983.601 -341.368)" fill="#3569ff"/>
          <path id="Path_112" data-name="Path 112" d="M1049.112,362.4c-2.417-5.4-.238-11.626,4.863-13.909s11.2.243,13.612,5.641.238,11.627-4.863,13.911S1051.529,367.8,1049.112,362.4Z" transform="translate(-983.389 -341.146)" fill="#3468ff"/>
          <path id="Path_113" data-name="Path 113" d="M1049.477,361.918a9.5,9.5,0,1,1,12.762,5.289A9.778,9.778,0,0,1,1049.477,361.918Z" transform="translate(-983.175 -340.926)" fill="#3467ff"/>
          <path id="Path_114" data-name="Path 114" d="M1049.841,361.439a8.87,8.87,0,1,1,11.911,4.937A9.125,9.125,0,0,1,1049.841,361.439Z" transform="translate(-982.963 -340.705)" fill="#36f"/>
          <path id="Path_115" data-name="Path 115" d="M1050.206,360.958a8.236,8.236,0,1,1,11.061,4.584A8.475,8.475,0,0,1,1050.206,360.958Z" transform="translate(-982.75 -340.484)" fill="#3265ff"/>
          <path id="Path_116" data-name="Path 116" d="M1050.57,360.479a7.6,7.6,0,1,1,10.211,4.232A7.822,7.822,0,0,1,1050.57,360.479Z" transform="translate(-982.537 -340.263)" fill="#3264ff"/>
          <path id="Path_117" data-name="Path 117" d="M1050.936,360a6.969,6.969,0,1,1,9.358,3.878A7.171,7.171,0,0,1,1050.936,360Z" transform="translate(-982.324 -340.042)" fill="#3163ff"/>
          <path id="Path_118" data-name="Path 118" d="M1051.3,359.521a6.335,6.335,0,1,1,8.508,3.526A6.516,6.516,0,0,1,1051.3,359.521Z" transform="translate(-982.112 -339.821)" fill="#3162ff"/>
          <path id="Path_119" data-name="Path 119" d="M1051.665,359.042a5.7,5.7,0,1,1,7.656,3.174A5.864,5.864,0,0,1,1051.665,359.042Z" transform="translate(-981.899 -339.6)" fill="#3062ff"/>
          <path id="Path_120" data-name="Path 120" d="M1052.029,358.561a5.068,5.068,0,1,1,6.806,2.821A5.213,5.213,0,0,1,1052.029,358.561Z" transform="translate(-981.686 -339.379)" fill="#2f61ff"/>
          <path id="Path_121" data-name="Path 121" d="M1052.394,358.083a4.435,4.435,0,1,1,5.956,2.469A4.562,4.562,0,0,1,1052.394,358.083Z" transform="translate(-981.474 -339.158)" fill="#2f60ff"/>
          <path id="Path_122" data-name="Path 122" d="M1052.758,357.6a3.8,3.8,0,1,1,5.1,2.115A3.911,3.911,0,0,1,1052.758,357.6Z" transform="translate(-981.261 -338.937)" fill="#2e5fff"/>
          <path id="Path_123" data-name="Path 123" d="M1053.123,357.125a3.168,3.168,0,1,1,4.255,1.763A3.26,3.26,0,0,1,1053.123,357.125Z" transform="translate(-981.048 -338.716)" fill="#2e5fff"/>
          <path id="Path_124" data-name="Path 124" d="M1053.487,356.645a2.534,2.534,0,1,1,3.4,1.411A2.609,2.609,0,0,1,1053.487,356.645Z" transform="translate(-980.836 -338.495)" fill="#2d5eff"/>
          <path id="Path_125" data-name="Path 125" d="M1053.852,356.166a1.9,1.9,0,1,1,2.553,1.057A1.956,1.956,0,0,1,1053.852,356.166Z" transform="translate(-980.623 -338.274)" fill="#2d5dff"/>
          <path id="Path_126" data-name="Path 126" d="M1054.217,355.687a1.267,1.267,0,1,1,1.7.7A1.3,1.3,0,0,1,1054.217,355.687Z" transform="translate(-980.41 -338.054)" fill="#2c5dff"/>
          <path id="Path_127" data-name="Path 127" d="M1054.582,355.207a.634.634,0,1,1,.85.352A.651.651,0,0,1,1054.582,355.207Z" transform="translate(-980.197 -337.833)" fill="#2c5cff"/>
        </g>
      </g>
    </g>
    <g id="Group_90" data-name="Group 90" transform="translate(780.942 472.057)">
      <g id="Group_89" data-name="Group 89">
        <g id="Group_88" data-name="Group 88" clip-path="url(#clip-path-2)">
          <rect id="Rectangle_46" data-name="Rectangle 46" width="118.568" height="81.184" transform="translate(-26.314 38.431) rotate(-18.913)" fill="#68b0ff"/>
          <path id="Path_129" data-name="Path 129" d="M773.966,505.883c-12.13-27.1-1.2-58.368,24.411-69.829s56.206,1.219,68.335,28.322,1.2,58.368-24.411,69.829S786.1,532.986,773.966,505.883Z" transform="translate(-777.413 -427.514)" fill="#68b0ff"/>
          <ellipse id="Ellipse_38" data-name="Ellipse 38" cx="50.2" cy="53.126" rx="50.2" ry="53.126" transform="translate(-24.595 29.629) rotate(-24.108)" fill="#67afff"/>
          <ellipse id="Ellipse_39" data-name="Ellipse 39" cx="49.595" cy="52.485" rx="49.595" ry="52.485" transform="matrix(0.913, -0.409, 0.409, 0.913, -23.783, 29.969)" fill="#66aeff"/>
          <path id="Path_130" data-name="Path 130" d="M775.012,504.507c-11.7-26.136-1.157-56.282,23.538-67.334s54.2,1.175,65.895,27.311,1.159,56.282-23.538,67.334S786.708,530.643,775.012,504.507Z" transform="translate(-776.802 -426.88)" fill="#66adff"/>
          <ellipse id="Ellipse_40" data-name="Ellipse 40" cx="48.386" cy="51.205" rx="48.386" ry="51.205" transform="matrix(0.913, -0.408, 0.408, 0.913, -22.155, 30.642)" fill="#65abff"/>
          <ellipse id="Ellipse_41" data-name="Ellipse 41" cx="47.781" cy="50.565" rx="47.781" ry="50.565" transform="translate(-21.342 30.98) rotate(-24.11)" fill="#64aaff"/>
          <ellipse id="Ellipse_42" data-name="Ellipse 42" cx="47.176" cy="49.925" rx="47.176" ry="49.925" transform="matrix(0.913, -0.408, 0.408, 0.913, -20.527, 31.315)" fill="#63a9ff"/>
          <ellipse id="Ellipse_43" data-name="Ellipse 43" cx="46.571" cy="49.285" rx="46.571" ry="49.285" transform="translate(-19.714 31.653) rotate(-24.109)" fill="#62a8ff"/>
          <ellipse id="Ellipse_44" data-name="Ellipse 44" cx="45.967" cy="48.645" rx="45.967" ry="48.645" transform="translate(-18.901 31.991) rotate(-24.11)" fill="#61a7ff"/>
          <ellipse id="Ellipse_45" data-name="Ellipse 45" cx="45.362" cy="48.005" rx="45.362" ry="48.005" transform="translate(-18.087 32.327) rotate(-24.109)" fill="#61a6ff"/>
          <ellipse id="Ellipse_46" data-name="Ellipse 46" cx="44.757" cy="47.365" rx="44.757" ry="47.365" transform="translate(-17.274 32.666) rotate(-24.11)" fill="#60a4ff"/>
          <ellipse id="Ellipse_47" data-name="Ellipse 47" cx="44.152" cy="46.725" rx="44.152" ry="46.725" transform="translate(-16.46 33.002) rotate(-24.109)" fill="#5fa3ff"/>
          <ellipse id="Ellipse_48" data-name="Ellipse 48" cx="43.547" cy="46.085" rx="43.547" ry="46.085" transform="translate(-15.646 33.338) rotate(-24.109)" fill="#5ea2ff"/>
          <ellipse id="Ellipse_49" data-name="Ellipse 49" cx="42.942" cy="45.445" rx="42.942" ry="45.445" transform="translate(-14.833 33.675) rotate(-24.108)" fill="#5da1ff"/>
          <ellipse id="Ellipse_50" data-name="Ellipse 50" cx="42.337" cy="44.805" rx="42.337" ry="44.805" transform="translate(-14.02 34.015) rotate(-24.111)" fill="#5ca0ff"/>
          <ellipse id="Ellipse_51" data-name="Ellipse 51" cx="41.733" cy="44.165" rx="41.733" ry="44.165" transform="translate(-13.207 34.352) rotate(-24.111)" fill="#5c9fff"/>
          <ellipse id="Ellipse_52" data-name="Ellipse 52" cx="41.128" cy="43.525" rx="41.128" ry="43.525" transform="translate(-12.392 34.687) rotate(-24.109)" fill="#5b9eff"/>
          <ellipse id="Ellipse_53" data-name="Ellipse 53" cx="40.523" cy="42.884" rx="40.523" ry="42.884" transform="translate(-11.58 35.027) rotate(-24.111)" fill="#5a9cff"/>
          <path id="Path_131" data-name="Path 131" d="M780.242,497.633c-9.532-21.3-.944-45.859,19.178-54.866s44.162.958,53.693,22.255.943,45.859-19.18,54.864S789.772,518.93,780.242,497.633Z" transform="translate(-773.751 -423.712)" fill="#599bff"/>
          <ellipse id="Ellipse_54" data-name="Ellipse 54" cx="39.313" cy="41.604" rx="39.313" ry="41.604" transform="translate(-9.952 35.7) rotate(-24.11)" fill="#589aff"/>
          <ellipse id="Ellipse_55" data-name="Ellipse 55" cx="38.709" cy="40.964" rx="38.709" ry="40.964" transform="matrix(0.913, -0.409, 0.409, 0.913, -9.139, 36.038)" fill="#5899ff"/>
          <ellipse id="Ellipse_56" data-name="Ellipse 56" cx="38.104" cy="40.324" rx="38.104" ry="40.324" transform="matrix(0.913, -0.408, 0.408, 0.913, -8.324, 36.371)" fill="#5798ff"/>
          <ellipse id="Ellipse_57" data-name="Ellipse 57" cx="37.499" cy="39.684" rx="37.499" ry="39.684" transform="translate(-7.511 36.71) rotate(-24.109)" fill="#5697ff"/>
          <ellipse id="Ellipse_58" data-name="Ellipse 58" cx="36.894" cy="39.044" rx="36.894" ry="39.044" transform="translate(-6.698 37.047) rotate(-24.109)" fill="#5596ff"/>
          <ellipse id="Ellipse_59" data-name="Ellipse 59" cx="36.289" cy="38.404" rx="36.289" ry="38.404" transform="translate(-5.885 37.386) rotate(-24.111)" fill="#5495ff"/>
          <ellipse id="Ellipse_60" data-name="Ellipse 60" cx="35.685" cy="37.764" rx="35.685" ry="37.764" transform="translate(-5.071 37.723) rotate(-24.111)" fill="#5494ff"/>
          <ellipse id="Ellipse_61" data-name="Ellipse 61" cx="35.08" cy="37.124" rx="35.08" ry="37.124" transform="translate(-4.257 38.06) rotate(-24.109)" fill="#5392ff"/>
          <path id="Path_132" data-name="Path 132" d="M783.38,493.508c-8.232-18.391-.814-39.606,16.564-47.383s38.14.828,46.37,19.219.815,39.606-16.564,47.383S791.61,511.9,783.38,493.508Z" transform="translate(-771.92 -421.81)" fill="#5291ff"/>
          <ellipse id="Ellipse_62" data-name="Ellipse 62" cx="33.87" cy="35.844" rx="33.87" ry="35.844" transform="translate(-2.63 38.733) rotate(-24.109)" fill="#5190ff"/>
          <ellipse id="Ellipse_63" data-name="Ellipse 63" cx="33.265" cy="35.204" rx="33.265" ry="35.204" transform="translate(-1.817 39.07) rotate(-24.108)" fill="#518fff"/>
          <ellipse id="Ellipse_64" data-name="Ellipse 64" cx="32.66" cy="34.564" rx="32.66" ry="34.564" transform="translate(-1.004 39.409) rotate(-24.111)" fill="#508eff"/>
          <path id="Path_133" data-name="Path 133" d="M784.774,491.675c-7.653-17.1-.757-36.826,15.4-44.058s35.462.769,43.115,17.87.759,36.826-15.4,44.058S792.427,508.776,784.774,491.675Z" transform="translate(-771.106 -420.965)" fill="#4f8dff"/>
          <ellipse id="Ellipse_65" data-name="Ellipse 65" cx="31.451" cy="33.283" rx="31.451" ry="33.283" transform="translate(0.623 40.085) rotate(-24.112)" fill="#4e8cff"/>
          <ellipse id="Ellipse_66" data-name="Ellipse 66" cx="30.846" cy="32.643" rx="30.846" ry="32.643" transform="translate(1.438 40.418) rotate(-24.107)" fill="#4d8bff"/>
          <ellipse id="Ellipse_67" data-name="Ellipse 67" cx="30.241" cy="32.003" rx="30.241" ry="32.003" transform="matrix(0.913, -0.408, 0.408, 0.913, 2.251, 40.757)" fill="#4d8aff"/>
          <path id="Path_134" data-name="Path 134" d="M786.168,489.842c-7.076-15.811-.7-34.049,14.239-40.733s32.788.711,39.862,16.521.7,34.047-14.239,40.733S793.244,505.652,786.168,489.842Z" transform="translate(-770.292 -420.12)" fill="#4c89ff"/>
          <ellipse id="Ellipse_68" data-name="Ellipse 68" cx="29.031" cy="30.723" rx="29.031" ry="30.723" transform="translate(3.878 41.431) rotate(-24.108)" fill="#4b88ff"/>
          <ellipse id="Ellipse_69" data-name="Ellipse 69" cx="28.427" cy="30.083" rx="28.427" ry="30.083" transform="matrix(0.913, -0.408, 0.408, 0.913, 4.691, 41.769)" fill="#4a86ff"/>
          <path id="Path_135" data-name="Path 135" d="M787.215,488.466c-6.643-14.841-.658-31.963,13.368-38.239s30.779.667,37.422,15.51.657,31.962-13.368,38.239S793.856,503.309,787.215,488.466Z" transform="translate(-769.682 -419.486)" fill="#4a85ff"/>
          <path id="Path_136" data-name="Path 136" d="M787.563,488.008c-6.5-14.519-.643-31.268,13.077-37.408s30.11.654,36.608,15.173.643,31.269-13.077,37.408S794.06,502.529,787.563,488.008Z" transform="translate(-769.479 -419.275)" fill="#4984ff"/>
          <path id="Path_137" data-name="Path 137" d="M787.911,487.551c-6.353-14.2-.628-30.573,12.786-36.578s29.442.639,35.795,14.836.63,30.574-12.786,36.578S794.265,501.748,787.911,487.551Z" transform="translate(-769.275 -419.064)" fill="#4883ff"/>
          <ellipse id="Ellipse_70" data-name="Ellipse 70" cx="26.007" cy="27.523" rx="26.007" ry="27.523" transform="translate(7.945 43.118) rotate(-24.11)" fill="#4782ff"/>
          <path id="Path_138" data-name="Path 138" d="M788.609,486.634c-6.066-13.552-.6-29.184,12.2-34.915s28.1.61,34.168,14.162.6,29.184-12.206,34.914S794.673,500.186,788.609,486.634Z" transform="translate(-768.869 -418.642)" fill="#4781ff"/>
          <path id="Path_139" data-name="Path 139" d="M788.957,486.175c-5.92-13.228-.586-28.488,11.915-34.083s27.433.6,33.353,13.825.586,28.488-11.914,34.083S794.878,499.4,788.957,486.175Z" transform="translate(-768.665 -418.43)" fill="#4680ff"/>
          <ellipse id="Ellipse_71" data-name="Ellipse 71" cx="24.193" cy="25.603" rx="24.193" ry="25.603" transform="matrix(0.913, -0.409, 0.409, 0.913, 10.385, 44.13)" fill="#457fff"/>
          <path id="Path_140" data-name="Path 140" d="M789.654,485.259c-5.631-12.584-.556-27.1,11.333-32.42s26.1.565,31.728,13.149.558,27.1-11.334,32.42S795.286,497.843,789.654,485.259Z" transform="translate(-768.258 -418.008)" fill="#447eff"/>
          <path id="Path_141" data-name="Path 141" d="M790,484.8c-5.488-12.261-.544-26.4,11.043-31.59s25.425.552,30.914,12.813.543,26.4-11.044,31.588S795.491,497.062,790,484.8Z" transform="translate(-768.055 -417.796)" fill="#447dff"/>
          <path id="Path_142" data-name="Path 142" d="M790.352,484.342c-5.343-11.938-.529-25.709,10.752-30.758s24.758.537,30.1,12.476.529,25.709-10.752,30.758S795.7,496.28,790.352,484.342Z" transform="translate(-767.851 -417.585)" fill="#437cff"/>
          <path id="Path_143" data-name="Path 143" d="M790.7,483.883c-5.2-11.615-.514-25.015,10.461-29.926s24.09.522,29.287,12.139.514,25.013-10.461,29.926S795.9,495.5,790.7,483.883Z" transform="translate(-767.648 -417.374)" fill="#427bff"/>
          <ellipse id="Ellipse_72" data-name="Ellipse 72" cx="21.169" cy="22.402" rx="21.169" ry="22.402" transform="matrix(0.913, -0.408, 0.408, 0.913, 14.454, 45.814)" fill="#417aff"/>
          <ellipse id="Ellipse_73" data-name="Ellipse 73" cx="20.564" cy="21.762" rx="20.564" ry="21.762" transform="translate(15.266 46.153) rotate(-24.113)" fill="#4179ff"/>
          <path id="Path_144" data-name="Path 144" d="M791.747,482.509c-4.766-10.648-.472-22.931,9.59-27.433s22.081.478,26.845,11.127.472,22.929-9.59,27.433S796.511,493.156,791.747,482.509Z" transform="translate(-767.038 -416.74)" fill="#4078ff"/>
          <path id="Path_145" data-name="Path 145" d="M792.095,482.05c-4.62-10.325-.457-22.235,9.3-26.6s21.412.463,26.033,10.789.457,22.235-9.3,26.6S796.715,492.375,792.095,482.05Z" transform="translate(-766.834 -416.529)" fill="#3f77ff"/>
          <path id="Path_146" data-name="Path 146" d="M792.443,481.592c-4.476-10-.442-21.54,9.01-25.77s20.742.45,25.219,10.453.442,21.54-9.008,25.769S796.92,491.594,792.443,481.592Z" transform="translate(-766.631 -416.318)" fill="#3f76ff"/>
          <ellipse id="Ellipse_74" data-name="Ellipse 74" cx="18.145" cy="19.202" rx="18.145" ry="19.202" transform="translate(18.521 47.5) rotate(-24.11)" fill="#3e75ff"/>
          <path id="Path_147" data-name="Path 147" d="M793.141,480.676c-4.189-9.358-.415-20.151,8.427-24.108s19.405.42,23.592,9.777.415,20.151-8.427,24.108S797.328,490.032,793.141,480.676Z" transform="translate(-766.224 -415.895)" fill="#3d74ff"/>
          <path id="Path_148" data-name="Path 148" d="M793.489,480.217c-4.043-9.035-.4-19.456,8.137-23.276s18.735.406,22.778,9.44.4,19.456-8.137,23.276S797.533,489.251,793.489,480.217Z" transform="translate(-766.021 -415.684)" fill="#3c73ff"/>
          <path id="Path_149" data-name="Path 149" d="M793.838,479.759c-3.9-8.712-.385-18.76,7.846-22.445s18.066.393,21.965,9.1.385,18.76-7.846,22.445S797.737,488.47,793.838,479.759Z" transform="translate(-765.817 -415.473)" fill="#3c72ff"/>
          <path id="Path_150" data-name="Path 150" d="M794.187,479.3c-3.755-8.389-.372-18.066,7.556-21.613s17.4.378,21.151,8.767.37,18.065-7.556,21.613S797.941,487.689,794.187,479.3Z" transform="translate(-765.614 -415.261)" fill="#3b71ff"/>
          <path id="Path_151" data-name="Path 151" d="M794.536,478.842c-3.61-8.065-.357-17.371,7.265-20.781s16.728.363,20.337,8.428.358,17.372-7.265,20.783S798.145,486.908,794.536,478.842Z" transform="translate(-765.41 -415.05)" fill="#3a70ff"/>
          <path id="Path_152" data-name="Path 152" d="M794.884,478.385c-3.466-7.745-.343-16.676,6.974-19.952s16.059.349,19.525,8.092.343,16.677-6.974,19.951S798.35,486.128,794.884,478.385Z" transform="translate(-765.207 -414.839)" fill="#3a6fff"/>
          <path id="Path_153" data-name="Path 153" d="M795.232,477.926c-3.321-7.421-.328-15.982,6.685-19.12s15.39.334,18.711,7.755.328,15.981-6.685,19.12S798.554,485.347,795.232,477.926Z" transform="translate(-765.003 -414.628)" fill="#396eff"/>
          <path id="Path_154" data-name="Path 154" d="M795.582,477.467c-3.177-7.1-.315-15.287,6.392-18.288s14.722.319,17.9,7.418.313,15.287-6.394,18.288S798.758,484.566,795.582,477.467Z" transform="translate(-764.8 -414.416)" fill="#386dff"/>
          <path id="Path_155" data-name="Path 155" d="M795.93,477.009c-3.033-6.776-.3-14.591,6.1-17.458s14.052.306,17.083,7.082.3,14.591-6.1,17.456S798.963,483.785,795.93,477.009Z" transform="translate(-764.597 -414.205)" fill="#386cff"/>
          <path id="Path_156" data-name="Path 156" d="M796.278,476.55c-2.887-6.452-.286-13.9,5.812-16.625s13.383.291,16.27,6.743.286,13.9-5.812,16.627S799.166,483,796.278,476.55Z" transform="translate(-764.393 -413.994)" fill="#376bff"/>
          <path id="Path_157" data-name="Path 157" d="M796.627,476.093c-2.744-6.132-.271-13.2,5.521-15.795s12.714.276,15.458,6.406.271,13.2-5.521,15.795S799.37,482.223,796.627,476.093Z" transform="translate(-764.19 -413.782)" fill="#366aff"/>
          <path id="Path_158" data-name="Path 158" d="M796.976,475.634c-2.6-5.808-.258-12.507,5.23-14.963s12.044.261,14.644,6.069.256,12.507-5.232,14.963S799.574,481.442,796.976,475.634Z" transform="translate(-763.986 -413.571)" fill="#3669ff"/>
          <path id="Path_159" data-name="Path 159" d="M797.325,475.176c-2.456-5.485-.243-11.812,4.94-14.132s11.375.247,13.829,5.733.243,11.812-4.94,14.132S799.779,480.661,797.325,475.176Z" transform="translate(-763.783 -413.36)" fill="#3569ff"/>
          <path id="Path_160" data-name="Path 160" d="M797.673,474.717a9.692,9.692,0,1,1,17.666-7.905c2.31,5.162.229,11.118-4.649,13.3A9.972,9.972,0,0,1,797.673,474.717Z" transform="translate(-763.579 -413.149)" fill="#3468ff"/>
          <path id="Path_161" data-name="Path 161" d="M798.021,474.258a9.087,9.087,0,1,1,12.2,5.058A9.348,9.348,0,0,1,798.021,474.258Z" transform="translate(-763.376 -412.937)" fill="#3467ff"/>
          <path id="Path_162" data-name="Path 162" d="M798.371,473.8a8.481,8.481,0,1,1,11.389,4.719A8.725,8.725,0,0,1,798.371,473.8Z" transform="translate(-763.172 -412.726)" fill="#36f"/>
          <path id="Path_163" data-name="Path 163" d="M798.719,473.343a7.875,7.875,0,1,1,10.575,4.383A8.1,8.1,0,0,1,798.719,473.343Z" transform="translate(-762.969 -412.515)" fill="#3265ff"/>
          <path id="Path_164" data-name="Path 164" d="M799.067,472.884a7.269,7.269,0,1,1,9.763,4.046A7.478,7.478,0,0,1,799.067,472.884Z" transform="translate(-762.766 -412.304)" fill="#3264ff"/>
          <path id="Path_165" data-name="Path 165" d="M799.416,472.425a6.664,6.664,0,1,1,8.95,3.709A6.856,6.856,0,0,1,799.416,472.425Z" transform="translate(-762.562 -412.092)" fill="#3163ff"/>
          <path id="Path_166" data-name="Path 166" d="M799.765,471.967a6.058,6.058,0,1,1,8.134,3.373A6.23,6.23,0,0,1,799.765,471.967Z" transform="translate(-762.359 -411.881)" fill="#3162ff"/>
          <path id="Path_167" data-name="Path 167" d="M800.114,471.51a5.452,5.452,0,1,1,7.322,3.034A5.609,5.609,0,0,1,800.114,471.51Z" transform="translate(-762.155 -411.67)" fill="#3062ff"/>
          <path id="Path_168" data-name="Path 168" d="M800.462,471.051a4.846,4.846,0,1,1,6.508,2.7A4.986,4.986,0,0,1,800.462,471.051Z" transform="translate(-761.952 -411.459)" fill="#2f61ff"/>
          <path id="Path_169" data-name="Path 169" d="M800.81,470.593a4.241,4.241,0,1,1,5.7,2.36A4.365,4.365,0,0,1,800.81,470.593Z" transform="translate(-761.749 -411.248)" fill="#2f60ff"/>
          <path id="Path_170" data-name="Path 170" d="M801.16,470.134a3.635,3.635,0,1,1,4.88,2.024A3.738,3.738,0,0,1,801.16,470.134Z" transform="translate(-761.545 -411.036)" fill="#2e5fff"/>
          <path id="Path_171" data-name="Path 171" d="M801.508,469.675a3.029,3.029,0,1,1,4.067,1.687A3.114,3.114,0,0,1,801.508,469.675Z" transform="translate(-761.342 -410.825)" fill="#2e5fff"/>
          <path id="Path_172" data-name="Path 172" d="M801.856,469.217a2.423,2.423,0,1,1,3.255,1.349A2.492,2.492,0,0,1,801.856,469.217Z" transform="translate(-761.138 -410.614)" fill="#2d5eff"/>
          <path id="Path_173" data-name="Path 173" d="M802.2,468.76a1.818,1.818,0,1,1,2.441,1.012A1.871,1.871,0,0,1,802.2,468.76Z" transform="translate(-760.935 -410.403)" fill="#2d5dff"/>
          <path id="Path_174" data-name="Path 174" d="M802.554,468.3a1.211,1.211,0,1,1,1.626.675A1.246,1.246,0,0,1,802.554,468.3Z" transform="translate(-760.731 -410.191)" fill="#2c5dff"/>
          <path id="Path_175" data-name="Path 175" d="M802.9,467.842a.605.605,0,1,1,.813.337A.621.621,0,0,1,802.9,467.842Z" transform="translate(-760.528 -409.98)" fill="#2c5cff"/>
        </g>
      </g>
    </g>
    <g id="Group_93" data-name="Group 93" transform="translate(974.558 482.47)">
      <g id="Group_92" data-name="Group 92">
        <g id="Group_91" data-name="Group 91" clip-path="url(#clip-path-3)">
          <rect id="Rectangle_47" data-name="Rectangle 47" width="116.882" height="120.845" transform="matrix(0.946, -0.324, 0.324, 0.946, -39.169, 33.681)" fill="#3b8bff"/>
          <path id="Path_177" data-name="Path 177" d="M900.944,538.067l-14.9-43.478-5.075,1.739a57.771,57.771,0,0,1,30.9-34.049c30.019-13.435,65.881,1.429,80.1,33.2a64.711,64.711,0,0,1,2.283,47.8,59.6,59.6,0,0,1-11.761,20.06l-3.387-9.885-62.667,21.471.944,2.755a63.454,63.454,0,0,1-19.832-13.071l11.178-3.83Z" transform="translate(-915.145 -425.2)" fill="#3b8bff"/>
          <path id="Path_178" data-name="Path 178" d="M900.613,537.649l-14.657-42.777-4.372,1.5a56.836,56.836,0,0,1,30.4-33.5c29.535-13.218,64.818,1.4,78.806,32.662a63.656,63.656,0,0,1,2.246,47.028,58.6,58.6,0,0,1-11.57,19.736l-3.1-9.034L916.71,574.389l.691,2.019a62.446,62.446,0,0,1-19.511-12.86l10.377-3.556Z" transform="translate(-914.841 -424.864)" fill="#3b8cff"/>
          <path id="Path_179" data-name="Path 179" d="M900.28,537.231l-14.416-42.075-3.672,1.258a55.9,55.9,0,0,1,29.9-32.95c29.05-13,63.755,1.382,77.515,32.127a62.633,62.633,0,0,1,2.208,46.258,57.669,57.669,0,0,1-11.381,19.412l-2.8-8.185-60.646,20.78.441,1.283a61.377,61.377,0,0,1-19.192-12.648l9.578-3.282Z" transform="translate(-914.537 -424.529)" fill="#3a8dff"/>
          <path id="Path_180" data-name="Path 180" d="M899.948,536.814,885.772,495.44l-2.97,1.016a54.978,54.978,0,0,1,29.4-32.4c28.566-12.785,62.693,1.36,76.222,31.591a61.59,61.59,0,0,1,2.172,45.487,56.717,56.717,0,0,1-11.193,19.089l-2.513-7.334-59.634,20.432.189.55a60.378,60.378,0,0,1-18.873-12.438l8.777-3.009Z" transform="translate(-914.233 -424.194)" fill="#3a8fff"/>
          <path id="Path_181" data-name="Path 181" d="M899.615,536.4,885.68,495.724l-2.268.777a54.042,54.042,0,0,1,28.9-31.852c28.082-12.567,61.63,1.337,74.93,31.056s1.316,64-26.767,76.567l-4.354-12.707L935.3,566.7l3.495,10.2a55.72,55.72,0,0,1-21.324-4.3,59.35,59.35,0,0,1-18.552-12.227l7.978-2.734Z" transform="translate(-913.929 -423.858)" fill="#3a90ff"/>
          <path id="Path_182" data-name="Path 182" d="M899.282,535.978l-13.695-39.972-1.567.537a53.109,53.109,0,0,1,28.4-31.3c27.6-12.352,60.567,1.313,73.638,30.521s1.294,62.9-26.305,75.247a53.108,53.108,0,0,1-42.267.325,59.5,59.5,0,0,1-31.371-30.845Z" transform="translate(-913.625 -423.523)" fill="#3a91ff"/>
          <path id="Path_183" data-name="Path 183" d="M898.951,535.56,885.5,496.29l-.867.3a52.18,52.18,0,0,1,27.906-30.753c27.114-12.134,59.505,1.291,72.346,29.984s1.271,61.793-25.844,73.927-59.5-1.289-72.346-29.984Z" transform="translate(-913.321 -423.187)" fill="#3992ff"/>
          <path id="Path_184" data-name="Path 184" d="M898.618,535.143,885.4,496.573l-.163.057a51.249,51.249,0,0,1,27.407-30.2c26.629-11.918,58.443,1.267,71.053,29.449s1.249,60.69-25.382,72.608-58.443-1.268-71.055-29.451Z" transform="translate(-913.016 -422.852)" fill="#3993ff"/>
          <ellipse id="Ellipse_75" data-name="Ellipse 75" cx="51.866" cy="54.889" rx="51.866" ry="54.889" transform="matrix(0.913, -0.408, 0.408, 0.913, -47.296, 65.689)" fill="#3994ff"/>
          <ellipse id="Ellipse_76" data-name="Ellipse 76" cx="50.906" cy="53.872" rx="50.906" ry="53.872" transform="translate(-46.003 66.222) rotate(-24.108)" fill="#3895ff"/>
          <ellipse id="Ellipse_77" data-name="Ellipse 77" cx="49.945" cy="52.856" rx="49.945" ry="52.856" transform="translate(-44.712 66.759) rotate(-24.109)" fill="#3897ff"/>
          <path id="Path_185" data-name="Path 185" d="M890.519,536.122c-11.695-26.133-1.157-56.276,23.535-67.328s54.193,1.175,65.887,27.308,1.157,56.276-23.535,67.327S902.214,562.254,890.519,536.122Z" transform="translate(-912.763 -421.51)" fill="#3898ff"/>
          <ellipse id="Ellipse_78" data-name="Ellipse 78" cx="48.024" cy="50.823" rx="48.024" ry="50.823" transform="translate(-42.128 67.83) rotate(-24.11)" fill="#3899ff"/>
          <ellipse id="Ellipse_79" data-name="Ellipse 79" cx="47.064" cy="49.806" rx="47.064" ry="49.806" transform="matrix(0.913, -0.409, 0.409, 0.913, -40.837, 68.367)" fill="#379aff"/>
          <ellipse id="Ellipse_80" data-name="Ellipse 80" cx="46.103" cy="48.79" rx="46.103" ry="48.79" transform="translate(-39.545 68.901) rotate(-24.11)" fill="#379bff"/>
          <ellipse id="Ellipse_81" data-name="Ellipse 81" cx="45.143" cy="47.774" rx="45.143" ry="47.774" transform="translate(-38.252 69.434) rotate(-24.108)" fill="#379cff"/>
          <ellipse id="Ellipse_82" data-name="Ellipse 82" cx="44.182" cy="46.757" rx="44.182" ry="46.757" transform="translate(-36.961 69.972) rotate(-24.11)" fill="#379dff"/>
          <path id="Path_186" data-name="Path 186" d="M893.84,531.754c-10.319-23.058-1.021-49.655,20.768-59.405s47.817,1.036,58.137,24.094,1.021,49.655-20.768,59.406S904.16,554.812,893.84,531.754Z" transform="translate(-910.825 -419.497)" fill="#369eff"/>
          <ellipse id="Ellipse_83" data-name="Ellipse 83" cx="42.261" cy="44.724" rx="42.261" ry="44.724" transform="translate(-34.376 71.042) rotate(-24.109)" fill="#36a0ff"/>
          <ellipse id="Ellipse_84" data-name="Ellipse 84" cx="41.301" cy="43.708" rx="41.301" ry="43.708" transform="translate(-33.085 71.579) rotate(-24.11)" fill="#36a1ff"/>
          <ellipse id="Ellipse_85" data-name="Ellipse 85" cx="40.34" cy="42.691" rx="40.34" ry="42.691" transform="matrix(0.913, -0.408, 0.408, 0.913, -31.793, 72.114)" fill="#35a2ff"/>
          <ellipse id="Ellipse_86" data-name="Ellipse 86" cx="39.38" cy="41.675" rx="39.38" ry="41.675" transform="translate(-30.501 72.649) rotate(-24.11)" fill="#35a3ff"/>
          <path id="Path_187" data-name="Path 187" d="M896.608,528.116c-9.172-20.5-.907-44.138,18.46-52.806s42.5.922,51.677,21.418.907,44.138-18.46,52.8S905.781,548.612,896.608,528.116Z" transform="translate(-909.21 -417.819)" fill="#35a4ff"/>
          <ellipse id="Ellipse_87" data-name="Ellipse 87" cx="37.459" cy="39.642" rx="37.459" ry="39.642" transform="translate(-27.917 73.718) rotate(-24.108)" fill="#35a5ff"/>
          <ellipse id="Ellipse_88" data-name="Ellipse 88" cx="36.499" cy="38.625" rx="36.499" ry="38.625" transform="matrix(0.913, -0.408, 0.408, 0.913, -26.625, 74.253)" fill="#34a6ff"/>
          <path id="Path_188" data-name="Path 188" d="M898.27,525.931c-8.485-18.958-.84-40.828,17.075-48.844s39.317.852,47.8,19.811.84,40.828-17.075,48.845S906.754,544.89,898.27,525.931Z" transform="translate(-908.241 -416.813)" fill="#34a7ff"/>
          <ellipse id="Ellipse_89" data-name="Ellipse 89" cx="34.577" cy="36.593" rx="34.577" ry="36.593" transform="translate(-24.043 75.329) rotate(-24.112)" fill="#34a8ff"/>
          <ellipse id="Ellipse_90" data-name="Ellipse 90" cx="33.617" cy="35.576" rx="33.617" ry="35.576" transform="translate(-22.75 75.862) rotate(-24.11)" fill="#34a9ff"/>
          <ellipse id="Ellipse_91" data-name="Ellipse 91" cx="32.656" cy="34.56" rx="32.656" ry="34.56" transform="translate(-21.458 76.398) rotate(-24.111)" fill="#33abff"/>
          <ellipse id="Ellipse_92" data-name="Ellipse 92" cx="31.696" cy="33.543" rx="31.696" ry="33.543" transform="translate(-20.166 76.933) rotate(-24.11)" fill="#33acff"/>
          <ellipse id="Ellipse_93" data-name="Ellipse 93" cx="30.736" cy="32.527" rx="30.736" ry="32.527" transform="translate(-18.875 77.47) rotate(-24.112)" fill="#33adff"/>
          <path id="Path_189" data-name="Path 189" d="M901.592,521.564c-7.109-15.883-.7-34.206,14.306-40.924s32.941.714,40.048,16.6.7,34.207-14.306,40.925S908.7,537.449,901.592,521.564Z" transform="translate(-906.302 -414.8)" fill="#33aeff"/>
          <path id="Path_190" data-name="Path 190" d="M902.145,520.837c-6.878-15.372-.681-33.1,13.846-39.6s31.878.691,38.757,16.063.681,33.1-13.846,39.6S909.024,536.208,902.145,520.837Z" transform="translate(-905.979 -414.464)" fill="#32afff"/>
          <ellipse id="Ellipse_94" data-name="Ellipse 94" cx="27.854" cy="29.477" rx="27.854" ry="29.477" transform="matrix(0.913, -0.408, 0.408, 0.913, -14.998, 79.073)" fill="#32b0ff"/>
          <path id="Path_191" data-name="Path 191" d="M903.253,519.381c-6.421-14.347-.636-30.9,12.923-36.963s29.752.645,36.173,14.991.635,30.9-12.923,36.964S909.673,533.728,903.253,519.381Z" transform="translate(-905.333 -413.793)" fill="#32b1ff"/>
          <path id="Path_192" data-name="Path 192" d="M903.806,518.653c-6.191-13.834-.613-29.792,12.459-35.644s28.691.624,34.882,14.458.613,29.792-12.459,35.644S910,532.488,903.806,518.653Z" transform="translate(-905.01 -413.458)" fill="#32b2ff"/>
          <path id="Path_193" data-name="Path 193" d="M904.36,517.926c-5.962-13.323-.591-28.691,12-34.324s27.628.6,33.59,13.922.591,28.689-12,34.323S910.322,531.248,904.36,517.926Z" transform="translate(-904.687 -413.123)" fill="#31b3ff"/>
          <path id="Path_194" data-name="Path 194" d="M904.914,517.2c-5.734-12.81-.568-27.586,11.536-33s26.566.577,32.3,13.386.567,27.587-11.537,33S910.645,530.008,904.914,517.2Z" transform="translate(-904.364 -412.787)" fill="#31b4ff"/>
          <path id="Path_195" data-name="Path 195" d="M905.467,516.47c-5.5-12.3-.544-26.482,11.076-31.683s25.5.553,31.007,12.851.544,26.482-11.076,31.683S910.97,528.767,905.467,516.47Z" transform="translate(-904.041 -412.452)" fill="#31b5ff"/>
          <path id="Path_196" data-name="Path 196" d="M906.021,515.743c-5.274-11.786-.522-25.38,10.614-30.364s24.441.529,29.715,12.315.522,25.379-10.614,30.362S911.295,527.527,906.021,515.743Z" transform="translate(-903.718 -412.116)" fill="#31b6ff"/>
          <path id="Path_197" data-name="Path 197" d="M906.574,515.015c-5.045-11.274-.5-24.276,10.152-29.043s23.378.507,28.422,11.78.5,24.276-10.152,29.043S911.619,526.288,906.574,515.015Z" transform="translate(-903.395 -411.781)" fill="#30b7ff"/>
          <ellipse id="Ellipse_95" data-name="Ellipse 95" cx="20.17" cy="21.346" rx="20.17" ry="21.346" transform="matrix(0.913, -0.409, 0.409, 0.913, -4.664, 83.359)" fill="#30b8ff"/>
          <path id="Path_198" data-name="Path 198" d="M907.682,513.559c-4.587-10.25-.454-22.07,9.229-26.4s21.252.46,25.838,10.708.454,22.069-9.229,26.4S912.268,523.806,907.682,513.559Z" transform="translate(-902.749 -411.109)" fill="#30b9ff"/>
          <path id="Path_199" data-name="Path 199" d="M908.235,512.831c-4.356-9.735-.43-20.966,8.769-25.082s20.19.436,24.547,10.173.43,20.966-8.769,25.082S912.593,522.567,908.235,512.831Z" transform="translate(-902.426 -410.774)" fill="#30baff"/>
          <path id="Path_200" data-name="Path 200" d="M908.789,512.1c-4.127-9.223-.408-19.862,8.307-23.763s19.128.415,23.255,9.638.408,19.862-8.307,23.763S912.916,521.326,908.789,512.1Z" transform="translate(-902.103 -410.439)" fill="#2fbbff"/>
          <ellipse id="Ellipse_96" data-name="Ellipse 96" cx="16.328" cy="17.28" rx="16.328" ry="17.28" transform="translate(0.505 85.499) rotate(-24.109)" fill="#2fbcff"/>
          <path id="Path_201" data-name="Path 201" d="M909.9,510.648c-3.67-8.2-.364-17.655,7.383-21.123s17,.369,20.67,8.568.364,17.655-7.383,21.121S913.565,518.845,909.9,510.648Z" transform="translate(-901.457 -409.768)" fill="#2fbdff"/>
          <ellipse id="Ellipse_97" data-name="Ellipse 97" cx="14.407" cy="15.247" rx="14.407" ry="15.247" transform="translate(3.088 86.571) rotate(-24.111)" fill="#2fbeff"/>
          <ellipse id="Ellipse_98" data-name="Ellipse 98" cx="13.447" cy="14.231" rx="13.447" ry="14.231" transform="translate(4.38 87.107) rotate(-24.113)" fill="#2fbfff"/>
          <path id="Path_202" data-name="Path 202" d="M911.557,508.465c-2.98-6.662-.3-14.345,6-17.162s13.813.3,16.795,6.961.3,14.345-6,17.162S914.539,515.125,911.557,508.465Z" transform="translate(-900.487 -408.761)" fill="#2ec0ff"/>
          <path id="Path_203" data-name="Path 203" d="M912.111,507.736c-2.752-6.15-.273-13.242,5.538-15.841s12.752.276,15.5,6.425.273,13.24-5.538,15.841S914.862,513.884,912.111,507.736Z" transform="translate(-900.164 -408.426)" fill="#2ec0ff"/>
          <path id="Path_204" data-name="Path 204" d="M912.665,507.008c-2.523-5.637-.25-12.139,5.076-14.521s11.689.253,14.21,5.889.25,12.139-5.076,14.522S915.186,512.645,912.665,507.008Z" transform="translate(-899.841 -408.09)" fill="#2ec1ff"/>
          <ellipse id="Ellipse_99" data-name="Ellipse 99" cx="9.605" cy="10.165" rx="9.605" ry="10.165" transform="translate(9.547 89.249) rotate(-24.115)" fill="#2ec2ff"/>
          <path id="Path_205" data-name="Path 205" d="M913.771,505.553a8.659,8.659,0,1,1,11.627,4.818A8.909,8.909,0,0,1,913.771,505.553Z" transform="translate(-899.195 -407.419)" fill="#2dc3ff"/>
          <path id="Path_206" data-name="Path 206" d="M914.325,504.825a7.7,7.7,0,1,1,10.335,4.283A7.918,7.918,0,0,1,914.325,504.825Z" transform="translate(-898.872 -407.084)" fill="#2dc4ff"/>
          <path id="Path_207" data-name="Path 207" d="M914.879,504.1a6.734,6.734,0,1,1,9.043,3.748A6.927,6.927,0,0,1,914.879,504.1Z" transform="translate(-898.549 -406.748)" fill="#2dc5ff"/>
          <path id="Path_208" data-name="Path 208" d="M915.433,503.368a5.772,5.772,0,1,1,7.751,3.214A5.937,5.937,0,0,1,915.433,503.368Z" transform="translate(-898.226 -406.413)" fill="#2dc6ff"/>
          <path id="Path_209" data-name="Path 209" d="M915.986,502.642a4.81,4.81,0,1,1,6.46,2.677A4.949,4.949,0,0,1,915.986,502.642Z" transform="translate(-897.903 -406.077)" fill="#2dc6ff"/>
          <path id="Path_210" data-name="Path 210" d="M916.54,501.913a3.849,3.849,0,1,1,5.168,2.142A3.958,3.958,0,0,1,916.54,501.913Z" transform="translate(-897.58 -405.742)" fill="#2cc7ff"/>
          <path id="Path_211" data-name="Path 211" d="M917.093,501.185a2.886,2.886,0,1,1,3.875,1.607A2.968,2.968,0,0,1,917.093,501.185Z" transform="translate(-897.257 -405.406)" fill="#2cc8ff"/>
          <path id="Path_212" data-name="Path 212" d="M917.647,500.459a1.924,1.924,0,1,1,2.583,1.07A1.981,1.981,0,0,1,917.647,500.459Z" transform="translate(-896.934 -405.071)" fill="#2cc8ff"/>
          <path id="Path_213" data-name="Path 213" d="M918.2,499.73a.962.962,0,1,1,1.291.535A.991.991,0,0,1,918.2,499.73Z" transform="translate(-896.61 -404.736)" fill="#2cc9ff"/>
        </g>
      </g>
    </g>
    <g id="Group_94" data-name="Group 94" transform="translate(881.427 461.136)">
      <path id="Path_215" data-name="Path 215" d="M867.755,504.628,841.645,476.6,874,434.257l2.508-12.59,1,.2-2.627,12.918-31.9,41.746,25.521,27.4Z" transform="translate(-841.645 -421.667)" fill="#201d9f"/>
    </g>
    <g id="Group_95" data-name="Group 95" transform="translate(849.506 655.29)">
      <path id="Path_216" data-name="Path 216" d="M820.77,632.779l-.417-.934,42.245-18.9-10.9-41.858,18.761-19.9.744.7L852.834,571.37l10.971,42.149-.4.178Z" transform="translate(-820.352 -551.177)" fill="#201d9f"/>
    </g>
    <path id="Path_217" data-name="Path 217" d="M1081.746,427.255l26.146-11.7,42.6,11.789-41.946-6.009-25.6,11.436Z" transform="translate(159.626 36.418)" fill="#201d9f"/>
    <path id="Path_218" data-name="Path 218" d="M1034.121,475.243l1.854,7.07-32.935,31.982,31.4-32.439-4.929-7.789Z" transform="translate(120.341 65.624)" fill="#201d9f"/>
    <path id="Path_219" data-name="Path 219" d="M947.171,430.4l12.933,6.8,34.1-13.847L958.7,440.4l-14.16-3.369Z" transform="translate(91.139 40.31)" fill="#201d9f"/>
    <path id="Path_220" data-name="Path 220" d="M873.145,421.715l-3.216,12.707-16.747,20.362,14.225-20.1,1.879-12.905Z" transform="translate(45.54 39.492)" fill="#201d9f"/>
    <path id="Path_221" data-name="Path 221" d="M866.539,554.142l-24.9,17.374,15.839-20.92Z" transform="translate(39.78 103.823)" fill="#201d9f"/>
    <path id="Path_222" data-name="Path 222" d="M869.133,499.769,843.71,472.02l32.26-41.859S848.5,466.418,848.983,471.07,869.133,499.769,869.133,499.769Z" transform="translate(40.812 43.708)" fill="#a1ffff" opacity="0.5"/>
    <path id="Path_223" data-name="Path 223" d="M819.931,625.569l41.042-20.507L850.53,563.728s9.7,36.891,5.935,40.964S819.931,625.569,819.931,625.569Z" transform="translate(28.943 110.377)" fill="#a1ffff" opacity="0.5"/>
    <path id="Path_224" data-name="Path 224" d="M1036.45,551.487l-32.2-39.892,32.077-31.84s-26.781,26.082-27.911,30.84S1036.45,551.487,1036.45,551.487Z" transform="translate(120.942 68.463)" fill="#a1ffff" opacity="0.5"/>
    <path id="Path_225" data-name="Path 225" d="M953.691,443.389l51.872-24.018,11.822,50.011s-10.489-44.315-14.434-45.112S953.691,443.389,953.691,443.389Z" transform="translate(95.709 38.323)" fill="#a1ffff" opacity="0.5"/>
    <path id="Path_226" data-name="Path 226" d="M1098.433,423.9l42.8,11.256,20.146-39.424s-16.591,33.579-21.865,35.582S1098.433,423.9,1098.433,423.9Z" transform="translate(167.956 26.523)" fill="#a1ffff" opacity="0.5"/>
    <path id="Path_227" data-name="Path 227" d="M1004.245,500.994l4.251.074,4.437,8.285-1,.447Z" transform="translate(120.942 79.064)" fill="#a1ffff"/>
    <path id="Path_228" data-name="Path 228" d="M1127.555,425.579l-1.72-3.843,7.167-6.817Z" transform="translate(181.633 36.101)" fill="#a1ffff"/>
    <path id="Path_229" data-name="Path 229" d="M851.946,591.424l-4.507-.371-9.423,6.6Z" transform="translate(37.97 124.016)" fill="#a1ffff"/>
    <path id="Path_230" data-name="Path 230" d="M843.71,458.083l5.6.189,5.846,9.405Z" transform="translate(40.812 57.645)" fill="#a1ffff"/>
    <path id="Path_231" data-name="Path 231" d="M860.666,603.842s23.752,5.114,46.109-7.2S958.35,505.86,958.35,505.86s-29.191,75.1-54.038,88.716S860.666,603.842,860.666,603.842Z" transform="translate(49.276 81.493)" fill="#a1ffff"/>
    <path id="Path_232" data-name="Path 232" d="M991.7,382.5s15.2-17.366,49.1-30.455C1040.8,352.048,1015.616,351.742,991.7,382.5Z" transform="translate(114.682 4.719)" fill="#a1ffff"/>
    <path id="Path_233" data-name="Path 233" d="M1057.38,496.807a63.479,63.479,0,0,0,35.494-5.935c18.286-8.953,26.026-28.373,26.026-28.373S1100.14,497.23,1057.38,496.807Z" transform="translate(147.464 59.85)" fill="#a1c9ff"/>
    <path id="Path_234" data-name="Path 234" d="M797.635,479.121s23.848-26.758,52.548-38.353,44.95-10.347,44.95-10.347S840.755,424.918,797.635,479.121Z" transform="translate(17.814 43.76)" fill="#a1ffff"/>
    <path id="Path_235" data-name="Path 235" d="M1059.251,479.9s13.5-5.057,20.987-16.35l11.7,26.791s-16.356,6.892-26.566,6.4Z" transform="translate(148.398 60.376)" fill="#a1ffff" style="mix-blend-mode: soft-light;isolation: isolate"/>
    <path id="Path_236" data-name="Path 236" d="M1068.054,399.008s16.735-3.565,31.393,4.021c0,0-15.261-13.839-46.952-12.037C1052.5,390.992,1063.527,395.623,1068.054,399.008Z" transform="translate(145.027 24.077)" fill="#776692" style="mix-blend-mode: multiply;isolation: isolate"/>
    <path id="Path_237" data-name="Path 237" d="M832.383,495.752S814.651,515,819.8,550.1c0,0-2.463-15.338,9.281-32.5C829.077,517.6,830.635,499.016,832.383,495.752Z" transform="translate(28.408 76.448)" fill="#776692" style="mix-blend-mode: multiply;isolation: isolate"/>
    <path id="Path_238" data-name="Path 238" d="M901.2,635.815l61.2,27.5s26.745-45.351,47.192-97.456,45.376-112.983,55.671-129.025l-56.179-39.828c-16.212,29.524-45.073,88.243-74,169.721C916.1,620.173,901.2,635.815,901.2,635.815Z" transform="translate(69.506 27.159)" fill="url(#radial-gradient-4)" style="mix-blend-mode: screen;isolation: isolate"/>
  </g>
</svg>
