<svg xmlns="http://www.w3.org/2000/svg" xmlns:xlink="http://www.w3.org/1999/xlink" width="114.724" height="108.018" viewBox="0 0 114.724 108.018">
  <defs>
    <linearGradient id="linear-gradient" x1="0.5" x2="0.5" y2="1" gradientUnits="objectBoundingBox">
      <stop offset="0" stop-color="#21f5fc"/>
      <stop offset="1" stop-color="#b241f2"/>
    </linearGradient>
  </defs>
  <g id="lifestyle" transform="translate(-1948.701 -500.123)">
    <path id="Path_710" data-name="Path 710" d="M1992.581,515.785a23.231,23.231,0,0,1-8.043,5.158c-4.667,1.683-8.965.682-13.033-1.833a20.015,20.015,0,0,1-2.72-2.079,58.384,58.384,0,0,0,14.306-1.205l.019-.314c-2.374-.287-4.744-.691-7.132-.837s-4.763-.032-7.142-.032l-.173-.355c1.547-.973,3.029-2.065,4.649-2.9,5.626-2.889,10.912-1.842,15.916,1.606,1.16.8,2.239,1.706,3.353,2.566Z" transform="translate(70.844 34.04)" fill="url(#linear-gradient)"/>
    <path id="Path_711" data-name="Path 711" d="M1954.606,516.668c14.238,4.7,24.241,14.5,32.543,26.689,8.579-10.531,13.215-22.208,11.909-36,.559,2.247,1.242,4.472,1.656,6.746a60.578,60.578,0,0,1-.3,21.3c-2.557,14.693-7.847,28.449-14.543,41.7-.787,1.565-1.6,3.125-2.465,4.649a1.422,1.422,0,0,1-.984.664c-3.516.046-7.027.027-10.544.023a.664.664,0,0,1-.223-.064c1.078-2.557,2.256-5.049,3.193-7.629a48.047,48.047,0,0,0,2.761-21.926,45.927,45.927,0,0,0-9.47-23.013,64.832,64.832,0,0,0-12.314-12.187C1955.411,517.314,1955.01,516.987,1954.606,516.668Z" transform="translate(20.956 25.687)" fill="url(#linear-gradient)"/>
    <path id="Path_712" data-name="Path 712" d="M1959.56,516.516c-.132-4.035,2.36-7.1,5.923-7.183a7.277,7.277,0,0,1,5.327,2.229,10.066,10.066,0,0,1,3.284,8.88,6.037,6.037,0,0,1-3.871,5.322,6.572,6.572,0,0,1-6.787-1.378A10.282,10.282,0,0,1,1959.56,516.516Z" transform="translate(38.52 32.681)" fill="url(#linear-gradient)"/>
    <path id="Path_713" data-name="Path 713" d="M1967.137,521.33a48.827,48.827,0,0,0,6.209-13.019,49.478,49.478,0,0,0-8.161,11.827c-2.147-9.457,2.152-17.04,12.814-20.016C1980.711,509.344,1977.627,518,1967.137,521.33Z" transform="translate(56.599 0)" fill="url(#linear-gradient)"/>
    <path id="Path_714" data-name="Path 714" d="M1972.606,516.835c-8.462,7.342-17.059,5.818-23.906-1.169,7.447-7.324,15.958-8.111,23.877-1.06-2.611,0-5.009-.114-7.387.032-2.4.146-4.772.546-7.155.837l-.014.437c2.388.309,4.768.737,7.161.891C1967.552,516.953,1969.94,516.835,1972.606,516.835Z" transform="translate(0 34.072)" fill="url(#linear-gradient)"/>
    <path id="Path_715" data-name="Path 715" d="M1960.4,530.289a49.081,49.081,0,0,0,8.134-11.791c2.265,9.594-2.48,17.281-12.815,19.952-2.662-9.166.345-17.714,10.831-21.157A50.381,50.381,0,0,0,1960.4,530.289Z" transform="translate(21.673 60.936)" fill="url(#linear-gradient)"/>
    <path id="Path_716" data-name="Path 716" d="M1966.628,521.338c-10.416-3.471-13.564-11.673-10.94-21.2,10.107,2.629,15.034,9.935,12.878,20.02a49.682,49.682,0,0,0-8.192-11.9A48.77,48.77,0,0,0,1966.628,521.338Z" transform="translate(21.68 0.043)" fill="url(#linear-gradient)"/>
    <path id="Path_717" data-name="Path 717" d="M1965.206,518.4a49.652,49.652,0,0,0,8.134,11.8,48.763,48.763,0,0,0-6.1-12.883c8.366,1.051,14.525,13.237,10.759,21.021C1967.572,535.6,1962.959,527.885,1965.206,518.4Z" transform="translate(56.601 61.039)" fill="url(#linear-gradient)"/>
    <path id="Path_718" data-name="Path 718" d="M1965.675,519.379a39.246,39.246,0,0,0-.769-10.485l-.45-.018-.732,10.167c-5.117-5.614-4.24-12.069,1.032-17.391C1970.228,506.892,1970.884,513.324,1965.675,519.379Z" transform="translate(41.203 5.426)" fill="url(#linear-gradient)"/>
    <path id="Path_719" data-name="Path 719" d="M1968.789,515.591c-2.3,7.356-8.348,9.935-15.608,8.015.21-6.3,8.452-11.75,14.73-9.6a39.294,39.294,0,0,0-8.557,5.818l.15.3c1.565-.664,3.157-1.269,4.685-2.011S1967.2,516.469,1968.789,515.591Z" transform="translate(15.903 47.571)" fill="url(#linear-gradient)"/>
    <path id="Path_720" data-name="Path 720" d="M1953.162,506.835c7.324-1.951,13.429.619,15.6,7.752l-9.284-4.485-.2.378a40.33,40.33,0,0,0,8.712,5.913C1960.55,518.158,1955.155,514.241,1953.162,506.835Z" transform="translate(15.836 21.582)" fill="url(#linear-gradient)"/>
    <path id="Path_721" data-name="Path 721" d="M1967,516.548l8.656-5.855-.222-.35a39.3,39.3,0,0,0-9.426,4.522c.464-6.064,9.021-10.417,15.571-7.988C1979.806,513.778,1974.8,518.154,1967,516.548Z" transform="translate(61.411 21.54)" fill="url(#linear-gradient)"/>
    <path id="Path_722" data-name="Path 722" d="M1965.991,515.925l9.375,4.544.236-.382c-.9-.723-1.769-1.478-2.7-2.161s-1.893-1.333-2.87-1.947c-1.01-.632-2.052-1.2-3.1-1.81,5.645-2.525,13.055,2.256,14.7,9.434C1975.494,525.651,1968.475,523.768,1965.991,515.925Z" transform="translate(61.361 47.429)" fill="url(#linear-gradient)"/>
    <path id="Path_723" data-name="Path 723" d="M1962.963,512.47l-2.233-3.262-.337.182,1.67,3.5c-2.844-.532-4.344-3.639-3.326-6.714A5.011,5.011,0,0,1,1962.963,512.47Z" transform="translate(34.485 21.493)" fill="url(#linear-gradient)"/>
    <path id="Path_724" data-name="Path 724" d="M1965.727,508.982l-2.384,3.471a5,5,0,0,1,4.221-6.273,5.076,5.076,0,0,1-3.389,6.824l1.855-3.876Z" transform="translate(51.231 21.496)" fill="url(#linear-gradient)"/>
    <path id="Path_725" data-name="Path 725" d="M1965.269,513.1l4.176-.332-.022-.359-4.172-.3c2.065-2.161,5.209-1.97,7.593.437A5.013,5.013,0,0,1,1965.269,513.1Z" transform="translate(58.735 37.185)" fill="url(#linear-gradient)"/>
  </g>
</svg>
