<svg xmlns="http://www.w3.org/2000/svg" xmlns:xlink="http://www.w3.org/1999/xlink" width="132" height="132" viewBox="0 0 132 132">
  <defs>
    <linearGradient id="linear-gradient" x1="0.5" x2="0.5" y2="1" gradientUnits="objectBoundingBox">
      <stop offset="0" stop-color="#21f5fc"/>
      <stop offset="1" stop-color="#b241f2"/>
    </linearGradient>
  </defs>
  <g id="ownable" transform="translate(-1180 -4693)">
    <rect id="Rectangle_81" data-name="Rectangle 81" width="132" height="132" rx="20" transform="translate(1180 4693)" fill="#ac49f3" opacity="0.19"/>
    <g id="Group_933" data-name="Group 933" transform="translate(1209 4731)">
      <path id="Path_605" data-name="Path 605" d="M2410.9,438.878a.584.584,0,0,1-.956-.482,47.408,47.408,0,0,1,3.991-15.858,197.191,197.191,0,0,1,20.238-38,4.951,4.951,0,0,1,5.095-2.429,5.454,5.454,0,0,1,4.371,3.99c.3.961-.509,2.271-.912,3.78-.17-.322-.139-.146-.043-.1,3.59,1.781,3.731,2.349,1.6,5.733-2.569,4.072-5.1,8.172-7.644,12.256-.03.048-.112.063-.641.339a14.869,14.869,0,0,1,.772-2.661c1.783-3.37,3.682-6.679,5.442-10.061a4.9,4.9,0,0,0,.322-2.755C2433.715,409.1,2426.144,426.338,2410.9,438.878Zm21.493-31.265-7.4-4.384c-2.469,4.022-1.987,5.767,2.138,7.739,2.639,1.262,3.364,1,4.534-1.643C2431.933,408.729,2432.179,408.126,2432.4,407.613Zm-18.657,18.747a24.729,24.729,0,0,0-2.1,8.815l.552.381c2.332-1.329,2.312-1.01,6.691-6.063a.97.97,0,0,0-.248-1.476l-3.555-2.044A.964.964,0,0,0,2413.739,426.36Zm23.7-42.806-.351.567c1.49,2.312,3.312,3.289,5.644,2.413Z" transform="translate(-2378.19 -382.036)" fill="url(#linear-gradient)"/>
      <path id="Path_606" data-name="Path 606" d="M2375.151,416.882a37.48,37.48,0,0,1-2.693,4.336,3.209,3.209,0,0,1-2.241.771c-9.177.051-18.355.029-27.533.035-4.856,0-6.475,1.636-6.476,6.519q0,10.35,0,20.7c.009,3.9,1.893,5.8,5.778,5.826,4.89.027,9.781.007,14.671.007h2.057V460.3h-2.557c-5.9,0-11.79.015-17.686-.006-4.846-.017-7.471-2.6-7.486-7.443q-.045-14.369,0-28.739c.016-4.643,2.6-7.291,7.181-7.306,11.857-.04,23.715-.015,35.573-.013C2374.073,416.8,2374.4,416.836,2375.151,416.882Z" transform="translate(-2330.966 -402.815)" fill="url(#linear-gradient)"/>
      <path id="Path_607" data-name="Path 607" d="M2453.088,425.327l4.6-6.6a6.593,6.593,0,0,1,3.469,6.017q.131,15.067,0,30.136a6.28,6.28,0,0,1-6.511,6.524c-9.231.132-18.466.043-28.275.043,2.882-2.5,4.377-5.748,8.823-5.318,4.91.475,9.9.123,14.856.1,4.037-.016,5.908-1.879,5.92-5.891.017-5.759,0-11.519,0-17.278C2455.975,428.655,2455.975,428.655,2453.088,425.327Z" transform="translate(-2388.01 -403.973)" fill="url(#linear-gradient)"/>
      <path id="Path_608" data-name="Path 608" d="M2379.263,470.246h-18.177l-.214-.461a6.546,6.546,0,0,1,2.2-.957c4.741-.088,9.484-.074,14.226-.012a7.31,7.31,0,0,1,2.1.7Z" transform="translate(-2348.848 -433.894)" fill="url(#linear-gradient)"/>
      <path id="Path_609" data-name="Path 609" d="M2356.7,495.141a8.839,8.839,0,0,1,1.536-.322c4.871-.021,9.743-.045,14.614.019.625.008,1.243.514,2.255.962C2371.966,497.124,2357.783,496.6,2356.7,495.141Z" transform="translate(-2346.353 -449.458)" fill="url(#linear-gradient)"/>
      <path id="Path_610" data-name="Path 610" d="M2463.277,496.751c-3.354,0-6.271.018-9.187-.025a1.154,1.154,0,0,1-.9-.567c-.077-.243.3-.915.468-.909,2.967.089,5.932.244,8.895.427C2462.7,495.685,2462.828,496.07,2463.277,496.751Z" transform="translate(-2404.038 -449.728)" fill="url(#linear-gradient)"/>
    </g>
  </g>
</svg>
