<svg xmlns="http://www.w3.org/2000/svg" xmlns:xlink="http://www.w3.org/1999/xlink" width="86.063" height="131.546" viewBox="0 0 86.063 131.546">
  <defs>
    <linearGradient id="linear-gradient" x1="0.5" x2="0.5" y2="1" gradientUnits="objectBoundingBox">
      <stop offset="0" stop-color="#21f5fc"/>
      <stop offset="1" stop-color="#b241f2"/>
    </linearGradient>
  </defs>
  <g id="sports" transform="translate(-2779.59 -158.613)">
    <path id="Path_593" data-name="Path 593" d="M2837.221,565.628c.469-1.674,1.294-2.24,2.781-2.1,2.584.248,5.252.014,7.763.551a14.448,14.448,0,0,1,11.391,13.063c.087.894-.217,2.292,1.3,2.148,1.382-.131.937-1.416.9-2.283-.31-7.718-7.117-14.755-15.048-15.508-1.952-.185-3.926-.138-5.89-.192-.457-.013-.915,0-1.39,0v-3.274c10.714-1.16,19.842,2.255,24.717,12.46a21.114,21.114,0,0,1,1.9,9.21q.023,19.3,0,38.6c0,1.789-.4,2.182-2.186,2.182q-40.844,0-81.688,0c-1.766,0-2.165-.4-2.166-2.2,0-12.866-.043-25.733.011-38.6.045-10.675,6.779-19.2,17-21.292,3.046-.623,6.249-.482,9.487-.7v3.79c-2.416,0-4.812-.181-7.173.033a16.928,16.928,0,0,0-15.068,16.017c-.007.256-.1.575.013.756.25.39.638,1.009.922.984a1.547,1.547,0,0,0,1.134-.879c.262-.98.206-2.041.421-3.038a14.922,14.922,0,0,1,14.039-11.771c1.58-.06,3.174.093,4.741-.063,1.509-.151,2.291.473,2.765,2.1-1.968,0-3.869-.1-5.757.022a14.915,14.915,0,0,0-9.4,3.54,11.641,11.641,0,0,0-3.713,8.7c-.027.789.223,1.416,1.072,1.448.865.033,1.067-.649,1.2-1.38a18.815,18.815,0,0,1,.919-4.211c1.779-4.026,5.36-5.44,9.408-5.813,2.631-.243,5.293-.169,7.942-.188a2.655,2.655,0,0,1,1.3.383q11.7,6.967,23.375-.013a1.779,1.779,0,0,1,.793-.363c4.044.059,8.129-.4,12.079.907a9.247,9.247,0,0,1,6.809,8.785c.016.256-.051.583.081.752a12.845,12.845,0,0,0,1.142,1.164c.357-.447,1.016-.891,1.021-1.342a11.373,11.373,0,0,0-2.934-8.1c-2.683-2.926-6.214-3.964-10-4.253C2841.295,565.505,2839.329,565.628,2837.221,565.628Zm4.832,20.651q-3.332,0-6.664,0c-.815,0-1.744.144-1.716,1.116.084,2.882-.094,5.869.616,8.613a8.06,8.06,0,0,0,8.937,5.841c4.1-.676,7.19-4.492,7.337-9.108.049-1.536.026-3.076.007-4.613-.017-1.4-.441-1.828-1.854-1.843C2846.5,586.261,2844.274,586.279,2842.053,586.279Z" transform="translate(0 -330.329)" fill="url(#linear-gradient)"/>
    <path id="Path_594" data-name="Path 594" d="M2935.8,193.632a1.558,1.558,0,0,1-1.383-1.381,33.939,33.939,0,0,1-1.123-10.524c.056-.656.008-1.32.008-2.108l-1.772.514-2.739-9.451-2.476,1.571-4.138-8.93-1.728,3.4a15.723,15.723,0,0,1-5.51-8.113h-.513a15.416,15.416,0,0,1-5.511,8.088l-1.753-3.359-4.108,8.908-2.5-1.544-2.728,9.442-1.766-.538c0,.8-.048,1.46.008,2.115a33.939,33.939,0,0,1-1.123,10.524,1.541,1.541,0,0,1-1.383,1.383,3.629,3.629,0,0,0-2.882,4.206c.564,3.652,2.4,6.809,4.129,9.981.343.629,1.279.917,1.895,1.419.388.317.9.695,1,1.126a20.564,20.564,0,0,0,6.111,10.453,9.978,9.978,0,0,1,1.543,1.867,2.629,2.629,0,0,1-1.947,4.235c-.33.051-.654.137-.963.2-.471,3.733.5,5.862,3.722,7.569a17.073,17.073,0,0,0,16.906-.015c3.209-1.715,4.26-4,3.726-7.552-.227-.056-.469-.133-.717-.176-2.461-.421-3.34-2.394-1.928-4.472a14.851,14.851,0,0,1,1.848-2.112,19.6,19.6,0,0,0,5.565-9.756,1.944,1.944,0,0,1,1.3-1.505,4.2,4.2,0,0,0,1.975-1.7,71.68,71.68,0,0,0,3.567-8.06C2939.407,196.5,2938.228,194.143,2935.8,193.632Zm-9.981,23.552c-11.144,16.294-23.627-1.259-23.458-2.158,0,0-9.717-13.779-2.2-24.8a3,3,0,0,1,3.054-1.158,20.359,20.359,0,0,0,10.449-.9c4.115-1.391,8.767-.7,12.049.179a7.808,7.808,0,0,1,5.707,5.406C2932.7,198.7,2932.537,207.357,2925.817,217.184Z" transform="translate(-91.912)" fill="url(#linear-gradient)"/>
  </g>
</svg>
