<?xml version="1.0" encoding="utf-8"?>
<!-- Generator: Adobe Illustrator 23.0.1, SVG Export Plug-In . SVG Version: 6.00 Build 0)  -->
<svg version="1.1" id="Layer_1" xmlns="http://www.w3.org/2000/svg" xmlns:xlink="http://www.w3.org/1999/xlink" x="0px" y="0px"
	 viewBox="0 0 563.2 572.6" style="enable-background:new 0 0 563.2 572.6;" xml:space="preserve">
<style type="text/css">
	.st0{opacity:0.81;}
	.st1{opacity:0.2;fill:url(#Ellipse_1_1_);enable-background:new    ;}
	.st2{opacity:0.2;fill:url(#Ellipse_2_1_);enable-background:new    ;}
	.st3{opacity:0.85;fill:url(#Path_1_1_);enable-background:new    ;}
	.st4{opacity:0.85;fill:url(#Path_2_1_);enable-background:new    ;}
	.st5{opacity:0.85;fill:url(#Path_3_1_);enable-background:new    ;}
	.st6{opacity:0.15;fill:url(#Path_4_1_);enable-background:new    ;}
	.st7{opacity:0.8;}
	.st8{opacity:0.5;}
	.st9{fill:#1B60F6;}
	.st10{opacity:0.71;}
	.st11{opacity:0.2;}
	.st12{fill:#1BB6F6;}
	.st13{fill:#B0F4F6;}
	.st14{opacity:0.5;fill:url(#Path_28_1_);enable-background:new    ;}
	.st15{opacity:0.5;fill:url(#Ellipse_6_1_);enable-background:new    ;}
	.st16{fill:#FFFFFF;}
</style>
<g id="Group_891" transform="translate(-1284.172 -207.467)" class="st0">
	
		<radialGradient id="Ellipse_1_1_" cx="1007.6388" cy="1655.9194" r="2.841" gradientTransform="matrix(94.3772 0 0 -16.6109 -93998.1016 28168.8828)" gradientUnits="userSpaceOnUse">
		<stop  offset="0.86" style="stop-color:#000000"/>
		<stop  offset="0.905" style="stop-color:#1E1B43"/>
		<stop  offset="0.958" style="stop-color:#453D98"/>
	</radialGradient>
	<ellipse id="Ellipse_1" class="st1" cx="1566.5" cy="732.9" rx="268.1" ry="47.2"/>
	
		<radialGradient id="Ellipse_2_1_" cx="1008.174" cy="1645.8101" r="2.841" gradientTransform="matrix(79.9547 0 0 -14.0726 -79508.2578 23790.6758)" gradientUnits="userSpaceOnUse">
		<stop  offset="0.637" style="stop-color:#000000"/>
		<stop  offset="0.784" style="stop-color:#1E1B43"/>
		<stop  offset="0.958" style="stop-color:#453D98"/>
	</radialGradient>
	<ellipse id="Ellipse_2" class="st2" cx="1566.5" cy="700.2" rx="227.1" ry="40"/>
	<g id="Group_2" transform="translate(1335.405 207.467)">
		
			<linearGradient id="Path_1_1_" gradientUnits="userSpaceOnUse" x1="-330.0478" y1="1502.0712" x2="-330.1498" y2="1502.8582" gradientTransform="matrix(487.608 0 0 -479.101 161231.8906 720169.0625)">
			<stop  offset="4.200000e-02" style="stop-color:#451D98"/>
			<stop  offset="0.7" style="stop-color:#1E0C43;stop-opacity:0.8"/>
			<stop  offset="0.9104" style="stop-color:#000000;stop-opacity:0"/>
		</linearGradient>
		<path id="Path_1" class="st3" d="M188.4,496.8L0,176.8L487.6,53.1l-208,442.4c0,0-4.9,36.7-46.4,36.7S188.4,496.8,188.4,496.8z"/>
		
			<linearGradient id="Path_2_1_" gradientUnits="userSpaceOnUse" x1="-329.4149" y1="1502.2507" x2="-329.4149" y2="1503.0217" gradientTransform="matrix(212.429 0 0 -532.211 70220.7188 800046.5625)">
			<stop  offset="0" style="stop-color:#451D98"/>
			<stop  offset="4.200000e-02" style="stop-color:#451D98"/>
			<stop  offset="0.423" style="stop-color:#1E0C43;stop-opacity:0.2"/>
			<stop  offset="1" style="stop-color:#000000;stop-opacity:0"/>
		</linearGradient>
		<path id="Path_2" class="st4" d="M219.8,496.8L137.2,0l212.4,53.1l-90.3,442.4c0,0-2.1,36.7-20.1,36.7S219.8,496.8,219.8,496.8z"
			/>
		
			<linearGradient id="Path_3_1_" gradientUnits="userSpaceOnUse" x1="-329.2203" y1="1501.072" x2="-329.2203" y2="1502.108" gradientTransform="matrix(185.1017 0 0 -420.3109 61048.0156 631729.875)">
			<stop  offset="4.200000e-02" style="stop-color:#451D98"/>
			<stop  offset="0.561" style="stop-color:#1E0C43"/>
			<stop  offset="1" style="stop-color:#000000;stop-opacity:0"/>
		</linearGradient>
		<path id="Path_3" class="st5" d="M192.9,489.2L16.2,126l41-32.9l141.9,379.6c0,0,4,32.6,1.1,39.6S192.9,489.2,192.9,489.2z"/>
		
			<linearGradient id="Path_4_1_" gradientUnits="userSpaceOnUse" x1="-328.8957" y1="1502.4718" x2="-328.8957" y2="1503.4918" gradientTransform="matrix(152.3905 0 0 -432.5768 50459.5195 650169.875)">
			<stop  offset="4.200000e-02" style="stop-color:#451D98"/>
			<stop  offset="0.1734" style="stop-color:#000000;stop-opacity:0"/>
			<stop  offset="0.561" style="stop-color:#1E0C43;stop-opacity:0"/>
			<stop  offset="1" style="stop-color:#1E0C43;stop-opacity:0"/>
		</linearGradient>
		<path id="Path_4" class="st6" d="M265.9,470.8L404.4,72.9l10.8,89.4L269.4,478.4c0,0-4.8,30.6-6.3,26.7S265.9,470.8,265.9,470.8z"
			/>
	</g>
	<g id="Group_15" transform="translate(1345.973 692.936)" class="st7">
		<g id="Group_3" transform="translate(142.027 24.642)" class="st8">
			<path id="Path_5" class="st9" d="M40.3,26.2C16.7,23.8,1.6,19.6,0,14.9l20.6-0.2c1.2,3.5,12.4,6.6,30,8.4L40.3,26.2z M125.1,25.7
				l-11.4-3c16.9-1.9,27-5.2,27-8.7v0h20.7v0C161.4,18.7,147.9,23.1,125.1,25.7L125.1,25.7z M50.5,5L40.1,1.9
				C52.4,0.7,66.4,0,80.6,0l0,0c12.6,0,24.8,0.5,36,1.5l-9.2,3.2C99.1,4,90.1,3.6,80.6,3.6l0,0C70,3.6,59.6,4.1,50.5,5L50.5,5z"/>
		</g>
		<g id="Group_4" transform="translate(115.137 20)">
			<path id="Path_6" class="st9" d="M107.5,37.3C48.2,37.3,0,29,0,18.7S48.2,0,107.5,0s107.5,8.4,107.5,18.7S166.8,37.3,107.5,37.3z
				 M107.5,0.1C48.7,0.1,0.8,8.4,0.8,18.7s47.9,18.5,106.7,18.5s106.7-8.3,106.7-18.5S166.4,0.1,107.5,0.1L107.5,0.1z"/>
		</g>
		<g id="Group_5" transform="translate(175.29 30.44)">
			<path id="Path_7" class="st9" d="M47.4,16.4C21.3,16.4,0,12.8,0,8.2S21.3,0,47.4,0s47.4,3.7,47.4,8.2S73.5,16.4,47.4,16.4z
				 M47.4,0.1C21.7,0.1,0.8,3.8,0.8,8.2s20.9,8.1,46.6,8.1s46.6-3.6,46.6-8.1S73.1,0.1,47.4,0.1L47.4,0.1z"/>
		</g>
		<g id="Group_6" transform="translate(54.284 9.439)" class="st8">
			<path id="Path_8" class="st9" d="M168.4,58.4c-45,0-87.3-3-119.1-8.6S0,37,0,29.2S17.5,14.1,49.3,8.6S123.4,0,168.4,0
				s87.3,3,119.1,8.6s49.3,12.9,49.3,20.7s-17.5,15.1-49.3,20.7S213.4,58.4,168.4,58.4z M168.4,0.1C75.8,0.1,0.5,13.2,0.5,29.2
				s75.3,29.1,167.8,29.1s167.8-13.1,167.8-29.1S260.9,0.1,168.4,0.1L168.4,0.1z"/>
		</g>
		<g id="Group_7" transform="translate(42.705 7.43)" class="st8">
			<path id="Path_9" class="st9" d="M180,62.5c-99.2,0-180-14-180-31.2S80.7,0,180,0s180,14,180,31.2S279.2,62.5,180,62.5z M180,0.9
				C83.7,0.9,5.4,14.5,5.4,31.2S83.7,61.5,180,61.5s174.5-13.6,174.5-30.3S276.2,0.9,180,0.9L180,0.9z"/>
		</g>
		<g id="Group_8" transform="translate(123.029 21.37)">
			<path id="Path_10" class="st9" d="M99.6,34.6c-4.2,0-8.5,0-12.7-0.1l0.8-1.1c3.9,0.1,7.9,0.1,11.9,0.1
				c19.4,0.1,38.8-1.1,58.1-3.5l4.1,0.9C144,33.3,122.5,34.6,99.6,34.6z M77.5,34.2c-26.1-1-49.1-3.9-63.1-7.9l5.6-0.6
				c13.1,3.7,34.5,6.4,58.9,7.4L77.5,34.2z M169,29.7l-4.5-0.8c18.3-3.1,28.3-7.2,28.3-11.6v0h6.5v0C199.3,22,188.5,26.4,169,29.7
				L169,29.7z M9.9,24.8C3.3,22.5,0,19.9,0,17.3c0-2,2-4,6.1-6l6.1,0.4c-3.8,1.8-5.7,3.7-5.7,5.6c0,2.5,3.1,4.8,9.2,7L9.9,24.8z
				 M192.3,15.7c-2.4-4.3-15.1-8.4-34.7-11.1l4.1-0.9c21,2.9,34.6,7.2,37.2,11.8L192.3,15.7z M15.7,10.3L9.8,9.8
				c11.6-4.2,32.9-7.5,58.3-8.9L70.2,2C46.4,3.3,26.5,6.4,15.7,10.3L15.7,10.3z M150.3,3.7c-16.8-1.8-33.7-2.7-50.7-2.6
				c-7,0-14.1,0.1-20.9,0.4l-1.5-1.1C84.6,0.1,92.1,0,99.6,0c18.1-0.1,36.2,0.9,54.2,2.8L150.3,3.7z"/>
		</g>
		<g id="Group_10" transform="translate(141.845 24.511)">
			<g id="Group_9">
				<path id="Path_11" class="st9" d="M40.5,26.4L40.5,26.4C16.8,24.1,1.7,19.8,0.1,15L0,14.9h0.2l20.7-0.2l0,0.1
					c1.2,3.5,12.4,6.6,29.9,8.3l0.7,0.1L40.5,26.4z M0.4,15.1c1.9,4.6,16.8,8.7,40.1,11l9.7-2.9c-17.1-1.8-28.1-4.9-29.4-8.3
					L0.4,15.1z M125.3,26L125.3,26l-12.1-3.2l0.7-0.1c16.8-1.9,26.9-5.1,26.9-8.6V14h20.9v0.2C161.7,18.9,148.1,23.4,125.3,26
					L125.3,26z M114.6,22.9l10.7,2.8c22.5-2.6,36-6.9,36.1-11.5h-20.4C140.9,17.7,131.1,21,114.6,22.9L114.6,22.9z M50.6,5.3
					L50.6,5.3L39.6,2l0.7-0.1C52.5,0.7,66.6,0,80.8,0c12.7,0,24.8,0.5,36,1.5l0.6,0.1l-9.8,3.4h0c-8.3-0.7-17.4-1.1-26.8-1.1
					C70.2,3.8,59.8,4.3,50.6,5.3L50.6,5.3z M40.9,2.1L50.7,5c9.1-0.9,19.5-1.4,30.2-1.4c9.4,0,18.4,0.4,26.8,1.1l8.6-3
					c-11.1-0.9-23-1.4-35.4-1.4C66.8,0.3,53,0.9,40.9,2.1L40.9,2.1z"/>
			</g>
		</g>
		<g id="Group_11" transform="translate(21.285 3.895)" class="st10">
			<path id="Path_12" class="st9" d="M221.9,69.5L221,68c27.3-0.5,53.1-1.9,76.8-4.3l4.4,1.3C277.4,67.5,250.4,69,221.9,69.5z
				 M100.8,65.1c-24.4-2.4-46.1-5.8-62.6-9.8l7-0.9c15.9,3.8,36.6,7,60,9.4L100.8,65.1z M385.1,49.1l-7.9-0.6
				c11.2-4.3,16.9-8.9,16.9-13.7v-0.1h8.7v0.1C402.8,39.8,396.8,44.6,385.1,49.1L385.1,49.1z M8.7,34.8H0v0c0-5,5.9-9.8,17.5-14.3
				l7.9,0.6C14.3,25.4,8.7,30,8.7,34.8L8.7,34.8z M357.4,15.2c-15.9-3.8-36.6-7-60-9.4l4.3-1.3c24.4,2.4,46.1,5.8,62.7,9.8
				L357.4,15.2z M104.8,5.8l-4.4-1.3c24.8-2.5,51.8-4,80.3-4.5l0.9,1.5C154.3,2,128.5,3.4,104.8,5.8L104.8,5.8z"/>
		</g>
		<g id="Group_12" transform="translate(102.938 17.886)">
			<path id="Path_13" class="st9" d="M119.8,41.6H119l0-0.4h0.7c1.1,0,2.4,0,3.5,0l0.1,0.4C122.2,41.6,121,41.6,119.8,41.6z
				 M109.2,41.5c-1.4,0-2.9,0-4.3-0.1l0.3-0.4c1.4,0,2.8,0.1,4.3,0.1L109.2,41.5z M133.1,41.4l-0.2-0.4c1.4,0,2.9-0.1,4.3-0.1
				l0.3,0.4C136,41.4,134.6,41.4,133.1,41.4L133.1,41.4z M95.1,41.1c-1.4-0.1-2.9-0.1-4.3-0.2l0.5-0.4c1.4,0.1,2.8,0.1,4.2,0.2
				L95.1,41.1z M147.1,41l-0.5-0.4c1.4-0.1,2.8-0.1,4.2-0.2l0.6,0.4C149.9,40.9,148.5,41,147.1,41L147.1,41z M81.4,40.5
				c-1.4-0.1-2.8-0.2-4.1-0.3l0.8-0.4c1.3,0.1,2.7,0.2,4,0.3L81.4,40.5z M160.7,40.3L160,40c1.3-0.1,2.7-0.2,4-0.3l0.8,0.3
				C163.5,40.1,162.1,40.2,160.7,40.3L160.7,40.3z M68.3,39.5c-1.3-0.1-2.6-0.2-3.9-0.3l1-0.3c1.3,0.1,2.6,0.2,3.8,0.3L68.3,39.5z
				 M173.7,39.3l-1-0.3c1.3-0.1,2.6-0.2,3.8-0.3l1.1,0.3C176.3,39.1,175,39.2,173.7,39.3L173.7,39.3z M55.8,38.4
				c-1.2-0.1-2.4-0.3-3.7-0.4l1.2-0.3c1.2,0.1,2.4,0.3,3.6,0.4L55.8,38.4z M186,38.1l-1.2-0.3c1.2-0.1,2.4-0.3,3.5-0.4l1.3,0.3
				C188.4,37.8,187.2,38,186,38.1L186,38.1z M44.3,36.9c-1.1-0.2-2.3-0.3-3.3-0.5l1.4-0.3c1.1,0.2,2.2,0.3,3.3,0.5L44.3,36.9z
				 M197.3,36.6l-1.4-0.3c1.1-0.2,2.2-0.3,3.2-0.5l1.5,0.3C199.5,36.3,198.4,36.5,197.3,36.6L197.3,36.6z M33.8,35.3
				c-1-0.2-2-0.4-3-0.6l1.6-0.3c0.9,0.2,1.9,0.4,2.9,0.5L33.8,35.3z M207.5,34.9l-1.6-0.3c1-0.2,1.9-0.4,2.9-0.6l1.6,0.2
				C209.5,34.5,208.5,34.7,207.5,34.9L207.5,34.9z M24.6,33.4c-0.9-0.2-1.8-0.4-2.6-0.6l1.8-0.2c0.8,0.2,1.7,0.4,2.5,0.6L24.6,33.4z
				 M216.6,33l-1.8-0.2c0.8-0.2,1.7-0.4,2.5-0.6l1.8,0.2C218.3,32.6,217.4,32.8,216.6,33L216.6,33z M16.6,31.4
				c-0.7-0.2-1.5-0.4-2.2-0.7l1.9-0.2c0.7,0.2,1.4,0.4,2.1,0.6L16.6,31.4z M224.2,30.9l-1.9-0.2c0.7-0.2,1.4-0.4,2-0.7l1.9,0.2
				C225.7,30.5,224.9,30.7,224.2,30.9L224.2,30.9z M10.1,29.2c-0.6-0.2-1.1-0.5-1.7-0.7l2-0.1c0.5,0.2,1.1,0.5,1.7,0.7L10.1,29.2z
				 M230.4,28.7l-2-0.1c0.5-0.2,1.1-0.5,1.6-0.7l2,0.1C231.5,28.2,231,28.5,230.4,28.7L230.4,28.7z M5.2,26.9
				c-0.4-0.2-0.8-0.5-1.2-0.7L6.1,26c0.4,0.2,0.8,0.5,1.2,0.7L5.2,26.9z M235.1,26.4l-2.1-0.1c0.4-0.2,0.7-0.5,1.1-0.7l2.1,0.1
				C235.8,25.9,235.5,26.2,235.1,26.4L235.1,26.4z M1.9,24.5c-0.2-0.2-0.5-0.5-0.7-0.7l2.2-0.1c0.2,0.3,0.4,0.5,0.7,0.7L1.9,24.5z
				 M238.1,24l-2.1-0.1c0.2-0.2,0.4-0.5,0.6-0.7l2.2,0C238.5,23.5,238.3,23.7,238.1,24L238.1,24z M0.2,22C0.1,21.8,0,21.5,0,21.3
				l2.2,0c0,0.3,0.1,0.5,0.2,0.7L0.2,22z M239.4,21.5l-2.2,0c0.1-0.2,0.1-0.5,0.1-0.7v0h2.2v0C239.5,21,239.5,21.3,239.4,21.5
				L239.4,21.5z M2.3,19.6l-2.2,0c0.1-0.3,0.2-0.5,0.3-0.8l2.2,0C2.5,19.1,2.4,19.3,2.3,19.6L2.3,19.6z M236.9,19
				c-0.1-0.3-0.3-0.5-0.4-0.7l2.2,0c0.2,0.2,0.3,0.5,0.4,0.8L236.9,19z M3.9,17.2l-2.1-0.1c0.3-0.2,0.5-0.5,0.8-0.7l2.1,0.1
				C4.5,16.7,4.2,16.9,3.9,17.2z M234.9,16.7c-0.3-0.2-0.6-0.5-0.9-0.7l2.1-0.1c0.3,0.2,0.7,0.5,1,0.7L234.9,16.7z M7.2,14.8
				l-2.1-0.1C5.5,14.5,6,14.2,6.5,14l2.1,0.1C8.1,14.4,7.6,14.6,7.2,14.8L7.2,14.8z M231.3,14.3c-0.5-0.2-0.9-0.5-1.4-0.7l2-0.1
				c0.5,0.2,1,0.5,1.5,0.7L231.3,14.3z M12,12.6l-2-0.2c0.6-0.2,1.2-0.5,1.8-0.7l2,0.2C13.2,12.1,12.6,12.3,12,12.6L12,12.6z
				 M226.2,12.1c-0.6-0.2-1.2-0.4-1.9-0.7l1.9-0.2c0.7,0.2,1.3,0.5,1.9,0.7L226.2,12.1z M18.4,10.4l-1.9-0.2
				c0.7-0.2,1.5-0.4,2.3-0.6l1.8,0.2C19.9,10,19.1,10.2,18.4,10.4L18.4,10.4z M219.5,10c-0.8-0.2-1.5-0.4-2.3-0.6l1.8-0.2
				c0.8,0.2,1.6,0.4,2.4,0.6L219.5,10z M26.2,8.4l-1.7-0.2c0.9-0.2,1.8-0.4,2.7-0.6l1.7,0.2C27.9,8,27,8.2,26.2,8.4L26.2,8.4z
				 M211.4,8c-0.9-0.2-1.8-0.4-2.7-0.6l1.6-0.2c1,0.2,1.9,0.4,2.8,0.6L211.4,8z M35.3,6.6l-1.6-0.3c1-0.2,2.1-0.4,3.1-0.5l1.5,0.3
				C37.3,6.2,36.3,6.4,35.3,6.6L35.3,6.6z M202.1,6.2c-1-0.2-2.1-0.3-3.1-0.5l1.5-0.3c1.1,0.2,2.1,0.3,3.2,0.5L202.1,6.2z M45.5,4.9
				l-1.4-0.3c1.1-0.2,2.3-0.3,3.4-0.5l1.3,0.3C47.8,4.6,46.7,4.8,45.5,4.9L45.5,4.9z M191.6,4.6c-1.1-0.2-2.3-0.3-3.4-0.4l1.3-0.3
				c1.2,0.1,2.4,0.3,3.5,0.5L191.6,4.6z M56.8,3.5l-1.2-0.3c1.2-0.1,2.5-0.3,3.7-0.4l1.1,0.3C59.3,3.3,58,3.4,56.8,3.5L56.8,3.5z
				 M180.1,3.3c-1.2-0.1-2.5-0.3-3.7-0.4l1-0.3c1.3,0.1,2.5,0.3,3.8,0.4L180.1,3.3z M69,2.4L68.1,2c1.3-0.1,2.6-0.2,4-0.3L72.9,2
				C71.6,2.1,70.3,2.3,69,2.4L69,2.4z M167.7,2.1c-1.3-0.1-2.6-0.2-4-0.3l0.8-0.3c1.3,0.1,2.7,0.2,4,0.3L167.7,2.1z M81.9,1.4
				l-0.7-0.4C82.6,1,84,0.9,85.4,0.9L86,1.2C84.6,1.3,83.3,1.4,81.9,1.4L81.9,1.4z M154.6,1.3c-1.4-0.1-2.7-0.1-4.1-0.2l0.6-0.4
				c1.4,0.1,2.8,0.1,4.2,0.2L154.6,1.3z M95.3,0.8l-0.5-0.4c1.4-0.1,2.9-0.1,4.3-0.1l0.4,0.4C98.1,0.7,96.7,0.8,95.3,0.8L95.3,0.8z
				 M141.1,0.7c-1.4,0-2.8-0.1-4.2-0.1l0.3-0.4c1.4,0,2.9,0.1,4.3,0.1L141.1,0.7z M109.1,0.5l-0.2-0.4c1.4,0,2.9,0,4.4-0.1l0.1,0.4
				C112,0.4,110.5,0.4,109.1,0.5L109.1,0.5z M127.3,0.4c-1.4,0-2.9,0-4.3,0l0.1-0.4c1.4,0,2.9,0,4.4,0L127.3,0.4z"/>
		</g>
		<g id="Group_13" transform="translate(66.077 11.441)" class="st11">
			<path id="Path_14" class="st9" d="M160.3,54.5l-0.8-5.7c1.3,0,2.6,0,3.9,0l1.7,5.7C163.5,54.5,161.9,54.5,160.3,54.5z
				 M131.3,54.1c-1.6,0-3.2-0.1-4.8-0.1l6.2-5.6c1.3,0,2.5,0.1,3.8,0.1L131.3,54.1z M194,53.7l-7.8-5.5c1.3-0.1,2.5-0.1,3.7-0.2
				l8.7,5.5C197.1,53.6,195.6,53.6,194,53.7L194,53.7z M98.5,52.6c-1.5-0.1-3-0.2-4.5-0.3l13-5.2c1.2,0.1,2.4,0.2,3.6,0.3L98.5,52.6
				z M225.9,51.7l-14.4-5.1c1.1-0.1,2.3-0.2,3.4-0.3l15.3,5C228.8,51.4,227.3,51.6,225.9,51.7L225.9,51.7z M68.5,49.8
				c-1.3-0.2-2.7-0.3-4-0.5l19.1-4.6c1,0.1,2.1,0.3,3.2,0.4L68.5,49.8z M254.6,48.5l-20.4-4.4c1-0.1,2-0.3,3-0.4l21.1,4.3
				C257.1,48.2,255.8,48.4,254.6,48.5L254.6,48.5z M42.6,46c-1.1-0.2-2.2-0.4-3.3-0.6l24.4-3.8c0.9,0.2,1.7,0.3,2.6,0.5L42.6,46z
				 M278.6,44.4l-25.3-3.6c0.8-0.2,1.6-0.3,2.4-0.5l26,3.4C280.7,43.9,279.7,44.2,278.6,44.4L278.6,44.4z M22.1,41.3
				c-0.8-0.2-1.7-0.5-2.4-0.7L48,37.8c0.6,0.2,1.3,0.4,1.9,0.6L22.1,41.3z M297.1,39.4l-29.2-2.5c0.6-0.2,1.1-0.4,1.7-0.6l29.6,2.4
				C298.5,38.9,297.8,39.2,297.1,39.4z M7.8,36c-0.5-0.3-1-0.5-1.5-0.8l31.2-1.6c0.4,0.2,0.8,0.4,1.2,0.6L7.8,36z M308.9,33.9
				l-31.6-1.4c0.3-0.2,0.6-0.4,0.9-0.6l31.9,1.2C309.7,33.4,309.3,33.6,308.9,33.9L308.9,33.9z M0.5,30.2c-0.2-0.3-0.3-0.5-0.4-0.8
				l32.5-0.4c0.1,0.2,0.2,0.5,0.4,0.7L0.5,30.2z M313.6,28.1L281,27.9c0-0.2,0.1-0.4,0.1-0.7v-0.1h32.6v0.1
				C313.7,27.5,313.6,27.8,313.6,28.1L313.6,28.1z M32.9,24.9L0.4,24.3C0.6,24,0.8,23.7,1,23.5l32.3,0.8
				C33.1,24.5,33,24.7,32.9,24.9L32.9,24.9z M278.9,23.2c-0.2-0.2-0.5-0.4-0.8-0.7l31.8-1.2c0.3,0.3,0.7,0.6,1,0.8L278.9,23.2z
				 M38.6,20.3L7.7,18.5c0.5-0.3,1.1-0.5,1.6-0.8l30.6,2C39.4,19.9,39,20.1,38.6,20.3L38.6,20.3z M271,18.7c-0.5-0.2-1-0.4-1.6-0.6
				l29.6-2.4c0.7,0.2,1.3,0.5,2,0.8L271,18.7z M49.9,16.1l-28-2.9c0.8-0.2,1.7-0.5,2.6-0.7l27.4,3.1C51.2,15.7,50.5,15.9,49.9,16.1z
				 M257.8,14.7c-0.7-0.2-1.5-0.4-2.3-0.5l25.9-3.4c1,0.2,2,0.5,2.9,0.7L257.8,14.7z M66.1,12.4L42.4,8.5c1.1-0.2,2.2-0.4,3.4-0.6
				l23,4C67.9,12.1,67,12.2,66.1,12.4L66.1,12.4z M239.9,11.2c-1-0.1-1.9-0.3-2.9-0.4l21.1-4.3c1.2,0.2,2.5,0.4,3.7,0.6L239.9,11.2z
				 M86.6,9.4L68.3,4.7c1.3-0.2,2.7-0.3,4.1-0.5L89.8,9C88.8,9.1,87.7,9.2,86.6,9.4L86.6,9.4z M218.1,8.4c-1.1-0.1-2.2-0.2-3.4-0.3
				l15.2-5c1.4,0.1,2.9,0.3,4.3,0.4L218.1,8.4z M110.4,7.2L98.2,1.9c1.5-0.1,3-0.2,4.5-0.3L114,6.9C112.7,7,111.5,7.1,110.4,7.2z
				 M193.4,6.6c-1.2-0.1-2.4-0.1-3.7-0.2l8.7-5.5c1.6,0.1,3.1,0.2,4.7,0.2L193.4,6.6z M136.3,5.9L131,0.3c1.6,0,3.2-0.1,4.8-0.1
				l4.3,5.6C138.8,5.8,137.5,5.9,136.3,5.9L136.3,5.9z M167,5.7c-1.3,0-2.6,0-3.8,0l1.7-5.7c1.6,0,3.2,0,4.8,0.1L167,5.7z"/>
		</g>
		<g id="Group_14">
			<path id="Path_15" class="st9" d="M212.8,77.3c-4.4,0-8.9-0.1-13.3-0.2l1.2-2.1c4.2,0.1,8.4,0.1,12.6,0.2L212.8,77.3z
				 M239.4,77.2l-0.9-2.1c4.2-0.1,8.4-0.1,12.5-0.2l1.6,2.1C248.3,77.1,243.8,77.2,239.4,77.2L239.4,77.2z M173.2,76.4
				c-4.3-0.2-8.7-0.4-12.9-0.6l3.3-2c4,0.2,8.1,0.4,12.2,0.5L173.2,76.4z M278.8,76.1l-3-2c4-0.2,8.1-0.4,12.1-0.6l3.7,2
				C287.4,75.7,283.1,75.9,278.8,76.1L278.8,76.1z M135.2,74.2c-4.1-0.3-8.1-0.6-12.1-1l5.3-1.9c3.8,0.3,7.6,0.6,11.5,0.9
				L135.2,74.2z M316.4,73.7l-5-1.9c3.8-0.3,7.6-0.6,11.3-1l5.7,1.8C324.4,73.1,320.4,73.4,316.4,73.7L316.4,73.7z M100,70.9
				c-3.7-0.4-7.4-0.9-10.9-1.3l7.2-1.7c3.3,0.4,6.8,0.9,10.3,1.3L100,70.9z M350.9,70.3l-6.9-1.7c3.4-0.4,6.8-0.9,10.1-1.3l7.5,1.6
				C358.1,69.4,354.5,69.8,350.9,70.3L350.9,70.3z M68.8,66.6c-3.2-0.5-6.3-1.1-9.4-1.6l8.8-1.4c2.8,0.5,5.8,1.1,8.9,1.6L68.8,66.6z
				 M381.4,65.8l-8.5-1.5c2.9-0.5,5.8-1.1,8.6-1.6l9,1.4C387.5,64.7,384.5,65.2,381.4,65.8L381.4,65.8z M42.5,61.4
				c-2.6-0.6-5.1-1.3-7.5-1.9l10.1-1.1c2.3,0.6,4.6,1.2,7.1,1.8L42.5,61.4z M406.7,60.4l-9.9-1.2c2.4-0.6,4.7-1.2,6.8-1.8l10.3,1.1
				C411.7,59.2,409.2,59.8,406.7,60.4L406.7,60.4z M22,55.5c-1.9-0.7-3.8-1.4-5.4-2.1l11.1-0.8c1.6,0.7,3.3,1.3,5.1,2L22,55.5z
				 M426.2,54.4l-10.9-0.8c1.7-0.7,3.3-1.3,4.8-2l11.2,0.7C429.7,53,428,53.7,426.2,54.4L426.2,54.4z M7.9,49
				c-1.1-0.7-2.2-1.4-3.2-2.2l11.7-0.4c1,0.8,2,1.5,3,2.1L7.9,49z M439.1,47.8l-11.6-0.5c0.9-0.6,1.8-1.4,2.6-2.1l11.8,0.4
				C441,46.4,440.1,47.1,439.1,47.8L439.1,47.8z M0.8,42.2c-0.4-0.7-0.7-1.5-0.8-2.3l12-0.1c0.1,0.8,0.4,1.5,0.8,2.2L0.8,42.2z
				 M445,41l-11.9-0.1c0.2-0.7,0.4-1.4,0.4-2.2v-0.1h12v0.1C445.4,39.4,445.3,40.2,445,41z M12.7,35.4L0.8,35.2
				c0.4-0.8,1-1.6,1.6-2.3l11.8,0.3C13.6,33.9,13.1,34.6,12.7,35.4L12.7,35.4z M431.9,34.2c-0.6-0.8-1.2-1.5-1.9-2.2l11.8-0.4
				c0.7,0.7,1.4,1.5,2,2.3L431.9,34.2z M19.3,29L7.8,28.4c1.2-0.7,2.5-1.5,3.9-2.2L23,26.9C21.7,27.6,20.4,28.3,19.3,29z M424,27.8
				c-1.2-0.7-2.6-1.4-4.1-2.1l11.2-0.7c1.6,0.7,3,1.5,4.3,2.2L424,27.8z M32.6,22.8l-10.8-0.9c1.9-0.7,4-1.4,6.1-2.1l10.4,1
				C36.3,21.5,34.4,22.2,32.6,22.8L32.6,22.8z M409.6,21.7c-1.9-0.6-4-1.3-6.2-1.9l10.3-1.1c2.3,0.7,4.5,1.3,6.5,2L409.6,21.7z
				 M52,17.2L42.3,16c2.6-0.6,5.3-1.2,8.1-1.8l9.2,1.3C57,16,54.4,16.6,52,17.2L52,17.2z M389.2,16.2c-2.6-0.6-5.3-1.1-8-1.7l9-1.4
				c2.9,0.6,5.8,1.2,8.5,1.8L389.2,16.2z M76.8,12.3l-8.3-1.5c3.2-0.5,6.5-1.1,9.9-1.5l7.7,1.6C83,11.3,79.8,11.7,76.8,12.3
				L76.8,12.3z M363.5,11.4c-3.1-0.5-6.4-1-9.6-1.4l7.4-1.6c3.5,0.5,6.9,1,10.2,1.5L363.5,11.4z M106.3,8.2l-6.6-1.7
				c3.7-0.4,7.5-0.8,11.3-1.2l6,1.8C113.4,7.4,109.8,7.7,106.3,8.2L106.3,8.2z M333.2,7.5c-3.6-0.4-7.2-0.8-10.9-1.1l5.7-1.8
				c3.9,0.4,7.8,0.8,11.6,1.2L333.2,7.5z M139.5,5l-4.7-1.9c4.1-0.3,8.2-0.6,12.4-0.8l4.1,2C147.3,4.5,143.3,4.7,139.5,5L139.5,5z
				 M299.4,4.6c-3.9-0.3-7.9-0.5-11.9-0.7l3.7-2c4.2,0.2,8.4,0.5,12.6,0.8L299.4,4.6z M175.4,3l-2.7-2c4.3-0.2,8.7-0.3,13.1-0.4l2,2
				C183.6,2.7,179.5,2.8,175.4,3L175.4,3z M263,2.7c-4.1-0.1-8.3-0.3-12.4-0.4l1.6-2.1c4.4,0.1,8.8,0.2,13.2,0.4L263,2.7z
				 M212.8,2.1L212.3,0c4.4,0,8.9,0,13.3,0l-0.2,2.1C221.3,2.1,217,2.1,212.8,2.1L212.8,2.1z"/>
		</g>
		<path id="Path_16" class="st12" d="M350.9,70.3l-6.9-1.7l10.1-1.3l7.5,1.6L350.9,70.3z"/>
		<path id="Path_17" class="st12" d="M347.1,39.3l0.1-0.7h32.6l-0.1,0.8L347.1,39.3z"/>
		<path id="Path_18" class="st12" d="M117.4,48.6l1.9-0.2l2.1,0.6l-1.9,0.2L117.4,48.6z"/>
		<path id="Path_19" class="st12" d="M202.3,17.4l-5.3-5.6l4.8-0.1l4.3,5.6L202.3,17.4z"/>
		<path id="Path_20" class="st12" d="M106.6,69.2l-6.6,1.7l-10.9-1.3l7.2-1.7L106.6,69.2z"/>
		<path id="Path_21" class="st12" d="M160.3,75.8l3.3-2l12.2,0.5l-2.6,2L160.3,75.8z"/>
		<path id="Path_22" class="st12" d="M160.1,63.7l4.5,0.3l12.1-5.3l-3.6-0.3L160.1,63.7z"/>
		<path id="Path_23" class="st12" d="M122.1,68.9l4.4-1.3c0,0-32.6-3.2-60-9.4l-7,0.9C80.1,63.8,101,67.1,122.1,68.9z"/>
		<path id="Path_24" class="st12" d="M106.9,42.3l-0.7-0.7l-2.2,0.1l0.7,0.7L106.9,42.3z"/>
		<path id="Path_25" class="st12" d="M372.8,64.3l8.6-1.6l9,1.4l-9.1,1.7L372.8,64.3z"/>
		<path id="Path_26" class="st12" d="M255.8,17.8l3.7,0.2l9.6-5.4l-4.7-0.2L255.8,17.8z"/>
	</g>
	<g id="Group_16" transform="translate(1451.614 688.629)">
		<path id="Path_27" class="st13" d="M119.3,43.3c-2.5,0-5-0.1-7.4-0.1l0.7-1.2c2.3,0,4.7,0.1,7,0.1L119.3,43.3z M134.2,43.3
			l-0.5-1.2c2.3,0,4.7-0.1,7-0.1l0.9,1.2C139.2,43.2,136.7,43.2,134.2,43.3L134.2,43.3z M97.1,42.8c-2.4-0.1-4.9-0.2-7.2-0.3
			l1.9-1.1c2.2,0.1,4.5,0.2,6.8,0.3L97.1,42.8z M156.3,42.6l-1.7-1.1c2.3-0.1,4.5-0.2,6.8-0.3l2.1,1.1
			C161.1,42.4,158.7,42.5,156.3,42.6L156.3,42.6z M75.8,41.6c-2.3-0.2-4.6-0.4-6.8-0.5l3-1c2.1,0.2,4.3,0.4,6.4,0.5L75.8,41.6z
			 M177.3,41.3l-2.8-1.1c2.1-0.2,4.2-0.4,6.3-0.5l3.2,1C181.8,41,179.6,41.2,177.3,41.3L177.3,41.3z M56.1,39.8
			C54,39.5,51.9,39.3,50,39l4-0.9c1.9,0.2,3.8,0.5,5.8,0.7L56.1,39.8z M196.7,39.4l-3.9-1c1.9-0.2,3.8-0.5,5.6-0.7l4.2,0.9
			C200.7,38.9,198.7,39.1,196.7,39.4L196.7,39.4z M38.6,37.3c-1.8-0.3-3.6-0.6-5.2-0.9l4.9-0.8c1.6,0.3,3.3,0.6,5,0.9L38.6,37.3z
			 M213.7,36.9l-4.8-0.8c1.6-0.3,3.3-0.6,4.8-0.9l5,0.8C217.2,36.2,215.5,36.6,213.7,36.9L213.7,36.9z M23.8,34.4
			c-1.5-0.3-2.9-0.7-4.2-1.1l5.6-0.6c1.3,0.3,2.6,0.7,4,1L23.8,34.4z M228,33.9l-5.5-0.7c1.3-0.3,2.6-0.7,3.8-1l5.8,0.6
			C230.7,33.2,229.4,33.5,228,33.9L228,33.9z M12.3,31.1c-1.1-0.4-2.1-0.8-3-1.2l6.2-0.4c0.9,0.4,1.9,0.8,2.9,1.1L12.3,31.1z
			 M238.9,30.5l-6.1-0.5c1-0.4,1.9-0.8,2.7-1.1l6.3,0.4C240.9,29.7,239.9,30.1,238.9,30.5L238.9,30.5z M4.4,27.5
			c-0.6-0.4-1.2-0.8-1.8-1.3L9.2,26c0.5,0.4,1.1,0.8,1.7,1.2L4.4,27.5z M246.1,26.8l-6.5-0.3c0.5-0.4,1-0.8,1.5-1.2l6.6,0.2
			C247.2,26,246.7,26.4,246.1,26.8L246.1,26.8z M0.4,23.6c-0.2-0.4-0.4-0.8-0.4-1.3l6.7,0c0.1,0.4,0.2,0.8,0.4,1.2L0.4,23.6z
			 M249.4,23l-6.7-0.1c0.1-0.4,0.2-0.8,0.2-1.2v0h6.7v0C249.7,22.1,249.6,22.5,249.4,23L249.4,23z M7.1,19.9l-6.7-0.1
			c0.2-0.5,0.5-0.9,0.9-1.3l6.6,0.2C7.6,19,7.3,19.4,7.1,19.9L7.1,19.9z M242.1,19.2c-0.3-0.4-0.7-0.8-1.1-1.2l6.6-0.2
			c0.4,0.4,0.8,0.8,1.1,1.3L242.1,19.2z M10.8,16.2l-6.5-0.3c0.7-0.4,1.4-0.8,2.2-1.2l6.3,0.4C12.2,15.4,11.5,15.8,10.8,16.2
			L10.8,16.2z M237.7,15.6c-0.7-0.4-1.5-0.8-2.3-1.2l6.3-0.4c0.9,0.4,1.7,0.8,2.4,1.2L237.7,15.6z M18.3,12.8l-6-0.5
			c1.1-0.4,2.2-0.8,3.4-1.2l5.9,0.6C20.4,12.1,19.3,12.4,18.3,12.8z M229.6,12.2c-1.1-0.4-2.2-0.7-3.5-1.1l5.7-0.6
			c1.3,0.4,2.5,0.7,3.7,1.1L229.6,12.2z M29.1,9.6l-5.4-0.7c1.5-0.3,3-0.7,4.6-1l5.2,0.7C32,9,30.5,9.3,29.1,9.6L29.1,9.6z
			 M218.1,9.1c-1.4-0.3-2.9-0.6-4.5-0.9l5-0.8c1.6,0.3,3.2,0.7,4.8,1L218.1,9.1z M43,6.9L38.4,6c1.8-0.3,3.7-0.6,5.5-0.9L48.3,6
			C46.5,6.3,44.7,6.6,43,6.9L43,6.9z M203.7,6.4c-1.7-0.3-3.6-0.5-5.4-0.8l4.2-0.9c1.9,0.3,3.9,0.5,5.7,0.8L203.7,6.4z M59.6,4.6
			l-3.7-1c2.1-0.2,4.2-0.5,6.3-0.7l3.4,1C63.6,4.1,61.5,4.3,59.6,4.6z M186.7,4.2c-2-0.2-4.1-0.4-6.1-0.6l3.2-1
			c2.2,0.2,4.4,0.4,6.5,0.6L186.7,4.2z M78.2,2.8l-2.6-1.1c2.3-0.2,4.6-0.3,6.9-0.5l2.3,1.1C82.5,2.5,80.3,2.7,78.2,2.8L78.2,2.8z
			 M167.8,2.6c-2.2-0.1-4.4-0.3-6.7-0.4l2.1-1.1c2.4,0.1,4.7,0.3,7,0.4L167.8,2.6z M98.3,1.7l-1.5-1.1c2.4-0.1,4.9-0.2,7.3-0.3
			l1.1,1.1C102.9,1.5,100.6,1.6,98.3,1.7L98.3,1.7z M147.4,1.5c-2.3-0.1-4.6-0.1-7-0.2l0.9-1.2c2.5,0.1,4.9,0.1,7.4,0.2L147.4,1.5z
			 M119.3,1.2L119,0c2.5,0,5,0,7.5,0l-0.1,1.2C124,1.2,121.6,1.2,119.3,1.2L119.3,1.2z"/>
	</g>
	
		<radialGradient id="Path_28_1_" cx="1022.8571" cy="1602.8859" r="0.903" gradientTransform="matrix(15.3972 0 0 -8.5349 -14133.8076 14484.7686)" gradientUnits="userSpaceOnUse">
		<stop  offset="4.200000e-02" style="stop-color:#0054FF"/>
		<stop  offset="1" style="stop-color:#000000"/>
	</radialGradient>
	<path id="Path_28" class="st14" d="M1581.8,731.5c0,4.3-6.2,7.7-13.9,7.7s-13.9-3.4-13.9-7.7s6.2-7.7,13.9-7.7
		S1581.8,727.2,1581.8,731.5z"/>
	
		<radialGradient id="Ellipse_6_1_" cx="1007.595" cy="1690.7103" r="1.094" gradientTransform="matrix(95.7927 0 0 -43.798 -94956.5859 74867.2266)" gradientUnits="userSpaceOnUse">
		<stop  offset="4.200000e-02" style="stop-color:#0054FF"/>
		<stop  offset="1" style="stop-color:#000000;stop-opacity:0"/>
	</radialGradient>
	<ellipse id="Ellipse_6" class="st15" cx="1574" cy="730" rx="104.8" ry="47.9"/>
	<ellipse id="Ellipse_8" class="st16" cx="1569.1" cy="731.6" rx="47" ry="8.2"/>
	<g id="Group_17" transform="translate(1284.172 454.05)">
		<path id="Path_31" class="st13" d="M281.3,221.4c0,0.6-0.4,1-1,1s-1-0.4-1-1s0.4-1,1-1S281.3,220.8,281.3,221.4z"/>
		<circle id="Ellipse_9" class="st13" cx="265.6" cy="74.3" r="1"/>
		<circle id="Ellipse_10" class="st13" cx="246.8" cy="219.4" r="1"/>
		<path id="Path_32" class="st13" d="M2,229.5c0,0.6-0.4,1-1,1s-1-0.4-1-1s0.4-1,1-1S2,229,2,229.5z"/>
		<circle id="Ellipse_11" class="st13" cx="282.4" cy="262.1" r="1"/>
		<circle id="Ellipse_12" class="st13" cx="287" cy="182.3" r="1"/>
		<path id="Path_33" class="st13" d="M346.5,213c0,0.6-0.4,1-1,1s-1-0.4-1-1s0.4-1,1-1S346.5,212.4,346.5,213z"/>
		<circle id="Ellipse_13" class="st13" cx="225.9" cy="1" r="1"/>
		<path id="Path_34" class="st13" d="M563.2,155.9c0,0.6-0.4,1-1,1s-1-0.4-1-1s0.4-1,1-1S563.2,155.4,563.2,155.9z"/>
		<circle id="Ellipse_14" class="st13" cx="280.2" cy="270.3" r="1"/>
		<path id="Path_35" class="st13" d="M307.3,224.7c0,0.1-0.1,0.3-0.3,0.3c-0.1,0-0.3-0.1-0.3-0.3s0.1-0.3,0.3-0.3l0,0
			C307.2,224.4,307.3,224.5,307.3,224.7z"/>
		<path id="Path_36" class="st13" d="M257.3,216.6c0,0.1-0.1,0.3-0.3,0.3c-0.1,0-0.3-0.1-0.3-0.3s0.1-0.3,0.3-0.3l0,0
			C257.2,216.3,257.3,216.4,257.3,216.6z"/>
		<path id="Path_37" class="st13" d="M314,200.7c0,0.1-0.1,0.3-0.3,0.3c-0.1,0-0.3-0.1-0.3-0.3s0.1-0.3,0.3-0.3l0,0
			C313.9,200.4,314,200.5,314,200.7z"/>
		<path id="Path_38" class="st13" d="M257.7,241c0,0.1-0.1,0.3-0.3,0.3c-0.1,0-0.3-0.1-0.3-0.3s0.1-0.3,0.3-0.3l0,0
			C257.6,240.7,257.7,240.9,257.7,241z"/>
		<path id="Path_39" class="st13" d="M223.9,228c0,0.1-0.1,0.3-0.3,0.3c-0.1,0-0.3-0.1-0.3-0.3s0.1-0.3,0.3-0.3l0,0
			C223.7,227.8,223.9,227.9,223.9,228z"/>
		<path id="Path_40" class="st13" d="M314.7,267.6c0,0.1-0.1,0.3-0.3,0.3c-0.1,0-0.3-0.1-0.3-0.3s0.1-0.3,0.3-0.3c0,0,0,0,0,0
			C314.6,267.3,314.7,267.5,314.7,267.6z"/>
		<circle id="Ellipse_15" class="st13" cx="295" cy="264" r="0.3"/>
		<path id="Path_41" class="st13" d="M271.9,245.5c0,0.3-0.2,0.5-0.5,0.5s-0.5-0.2-0.5-0.5c0-0.3,0.2-0.5,0.5-0.5c0,0,0,0,0,0
			C271.7,245,271.9,245.2,271.9,245.5C271.9,245.5,271.9,245.5,271.9,245.5z"/>
		<path id="Path_42" class="st13" d="M248.5,266.7c0,0.3-0.2,0.5-0.5,0.5s-0.5-0.2-0.5-0.5c0-0.3,0.2-0.5,0.5-0.5l0,0
			C248.3,266.2,248.5,266.4,248.5,266.7z"/>
		<path id="Path_43" class="st13" d="M298.7,250.2c0,0.3-0.2,0.5-0.5,0.5s-0.5-0.2-0.5-0.5c0-0.3,0.2-0.5,0.5-0.5
			C298.4,249.6,298.7,249.9,298.7,250.2C298.7,250.2,298.7,250.2,298.7,250.2z"/>
		<path id="Path_44" class="st13" d="M290.8,192.8c0,0.3-0.2,0.5-0.5,0.5s-0.5-0.2-0.5-0.5c0-0.3,0.2-0.5,0.5-0.5l0,0
			C290.5,192.3,290.8,192.5,290.8,192.8z"/>
		<path id="Path_45" class="st13" d="M339.9,246c0,0.3-0.2,0.5-0.5,0.5s-0.5-0.2-0.5-0.5c0-0.3,0.2-0.5,0.5-0.5l0,0
			C339.7,245.5,339.9,245.7,339.9,246C339.9,246,339.9,246,339.9,246z"/>
	</g>
</g>
</svg>
