<svg xmlns="http://www.w3.org/2000/svg" xmlns:xlink="http://www.w3.org/1999/xlink" width="871.329" height="886" viewBox="0 0 871.329 886">
  <defs>
    <radialGradient id="radial-gradient" cx="0.5" cy="0.5" r="2.841" gradientTransform="translate(-0.458 -0.333) scale(0.176 0.176)" gradientUnits="objectBoundingBox">
      <stop offset="0.86"/>
      <stop offset="0.905" stop-color="#1e1b43"/>
      <stop offset="0.958" stop-color="#453d98"/>
    </radialGradient>
    <radialGradient id="radial-gradient-2" cx="0.5" cy="0.5" r="2.841" gradientTransform="translate(-0.615 -0.468) scale(0.176 0.176)" gradientUnits="objectBoundingBox">
      <stop offset="0.637"/>
      <stop offset="0.784" stop-color="#1e1b43"/>
      <stop offset="0.958" stop-color="#453d98"/>
    </radialGradient>
    <linearGradient id="linear-gradient" x1="0.5" y1="1" x2="0.398" y2="0.213" gradientUnits="objectBoundingBox">
      <stop offset="0.042" stop-color="#451d98"/>
      <stop offset="0.561" stop-color="#1e0c43"/>
      <stop offset="1"/>
    </linearGradient>
    <linearGradient id="linear-gradient-2" x1="0.5" y1="1" x2="0.5" y2="0.229" gradientUnits="objectBoundingBox">
      <stop offset="0" stop-color="#451d98"/>
      <stop offset="0.042" stop-color="#451d98"/>
      <stop offset="0.423" stop-color="#1e0c43"/>
      <stop offset="1"/>
    </linearGradient>
    <linearGradient id="linear-gradient-3" x1="0.207" y1="1.713" x2="0.207" y2="0.677" xlink:href="#linear-gradient"/>
    <linearGradient id="linear-gradient-4" x1="2.799" y1="0.376" x2="2.799" y2="-0.644" xlink:href="#linear-gradient"/>
    <radialGradient id="radial-gradient-3" cx="0.5" cy="0.5" r="0.903" gradientTransform="translate(1.927 4.946) scale(0.553 0.554)" gradientUnits="objectBoundingBox">
      <stop offset="0.042" stop-color="#0054ff"/>
      <stop offset="1"/>
    </radialGradient>
    <radialGradient id="radial-gradient-4" cx="0.5" cy="0.5" r="0.903" gradientTransform="translate(1.684 3.875) scale(0.554 0.554)" xlink:href="#radial-gradient-3"/>
    <radialGradient id="radial-gradient-5" cx="0.5" cy="0.5" r="0.903" gradientTransform="translate(0.936 3.201) scale(0.554 0.554)" xlink:href="#radial-gradient-3"/>
    <radialGradient id="radial-gradient-6" cx="0.5" cy="0.5" r="0.903" gradientTransform="translate(1.972 5.058) scale(0.554 0.554)" xlink:href="#radial-gradient-3"/>
    <radialGradient id="radial-gradient-7" cx="0.5" cy="0.5" r="1.094" gradientTransform="translate(0.222 1.185) scale(0.457 0.457)" xlink:href="#radial-gradient-3"/>
    <radialGradient id="radial-gradient-8" cx="0.5" cy="0.5" r="0.903" gradientTransform="translate(1.623 3.619) scale(0.554 0.554)" xlink:href="#radial-gradient-3"/>
    <radialGradient id="radial-gradient-9" cx="0.5" cy="0.5" r="0.903" gradientTransform="translate(2.768 6.244) scale(0.554 0.554)" xlink:href="#radial-gradient-3"/>
    <radialGradient id="radial-gradient-10" cx="0.5" cy="0.5" r="1.471" gradientTransform="translate(-5.031 12.661) scale(0.34 0.34)" xlink:href="#radial-gradient-3"/>
  </defs>
  <g id="Group_18" data-name="Group 18" transform="translate(-1284.172 -207.467)" opacity="0.81">
    <ellipse id="Ellipse_1" data-name="Ellipse 1" cx="414.835" cy="73.014" rx="414.835" ry="73.014" transform="translate(1306.207 947.44)" opacity="0.2" fill="url(#radial-gradient)" style="mix-blend-mode: screen;isolation: isolate"/>
    <ellipse id="Ellipse_2" data-name="Ellipse 2" cx="351.44" cy="61.856" rx="351.44" ry="61.856" transform="translate(1369.602 907.971)" opacity="0.2" fill="url(#radial-gradient-2)" style="mix-blend-mode: screen;isolation: isolate"/>
    <g id="Group_2" data-name="Group 2" transform="translate(1363.44 207.467)">
      <path id="Path_1" data-name="Path 1" d="M1628.291,948.411,1336.723,453.265l754.433-191.322L1769.388,946.48s-7.557,56.737-71.8,56.737S1628.291,948.411,1628.291,948.411Z" transform="translate(-1336.723 -179.772)" opacity="0.85" fill="url(#linear-gradient)" style="mix-blend-mode: screen;isolation: isolate"/>
      <path id="Path_2" data-name="Path 2" d="M1605.186,976.106l-127.7-768.639,328.673,82.171L1666.45,974.175s-3.281,56.737-31.176,56.737S1605.186,976.106,1605.186,976.106Z" transform="translate(-1265.158 -207.467)" opacity="0.85" fill="url(#linear-gradient-2)" style="mix-blend-mode: screen;isolation: isolate"/>
      <path id="Path_3" data-name="Path 3" d="M1626.71,915.838,1353.363,353.819l63.437-50.887L1636.386,890.3s6.244,50.436,1.733,61.3S1626.71,915.838,1626.71,915.838Z" transform="translate(-1328.263 -158.933)" opacity="0.85" fill="url(#linear-gradient-3)" style="mix-blend-mode: screen;isolation: isolate"/>
      <path id="Path_4" data-name="Path 4" d="M1611.143,897.907l214.224-615.671,16.65,138.27L1616.525,909.671s-7.457,47.416-9.8,41.315S1611.143,897.907,1611.143,897.907Z" transform="translate(-1199.704 -169.455)" opacity="0.15" fill="url(#linear-gradient-4)" style="mix-blend-mode: screen;isolation: isolate"/>
    </g>
    <g id="Group_15" data-name="Group 15" transform="translate(1379.791 958.592)" opacity="0.8">
      <g id="Group_3" data-name="Group 3" transform="translate(219.746 38.126)" opacity="0.5">
        <path id="Path_5" data-name="Path 5" d="M1555.607,771.2c-36.532-3.659-59.844-10.2-62.362-17.484l31.906-.332c1.872,5.423,19.229,10.287,46.434,13.011Zm131.268-.694-17.627-4.626c26.171-3,41.793-8.041,41.793-13.478v-.059H1743v.059C1743,759.7,1722.022,766.47,1686.875,770.5Zm-115.538-32.074-16.063-4.8c18.977-1.914,40.672-2.926,62.733-2.926h.006c19.567,0,38.31.763,55.711,2.269l-14.262,4.964c-12.932-1.119-26.877-1.686-41.449-1.686h0C1601.579,736.252,1585.443,737.005,1571.336,738.427Z" transform="translate(-1493.245 -730.706)" fill="#1b60f6"/>
      </g>
      <g id="Group_4" data-name="Group 4" transform="translate(178.141 30.945)">
        <path id="Path_6" data-name="Path 6" d="M1632.035,783.691c-91.739,0-166.372-12.953-166.372-28.872s74.633-28.874,166.372-28.874,166.373,12.953,166.373,28.874S1723.772,783.691,1632.035,783.691Zm0-57.527c-91.043,0-165.111,12.855-165.111,28.655s74.068,28.653,165.111,28.653,165.11-12.854,165.11-28.653S1723.077,726.164,1632.035,726.164Z" transform="translate(-1465.663 -725.945)" fill="#1b60f6"/>
      </g>
      <g id="Group_5" data-name="Group 5" transform="translate(271.211 47.097)">
        <path id="Path_7" data-name="Path 7" d="M1600.666,762.095c-40.419,0-73.3-5.706-73.3-12.72s32.883-12.722,73.3-12.722,73.3,5.706,73.3,12.722S1641.085,762.095,1600.666,762.095Zm0-25.223c-39.724,0-72.039,5.608-72.039,12.5s32.316,12.5,72.039,12.5,72.041-5.608,72.041-12.5S1640.39,736.872,1600.666,736.872Z" transform="translate(-1527.364 -736.653)" fill="#1b60f6"/>
      </g>
      <g id="Group_6" data-name="Group 6" transform="translate(83.989 14.605)" opacity="0.5">
        <path id="Path_8" data-name="Path 8" d="M1663.768,805.539c-69.588,0-135.012-4.7-184.217-13.242s-76.307-19.894-76.307-31.97,27.1-23.431,76.307-31.972,114.629-13.242,184.217-13.242,135.012,4.7,184.217,13.242,76.307,19.894,76.307,31.972-27.1,23.43-76.307,31.97S1733.356,805.539,1663.768,805.539Zm0-90.28c-143.189,0-259.682,20.217-259.682,45.068s116.493,45.066,259.682,45.066,259.682-20.217,259.682-45.066S1806.957,715.258,1663.768,715.258Z" transform="translate(-1403.244 -715.112)" fill="#1b60f6"/>
      </g>
      <g id="Group_7" data-name="Group 7" transform="translate(66.074 11.496)" opacity="0.5">
        <path id="Path_9" data-name="Path 9" d="M1669.806,809.7c-153.532,0-278.439-21.677-278.439-48.321s124.907-48.323,278.439-48.323,278.44,21.677,278.44,48.323S1823.338,809.7,1669.806,809.7Zm0-95.184c-148.894,0-270.028,21.023-270.028,46.863s121.135,46.863,270.028,46.863,270.028-21.023,270.028-46.863S1818.7,714.511,1669.806,714.511Z" transform="translate(-1391.367 -713.051)" fill="#1b60f6"/>
      </g>
      <g id="Group_8" data-name="Group 8" transform="translate(190.352 33.064)" style="mix-blend-mode: soft-light;isolation: isolate">
        <path id="Path_10" data-name="Path 10" d="M1627.919,780.859c-6.552,0-13.152-.072-19.615-.216l1.271-1.738c6.044.133,12.215.2,18.344.2,33.035,0,64.109-1.887,89.859-5.457l6.3,1.368C1696.52,778.838,1663.268,780.859,1627.919,780.859Zm-34.209-.662c-40.374-1.587-75.936-6.034-97.565-12.2l8.622-.911c20.215,5.764,53.447,9.919,91.173,11.4Zm141.489-6.88-7.024-1.258c28.252-4.751,43.813-11.129,43.813-17.954l0-.056h10.093v.042C1782.08,761.408,1765.43,768.232,1735.2,773.317Zm-246.14-7.578c-10.153-3.644-15.3-7.558-15.3-11.634,0-3.166,3.157-6.266,9.384-9.213l9.476.6c-5.818,2.753-8.767,5.649-8.767,8.61,0,3.81,4.81,7.468,14.3,10.871ZM1771.3,751.65c-3.748-6.684-23.345-12.924-53.764-17.123l6.285-1.371c32.545,4.494,53.512,11.173,57.526,18.324Zm-273.293-8.369-9.1-.759c18-6.5,50.881-11.529,90.205-13.8l3.193,1.662C1545.56,732.507,1514.834,737.209,1498.008,743.282ZM1706.3,733.121a716.552,716.552,0,0,0-78.381-4.02c-10.9,0-21.757.213-32.281.631l-2.25-1.708c11.26-.448,22.878-.674,34.532-.674a766.255,766.255,0,0,1,83.88,4.3Z" transform="translate(-1473.758 -727.35)" fill="#1b60f6"/>
      </g>
      <g id="Group_10" data-name="Group 10" transform="translate(219.464 37.924)">
        <g id="Group_9" data-name="Group 9">
          <path id="Path_11" data-name="Path 11" d="M1555.721,771.468l-.041,0c-36.612-3.667-59.989-10.253-62.531-17.617l-.092-.266.281,0,32.052-.332.047.137c1.844,5.346,19.138,10.159,46.262,12.877l1.011.1Zm-62.09-17.49c2.958,7.1,26.067,13.473,62.051,17.081l14.971-4.5c-26.483-2.729-43.436-7.531-45.546-12.906Zm193.325,16.8-.036-.009-18.667-4.9,1.067-.124c26.057-2.99,41.614-7.952,41.614-13.277v-.26H1743.3v.26c0,7.417-21.048,14.259-56.306,18.3Zm-16.528-4.754,16.556,4.344c34.777-3.993,55.633-10.622,55.909-17.755h-31.56C1711.069,758.028,1695.845,763.016,1670.428,766.021Zm-99.017-27.32-.038-.011-17.039-5.086,1.014-.1c18.986-1.917,40.686-2.929,62.752-2.929,19.574,0,38.324.763,55.735,2.269l.938.083-15.194,5.288-.042,0c-12.919-1.119-26.857-1.686-41.433-1.686-16.431,0-32.562.751-46.653,2.174Zm-15.005-4.9,15.046,4.491c14.095-1.419,30.224-2.171,46.65-2.171,14.572,0,28.51.567,41.428,1.683l13.33-4.641c-17.133-1.451-35.548-2.187-54.755-2.187C1596.44,730.975,1575.134,731.952,1556.406,733.8Z" transform="translate(-1493.058 -730.572)" fill="#1b60f6"/>
        </g>
      </g>
      <g id="Group_11" data-name="Group 11" transform="translate(32.933 6.026)" opacity="0.71">
        <path id="Path_12" data-name="Path 12" d="M1712.652,817.014l-1.352-2.323c42.187-.739,82.172-2.984,118.839-6.669l6.745,2.021C1798.551,813.9,1756.752,816.242,1712.652,817.014Zm-187.3-6.942c-37.785-3.788-71.3-9.037-96.931-15.181l10.9-1.37c24.527,5.88,56.6,10.9,92.762,14.529Zm439.917-24.7L1953,784.419c17.316-6.682,26.1-13.815,26.1-21.2l0-.118h13.458v.109C1992.556,770.936,1983.376,778.392,1965.274,785.377Zm-582.42-22.1H1369.4v-.057c0-7.7,9.132-15.137,27.141-22.106l12.28.955c-17.228,6.667-25.963,13.782-25.963,21.151Zm539.578-30.411c-24.564-5.875-56.673-10.892-92.855-14.511l6.719-2.023c37.809,3.78,71.361,9.023,97.027,15.161Zm-390.91-14.425-6.755-2.02c38.312-3.86,80.094-6.213,124.188-6.995l1.367,2.323C1608.141,712.5,1568.172,714.747,1531.523,718.439Z" transform="translate(-1369.396 -709.425)" fill="#1b60f6"/>
      </g>
      <g id="Group_12" data-name="Group 12" transform="translate(159.267 27.673)">
        <path id="Path_13" data-name="Path 13" d="M1638.548,788.079h-1.317l.012-.584,1.152,0c1.759,0,3.664,0,5.489-.014l.1.584Q1641.276,788.079,1638.548,788.079Zm-16.5-.124c-2.24-.035-4.5-.075-6.718-.124l.413-.579c2.178.047,4.4.088,6.6.121Zm37.1-.075-.374-.581c2.207-.042,4.421-.093,6.58-.148l.493.578C1663.646,787.785,1661.393,787.836,1659.144,787.88Zm-58.809-.481c-2.2-.078-4.418-.168-6.59-.259l.809-.567c2.133.092,4.309.178,6.469.256Zm80.437-.164-.769-.569c2.148-.088,4.311-.182,6.433-.284l.887.564C1685.161,787.049,1682.955,787.145,1680.771,787.234Zm-101.616-.834c-2.149-.125-4.3-.26-6.385-.4l1.2-.546c2.048.136,4.154.265,6.263.389Zm122.654-.255-1.154-.548c2.086-.133,4.169-.271,6.192-.415l1.269.541C1706.053,785.871,1703.931,786.012,1701.809,786.145Zm-143.024-1.178c-2.038-.167-4.074-.344-6.058-.525l1.558-.517c1.946.177,3.947.35,5.945.516Zm163.158-.335-1.522-.52c1.984-.175,3.954-.356,5.856-.538l1.626.511C1725.966,784.27,1723.96,784.454,1721.943,784.632Zm-182.394-1.507c-1.89-.207-3.79-.424-5.651-.644l1.9-.483c1.827.217,3.694.43,5.548.634Zm201.338-.41-1.86-.486c1.822-.21,3.657-.43,5.449-.655l1.964.475C1744.613,782.277,1742.745,782.5,1740.887,782.715ZM1521.71,780.9c-1.75-.247-3.489-.5-5.169-.756l2.214-.44c1.65.25,3.358.5,5.074.742Zm236.7-.48-2.181-.445c1.668-.246,3.34-.5,4.973-.762l2.27.43C1761.811,779.911,1760.107,780.172,1758.41,780.424Zm-252.9-2.092c-1.572-.281-3.125-.569-4.62-.855l2.5-.391c1.468.282,2.994.564,4.534.839Zm268.751-.543-2.468-.4c1.492-.279,2.98-.569,4.425-.86l2.546.382C1777.29,777.211,1775.776,777.5,1774.259,777.788Zm-283.093-2.339c-1.365-.309-2.714-.626-4.005-.943l2.742-.338c1.269.311,2.593.621,3.934.926Zm297.05-.6-2.717-.344c1.3-.308,2.579-.626,3.812-.943l2.791.326C1790.845,774.211,1789.538,774.533,1788.216,774.847Zm-309.334-2.554c-1.141-.333-2.261-.676-3.332-1.017L1478.5,771c1.051.335,2.152.671,3.273,1Zm321.2-.653-2.934-.287c1.089-.336,2.146-.677,3.143-1.015l2.993.267C1802.271,770.949,1801.194,771.3,1800.085,771.64Zm-331.248-2.729c-.9-.353-1.777-.715-2.613-1.078l3.125-.217c.82.357,1.683.713,2.566,1.059Zm340.841-.7-3.109-.222c.849-.357,1.668-.72,2.43-1.075l3.154.2C1811.377,767.479,1810.545,767.848,1809.678,768.21Zm-348.495-2.866c-.66-.374-1.286-.754-1.86-1.128l3.252-.149c.563.366,1.175.739,1.824,1.107Zm355.668-.736-3.24-.158c.59-.365,1.153-.739,1.672-1.115l3.271.137C1818.025,763.854,1817.45,764.236,1816.851,764.608Zm-360.828-2.967a13.661,13.661,0,0,1-1.073-1.157l3.331-.083a13.134,13.134,0,0,0,1.054,1.137Zm365.475-.756-3.324-.091a10.941,10.941,0,0,0,.9-1.14l3.343.068A11.578,11.578,0,0,1,1821.5,760.885Zm-368.068-3.026a6.37,6.37,0,0,1-.281-1.172l3.364-.014a6.326,6.326,0,0,0,.275,1.151Zm370.14-.766-3.361-.021a5.563,5.563,0,0,0,.119-1.151l0-.068h3.364l0,.063A5.689,5.689,0,0,1,1823.571,757.093Zm-366.806-3.009-3.358-.033a7.039,7.039,0,0,1,.51-1.169l3.347.054A7.262,7.262,0,0,0,1456.766,754.084Zm362.931-.819a8.754,8.754,0,0,0-.671-1.145l3.341-.069a8.821,8.821,0,0,1,.682,1.166Zm-360.431-2.895-3.312-.1c.392-.385.831-.772,1.3-1.151l3.288.124C1460.081,749.612,1459.651,749.992,1459.265,750.37Zm357.376-.807c-.44-.373-.929-.751-1.45-1.124l3.269-.137c.531.38,1.028.765,1.475,1.145Zm-352.357-2.83-3.221-.171c.662-.377,1.365-.754,2.092-1.119l3.18.19C1465.625,745.993,1464.934,746.363,1464.285,746.734Zm346.791-.783c-.711-.368-1.454-.733-2.211-1.086l3.151-.2c.772.358,1.529.73,2.25,1.106Zm-339.3-2.73-3.079-.235c.9-.358,1.861-.715,2.839-1.066l3.03.255C1473.605,742.518,1472.668,742.871,1471.777,743.221Zm331.295-.741c-.938-.344-1.925-.691-2.931-1.03l2.99-.267c1.024.344,2.029.7,2.984,1.048Zm-321.45-2.59-2.9-.3c1.14-.335,2.333-.671,3.545-1l2.833.315C1483.912,739.231,1482.742,739.561,1481.622,739.89Zm311.132-.689c-1.174-.326-2.388-.65-3.614-.964l2.786-.327c1.247.32,2.486.65,3.68.982Zm-299.088-2.415-2.674-.354c1.368-.311,2.78-.62,4.2-.92l2.6.371C1496.4,736.176,1495.009,736.48,1493.667,736.786Zm286.607-.632c-1.374-.3-2.8-.594-4.246-.884l2.543-.382c1.471.294,2.926.6,4.325.9Zm-272.543-2.2-2.415-.406c1.564-.281,3.177-.56,4.789-.828l2.329.422C1510.851,733.4,1509.27,733.675,1507.731,733.95Zm258.077-.567c-1.576-.269-3.2-.535-4.821-.792l2.267-.432c1.653.261,3.3.533,4.91.806Zm-242.193-1.961-2.122-.453c1.747-.247,3.536-.49,5.312-.723l2.027.465C1527.088,730.941,1525.334,731.179,1523.616,731.422Zm225.944-.5c-1.74-.234-3.532-.465-5.326-.688l1.958-.475c1.828.228,3.653.463,5.424.7ZM1541.1,729.236l-1.8-.493c1.869-.205,3.807-.41,5.759-.608l1.7.5C1544.835,728.834,1542.931,729.034,1541.1,729.236Zm190.655-.422c-1.89-.2-3.828-.389-5.762-.573l1.623-.513c1.97.189,3.943.386,5.866.585Zm-171.818-1.388-1.453-.528c2.021-.167,4.085-.33,6.133-.486l1.341.536C1563.943,727.1,1561.917,727.26,1559.932,727.426Zm152.69-.341c-2.024-.157-4.082-.309-6.121-.452l1.263-.542c2.074.146,4.172.3,6.233.462Zm-132.761-1.069-1.082-.552c2.136-.127,4.3-.246,6.439-.357l.962.56C1584.085,725.775,1581.959,725.892,1579.861,726.016Zm112.573-.253c-2.107-.113-4.251-.222-6.37-.321l.881-.563c2.159.1,4.341.211,6.489.327Zm-91.791-.734-.7-.572c2.207-.081,4.439-.155,6.639-.222l.573.576C1605,724.874,1602.808,724.948,1600.644,725.028Zm70.87-.16c-2.172-.07-4.376-.131-6.546-.187l.485-.578c2.213.056,4.456.121,6.669.192Zm-49.56-.394-.3-.582c2.24-.035,4.509-.063,6.741-.083l.178.582C1626.38,724.412,1624.152,724.44,1621.955,724.474Zm28.174-.063c-2.207-.024-4.438-.041-6.629-.051l.092-.584c2.234.011,4.5.029,6.75.053Z" transform="translate(-1453.15 -723.776)" fill="#1b60f6"/>
      </g>
      <g id="Group_13" data-name="Group 13" transform="translate(102.234 17.701)" opacity="0.2">
        <path id="Path_14" data-name="Path 14" d="M1663.378,801.445l-1.177-8.756q3-.011,5.972-.041l2.7,8.746C1668.379,801.418,1665.859,801.434,1663.378,801.445Zm-44.9-.534c-2.45-.069-4.943-.146-7.411-.229l9.613-8.6q2.916.1,5.86.181Zm96.984-.658-12-8.507q2.906-.124,5.773-.261l13.5,8.438C1720.349,800.038,1717.9,800.149,1715.462,800.253Zm-147.673-1.774c-2.33-.161-4.675-.33-6.967-.5l20.12-8.032q2.733.206,5.512.4Zm197.06-1.342-22.273-7.859q2.659-.226,5.271-.468l23.7,7.732C1769.326,796.748,1767.072,796.948,1764.849,797.137ZM1521.336,794.2c-2.075-.244-4.146-.5-6.162-.75l29.617-7.092q2.414.305,4.884.6Zm287.859-1.956-31.518-6.841q2.335-.324,4.613-.659l32.688,6.673C1813.1,791.7,1811.158,791.977,1809.2,792.248Zm-327.9-3.943c-1.745-.32-3.462-.644-5.1-.962l37.692-5.825q1.975.385,4.021.76Zm365.163-2.478-39.215-5.512c1.254-.268,2.489-.542,3.7-.818L1851.1,784.8C1849.607,785.144,1848.047,785.488,1846.462,785.827Zm-397-4.77c-1.294-.371-2.566-.751-3.786-1.127l43.992-4.291q1.455.448,2.988.89Zm425.491-2.889-45.117-3.925q1.339-.464,2.6-.935l45.787,3.682C1877.174,777.385,1876.073,777.781,1874.957,778.169Zm-447.618-5.382c-.8-.413-1.578-.833-2.3-1.246l48.3-2.54q.864.5,1.813.982Zm465.931-3.169-48.922-2.15q.724-.5,1.356-1l49.3,1.872C1894.462,768.773,1893.877,769.2,1893.27,769.618Zm-477.235-5.74a10.578,10.578,0,0,1-.7-1.3l50.316-.676a8.48,8.48,0,0,0,.552,1.03Zm484.481-3.293-50.444-.27a5.793,5.793,0,0,0,.092-1.033l0-.081h50.467l0,.081A7.569,7.569,0,0,1,1900.517,760.586ZM1466.164,755.7l-50.184-.926a13.088,13.088,0,0,1,.911-1.3l49.994,1.2A10.041,10.041,0,0,0,1466.164,755.7Zm380.649-2.661q-.55-.509-1.193-1.011l49.273-1.895c.541.427,1.051.857,1.513,1.282Zm-371.789-4.393-47.846-2.786c.8-.412,1.643-.828,2.512-1.235l47.323,3.044Q1475.974,748.154,1475.024,748.645Zm359.685-2.507q-1.179-.475-2.433-.944l45.749-3.7c1.029.383,2.057.781,3.054,1.184Zm-342.226-4.052-43.253-4.513c1.3-.376,2.644-.75,3.991-1.112l42.405,4.749Q1494.015,741.645,1492.482,742.087Zm321.786-2.242q-1.733-.419-3.543-.83l40.1-5.319c1.522.345,3.023.7,4.467,1.048Zm-296.591-3.516L1481,730.314c1.7-.314,3.472-.628,5.252-.935l35.583,6.21Q1519.723,735.955,1517.677,736.329Zm268.838-1.872q-2.217-.346-4.5-.682l32.624-6.684c1.892.279,3.8.567,5.655.858Zm-237.138-2.816-28.4-7.24c2.084-.246,4.2-.487,6.275-.716l27.091,7.39Q1551.832,731.35,1549.378,731.641Zm203.386-1.418q-2.595-.258-5.239-.5l23.593-7.743c2.2.2,4.417.413,6.6.629Zm-166.673-1.978-18.75-8.13c2.328-.163,4.694-.32,7.031-.468l17.278,8.23Q1588.851,728.054,1586.09,728.246Zm128.474-.9q-2.832-.152-5.7-.288l13.389-8.445c2.419.116,4.854.24,7.234.367Zm-88.408-1.041-8.177-8.643c2.453-.069,4.955-.134,7.438-.192l6.631,8.684Q1629.091,726.226,1626.156,726.309Zm47.572-.329q-2.967-.04-5.957-.069l2.613-8.746c2.475.023,5,.051,7.491.088Z" transform="translate(-1415.34 -717.165)" fill="#1b60f6"/>
      </g>
      <g id="Group_14" data-name="Group 14" style="mix-blend-mode: soft-light;isolation: isolate">
        <path id="Path_15" data-name="Path 15" d="M1676.79,825.008c-6.849-.053-13.766-.14-20.555-.262l1.9-3.195c6.429.116,12.975.2,19.46.247Zm41.2-.109-1.369-3.2c6.451-.083,12.981-.2,19.4-.352l2.468,3.184C1731.7,824.687,1724.8,824.81,1717.985,824.9Zm-102.42-1.314c-6.69-.263-13.405-.564-19.962-.895l5.171-3.085c6.2.314,12.554.6,18.882.848Zm163.37-.436-4.652-3.109c6.261-.282,12.559-.6,18.722-.949l5.721,3.054C1792.21,822.513,1785.552,822.851,1778.935,823.15Zm-222.172-2.87c-6.294-.468-12.6-.973-18.733-1.505l8.277-2.873c5.807.505,11.77.983,17.728,1.425Zm280.331-.751-7.794-2.913c5.857-.472,11.716-.982,17.416-1.514l8.786,2.825C1849.477,818.49,1843.283,819.03,1837.094,819.528Zm-334.766-4.335c-5.714-.655-11.389-1.348-16.864-2.062l11.1-2.569c5.183.674,10.553,1.33,15.962,1.952Zm388.2-1.032-10.669-2.625c5.289-.647,10.536-1.33,15.6-2.032l11.548,2.509C1901.66,812.755,1896.118,813.478,1890.532,814.161Zm-436.511-5.655c-4.951-.821-9.821-1.677-14.476-2.548l13.555-2.186c4.408.824,9.019,1.634,13.7,2.412Zm483.6-1.279-13.178-2.255c4.546-.8,9.013-1.635,13.277-2.481l13.93,2.113C1947.144,805.5,1942.423,806.381,1937.617,807.227Zm-524.279-6.786c-4.036-.961-7.951-1.955-11.632-2.952l15.58-1.733c3.483.944,7.186,1.884,11.007,2.794Zm563.544-1.492-15.278-1.812c3.656-.929,7.2-1.89,10.527-2.855l15.876,1.65C1984.49,796.952,1980.746,797.967,1976.882,798.949Zm-595.3-7.7c-2.979-1.069-5.806-2.168-8.4-3.263l17.113-1.22c2.456,1.035,5.128,2.074,7.948,3.085Zm625.447-1.668-16.9-1.306c2.644-1.03,5.137-2.084,7.414-3.138l17.325,1.128C2012.462,787.38,2009.826,788.494,2007.032,789.582Zm-647.205-8.363a48.917,48.917,0,0,1-4.89-3.475l18.1-.668a46.147,46.147,0,0,0,4.628,3.288Zm667.183-1.793-17.979-.76a35.8,35.8,0,0,0,4.033-3.311l18.212.569A37.705,37.705,0,0,1,2027.009,779.426ZM1348.8,770.67a12.5,12.5,0,0,1-1.235-3.57l18.5-.1a11.764,11.764,0,0,0,1.169,3.38Zm687.347-1.848-18.472-.188a10.5,10.5,0,0,0,.573-3.385v-.125h18.5v.125A11.083,11.083,0,0,1,2036.145,768.822Zm-668.978-8.587-18.434-.282a18.207,18.207,0,0,1,2.413-3.552l18.3.471A17.186,17.186,0,0,0,1367.168,760.234Zm648.7-1.866a22.339,22.339,0,0,0-2.925-3.346l18.206-.578a23.714,23.714,0,0,1,3.088,3.539Zm-638.386-8.12-17.846-.849c1.812-1.148,3.847-2.3,6.049-3.423l17.517,1.035C1381.116,748.074,1379.191,749.163,1377.477,750.249Zm626.17-1.8c-1.922-1.074-4.053-2.151-6.338-3.2l17.31-1.134c2.415,1.11,4.67,2.247,6.7,3.383Zm-605.684-7.7-16.677-1.392c2.968-1.071,6.165-2.14,9.5-3.18l16.164,1.563C1403.8,738.719,1400.772,739.731,1397.963,740.745Zm583.395-1.673c-3-.994-6.206-1.986-9.541-2.949l15.859-1.655c3.524,1.017,6.915,2.065,10.082,3.116Zm-553.409-7.044-14.974-1.885c4.019-.961,8.262-1.914,12.609-2.833l14.3,2.038C1435.768,730.216,1431.752,731.118,1427.948,732.027Zm521.817-1.486c-3.962-.885-8.141-1.763-12.424-2.611l13.911-2.118c4.523.9,8.939,1.824,13.125,2.757Zm-483.374-6.162-12.8-2.318c4.943-.822,10.09-1.629,15.3-2.4l11.989,2.447C1475.942,722.838,1471.07,723.6,1466.391,724.38Zm443.523-1.264c-4.824-.751-9.839-1.487-14.906-2.187l11.523-2.513c5.353.739,10.651,1.517,15.746,2.311Zm-397.883-5.076-10.229-2.678c5.7-.656,11.589-1.291,17.5-1.885l9.287,2.777C1523,716.818,1517.426,717.419,1512.031,718.04Zm351.053-1c-5.513-.59-11.206-1.16-16.917-1.691l8.752-2.83c6.038.563,12.055,1.164,17.884,1.789Zm-299.67-3.819-7.308-2.952c6.276-.468,12.717-.908,19.146-1.311l6.272,3.021C1575.442,712.355,1569.35,712.773,1563.414,713.216Zm247.334-.712c-6.047-.41-12.24-.793-18.408-1.139l5.683-3.056c6.519.365,13.067.771,19.46,1.2Zm-191.807-2.435-4.13-3.13c6.667-.265,13.473-.5,20.226-.694l3.039,3.168C1631.689,709.6,1625.25,709.819,1618.941,710.07Zm135.6-.391c-6.347-.214-12.824-.4-19.252-.544l2.429-3.184c6.794.157,13.639.35,20.348.576Zm-77.679-.978-.848-3.207c6.821-.054,13.775-.075,20.609-.06l-.237,3.211C1689.91,708.632,1683.326,708.65,1676.867,708.7Z" transform="translate(-1347.563 -705.43)" fill="#1b60f6"/>
      </g>
      <path id="Path_16" data-name="Path 16" d="M1711.123,779.083l-10.668-2.624,15.6-2.033,11.548,2.509Z" transform="translate(-1168.154 -670.352)" fill="#1bb6f6"/>
      <path id="Path_17" data-name="Path 17" d="M1703.549,746.121l.092-1.034h50.466l-.115,1.3Z" transform="translate(-1166.581 -685.268)" fill="#1bb6f6"/>
      <path id="Path_18" data-name="Path 18" d="M1468,755.361l2.954-.279,3.272,1-2.895.3Z" transform="translate(-1286.333 -680.187)" fill="#1bb6f6"/>
      <path id="Path_19" data-name="Path 19" d="M1557.858,726.2l-8.178-8.643,7.439-.191,6.63,8.682Z" transform="translate(-1244.807 -699.359)" fill="#1bb6f6"/>
      <path id="Path_20" data-name="Path 20" d="M1466.049,777.079l-10.2,2.68-16.864-2.061,11.1-2.569Z" transform="translate(-1301.083 -669.996)" fill="#1bb6f6"/>
      <path id="Path_21" data-name="Path 21" d="M1512,784.208l5.172-3.084,18.882.847-4.09,3.132Z" transform="translate(-1263.962 -666.947)" fill="#1bb6f6"/>
      <path id="Path_22" data-name="Path 22" d="M1511.788,773.447l6.967.5,18.665-8.137-5.512-.4Z" transform="translate(-1264.071 -674.934)" fill="#1bb6f6"/>
      <path id="Path_23" data-name="Path 23" d="M1505.461,781.728l6.732-2.021s-50.423-4.916-92.762-14.529l-10.9,1.37A713.508,713.508,0,0,0,1505.461,781.728Z" transform="translate(-1316.568 -675.054)" fill="#1bb6f6"/>
      <path id="Path_24" data-name="Path 24" d="M1458.728,749.194l-1.053-1.137-3.331.082,1.073,1.158Z" transform="translate(-1293.276 -683.758)" fill="#1bb6f6"/>
      <path id="Path_25" data-name="Path 25" d="M1730.006,772.259l13.277-2.482,13.931,2.114-14.029,2.623Z" transform="translate(-1153.13 -672.716)" fill="#1bb6f6"/>
      <path id="Path_26" data-name="Path 26" d="M1609.93,726.572l5.706.289,14.918-8.367-7.235-.367Z" transform="translate(-1214.176 -698.974)" fill="#1bb6f6"/>
    </g>
    <g id="Group_16" data-name="Group 16" transform="translate(1543.24 951.927)">
      <path id="Path_27" data-name="Path 27" d="M1640.445,768.03c-3.839-.029-7.715-.078-11.52-.146l1.065-1.79c3.6.065,7.272.112,10.907.139Zm23.089-.06-.768-1.795c3.617-.047,7.275-.113,10.874-.2l1.383,1.783C1671.221,767.851,1667.355,767.92,1663.534,767.97Zm-57.4-.736c-3.748-.146-7.513-.317-11.188-.5l2.9-1.729c3.477.175,7.037.335,10.583.475Zm91.564-.244-2.606-1.742c3.508-.158,7.038-.336,10.492-.531l3.207,1.711C1705.135,766.633,1701.4,766.822,1697.695,766.99Zm-124.52-1.608c-3.53-.262-7.062-.546-10.5-.845l4.638-1.609c3.255.282,6.6.551,9.936.8Zm157.116-.421-4.368-1.634c3.282-.264,6.566-.549,9.762-.849l4.923,1.584C1737.231,764.378,1733.76,764.68,1730.291,764.961Zm-187.626-2.43c-3.2-.368-6.384-.756-9.452-1.155l6.222-1.441c2.905.379,5.915.747,8.947,1.094Zm217.577-.579-5.979-1.471c2.964-.362,5.9-.745,8.74-1.139l6.474,1.406C1766.479,761.164,1763.372,761.568,1760.242,761.951Zm-244.653-3.169c-2.774-.46-5.5-.94-8.112-1.427l7.6-1.226c2.469.461,5.055.917,7.681,1.351Zm271.042-.716-7.385-1.264c2.548-.448,5.052-.917,7.441-1.391l7.807,1.184C1791.971,757.1,1789.325,757.591,1786.631,758.066Zm-293.843-3.8c-2.263-.539-4.456-1.1-6.521-1.653l8.733-.971c1.952.528,4.028,1.054,6.169,1.566Zm315.849-.836-8.561-1.015c2.049-.522,4.034-1.059,5.9-1.6l8.9.925C1812.9,752.307,1810.8,752.875,1808.637,753.426Zm-333.645-4.316c-1.67-.6-3.255-1.214-4.709-1.828l9.592-.685c1.376.581,2.875,1.163,4.454,1.73Zm350.544-.934-9.471-.733c1.481-.576,2.878-1.169,4.154-1.759l9.709.633C1828.579,746.941,1827.1,747.567,1825.536,748.177ZM1462.8,743.489a27.393,27.393,0,0,1-2.741-1.947l10.144-.375a25.756,25.756,0,0,0,2.593,1.843Zm373.937-1-10.077-.425a20.385,20.385,0,0,0,2.261-1.857l10.207.32A21.46,21.46,0,0,1,1836.734,742.484Zm-380.119-4.907a7.031,7.031,0,0,1-.692-2l10.367-.054a6.611,6.611,0,0,0,.655,1.894Zm385.238-1.036-10.352-.106a5.914,5.914,0,0,0,.322-1.9v-.069h10.37v.069A6.233,6.233,0,0,1,1841.853,736.541Zm-374.942-4.813-10.333-.158a10.231,10.231,0,0,1,1.353-1.991l10.259.264A9.583,9.583,0,0,0,1466.912,731.728Zm363.574-1.045a12.537,12.537,0,0,0-1.639-1.876l10.2-.323a13.173,13.173,0,0,1,1.73,1.983Zm-357.8-4.551-10-.477c1.017-.643,2.157-1.288,3.391-1.917l9.818.579C1474.728,724.913,1473.65,725.522,1472.69,726.131Zm350.949-1.009c-1.077-.6-2.273-1.205-3.553-1.793l9.7-.636c1.353.623,2.616,1.259,3.756,1.9ZM1484.171,720.8l-9.346-.78c1.662-.6,3.454-1.2,5.325-1.783l9.061.876C1487.439,719.668,1485.744,720.237,1484.171,720.8Zm326.975-.937c-1.678-.558-3.477-1.115-5.346-1.653l8.889-.928c1.974.57,3.875,1.157,5.65,1.747Zm-310.168-3.949-8.393-1.057c2.252-.539,4.631-1.073,7.067-1.587l8.016,1.142C1505.359,714.9,1503.109,715.41,1500.977,715.918Zm292.463-.833c-2.22-.5-4.563-.988-6.963-1.463l7.8-1.187c2.534.5,5.009,1.021,7.355,1.546Zm-270.917-3.454-7.177-1.3c2.771-.46,5.655-.913,8.574-1.344l6.72,1.371C1527.876,710.767,1525.146,711.2,1522.523,711.631Zm248.581-.708c-2.7-.421-5.513-.834-8.354-1.226l6.459-1.407c3,.413,5.968.849,8.824,1.294Zm-223-2.845-5.732-1.5c3.195-.368,6.5-.723,9.808-1.057l5.207,1.557C1554.249,707.394,1551.127,707.731,1548.1,708.079Zm196.755-.563c-3.09-.332-6.281-.65-9.482-.949l4.906-1.585c3.385.315,6.758.652,10.023,1ZM1576.9,705.375l-4.1-1.653c3.518-.263,7.129-.51,10.731-.735l3.515,1.692C1583.643,704.893,1580.229,705.127,1576.9,705.375Zm138.625-.4c-3.389-.229-6.86-.445-10.317-.638l3.186-1.714c3.653.205,7.325.433,10.906.676Zm-107.5-1.365-2.315-1.754c3.736-.148,7.551-.279,11.336-.388l1.7,1.775C1615.167,703.347,1611.559,703.471,1608.023,703.611Zm76-.219c-3.557-.119-7.187-.223-10.79-.3l1.361-1.784c3.807.087,7.644.2,11.4.323Zm-43.537-.548-.475-1.8c3.822-.03,7.72-.041,11.55-.033l-.133,1.8C1647.8,702.806,1644.109,702.816,1640.489,702.845Z" transform="translate(-1455.923 -701.011)" fill="#b0f4f6"/>
    </g>
    <path id="Path_28" data-name="Path 28" d="M1603.986,749c0,6.584-9.643,11.921-21.538,11.921s-21.54-5.337-21.54-11.921,9.643-11.922,21.54-11.922S1603.986,742.413,1603.986,749Z" transform="translate(140.692 269.251)" opacity="0.5" fill="url(#radial-gradient-3)" style="mix-blend-mode: screen;isolation: isolate"/>
    <ellipse id="Ellipse_3" data-name="Ellipse 3" cx="21.539" cy="11.922" rx="21.539" ry="11.922" transform="translate(1564.193 955.094)" opacity="0.5" fill="url(#radial-gradient-4)" style="mix-blend-mode: screen;isolation: isolate"/>
    <ellipse id="Ellipse_4" data-name="Ellipse 4" cx="41.451" cy="22.944" rx="41.451" ry="22.944" transform="translate(1494.405 1043.56)" opacity="0.5" fill="url(#radial-gradient-5)" style="mix-blend-mode: screen;isolation: isolate"/>
    <ellipse id="Ellipse_5" data-name="Ellipse 5" cx="25.372" cy="14.044" rx="25.372" ry="14.044" transform="translate(1898.606 1050.786)" opacity="0.5" fill="url(#radial-gradient-6)" style="mix-blend-mode: screen;isolation: isolate"/>
    <ellipse id="Ellipse_6" data-name="Ellipse 6" cx="162.157" cy="74.141" rx="162.157" ry="74.141" transform="translate(1570.458 941.815)" opacity="0.5" fill="url(#radial-gradient-7)" style="mix-blend-mode: screen;isolation: isolate"/>
    <ellipse id="Ellipse_7" data-name="Ellipse 7" cx="25.372" cy="14.044" rx="25.372" ry="14.044" transform="translate(1666.954 969.659)" opacity="0.5" fill="url(#radial-gradient-8)" style="mix-blend-mode: screen;isolation: isolate"/>
    <path id="Path_29" data-name="Path 29" d="M1681.019,742.942c0,4.988-7.307,9.034-16.32,9.034s-16.319-4.046-16.319-9.034,7.306-9.034,16.319-9.034S1681.019,737.953,1681.019,742.942Z" transform="translate(185.162 267.64)" opacity="0.5" fill="url(#radial-gradient-9)" style="mix-blend-mode: screen;isolation: isolate"/>
    <path id="Path_30" data-name="Path 30" d="M1700.35,711.2c0,2.845-6.785,5.15-15.155,5.15s-15.154-2.3-15.154-5.15,6.785-5.151,15.154-5.151S1700.35,708.354,1700.35,711.2Z" transform="translate(196.175 253.477)" opacity="0.5" fill="url(#radial-gradient-10)" style="mix-blend-mode: screen;isolation: isolate"/>
    <ellipse id="Ellipse_8" data-name="Ellipse 8" cx="72.645" cy="12.722" rx="72.645" ry="12.722" transform="translate(1652.315 1005.688)" fill="#fff"/>
    <g id="Group_17" data-name="Group 17" transform="translate(1284.172 588.983)">
      <path id="Path_31" data-name="Path 31" d="M1573.714,688.017a1.549,1.549,0,1,1-1.549-1.551A1.55,1.55,0,0,1,1573.714,688.017Z" transform="translate(-1138.545 -345.462)" fill="#b0f4f6"/>
      <circle id="Ellipse_9" data-name="Ellipse 9" cx="1.55" cy="1.55" r="1.55" transform="translate(409.417 113.425)" fill="#b0f4f6"/>
      <circle id="Ellipse_10" data-name="Ellipse 10" cx="1.55" cy="1.55" r="1.55" transform="translate(380.308 337.871)" fill="#b0f4f6"/>
      <path id="Path_32" data-name="Path 32" d="M1287.272,696.328a1.55,1.55,0,1,1-1.549-1.549A1.55,1.55,0,0,1,1287.272,696.328Z" transform="translate(-1284.172 -341.236)" fill="#b0f4f6"/>
      <circle id="Ellipse_11" data-name="Ellipse 11" cx="1.55" cy="1.55" r="1.55" transform="translate(435.32 404.009)" fill="#b0f4f6"/>
      <circle id="Ellipse_12" data-name="Ellipse 12" cx="1.55" cy="1.55" r="1.55" transform="translate(442.494 280.44)" fill="#b0f4f6"/>
      <path id="Path_33" data-name="Path 33" d="M1640.634,679.4a1.55,1.55,0,1,1-1.551-1.551A1.55,1.55,0,0,1,1640.634,679.4Z" transform="translate(-1104.524 -349.843)" fill="#b0f4f6"/>
      <circle id="Ellipse_13" data-name="Ellipse 13" cx="1.55" cy="1.55" r="1.55" transform="translate(347.973)" fill="#b0f4f6"/>
      <path id="Path_34" data-name="Path 34" d="M1862.869,620.844a1.549,1.549,0,1,1-1.549-1.549A1.55,1.55,0,0,1,1862.869,620.844Z" transform="translate(-991.54 -379.611)" fill="#b0f4f6"/>
      <circle id="Ellipse_14" data-name="Ellipse 14" cx="1.55" cy="1.55" r="1.55" transform="translate(431.977 416.618)" fill="#b0f4f6"/>
      <path id="Path_35" data-name="Path 35" d="M1599.658,691a.407.407,0,1,1-.407-.407A.407.407,0,0,1,1599.658,691Z" transform="translate(-1124.194 -343.362)" fill="#b0f4f6"/>
      <path id="Path_36" data-name="Path 36" d="M1548.353,682.661a.406.406,0,1,1-.407-.407A.408.408,0,0,1,1548.353,682.661Z" transform="translate(-1150.277 -347.603)" fill="#b0f4f6"/>
      <path id="Path_37" data-name="Path 37" d="M1606.514,666.374a.407.407,0,1,1-.407-.407A.407.407,0,0,1,1606.514,666.374Z" transform="translate(-1120.708 -355.884)" fill="#b0f4f6"/>
      <path id="Path_38" data-name="Path 38" d="M1548.8,707.736a.407.407,0,1,1-.407-.407A.407.407,0,0,1,1548.8,707.736Z" transform="translate(-1150.053 -334.855)" fill="#b0f4f6"/>
      <path id="Path_39" data-name="Path 39" d="M1514.071,694.444a.407.407,0,1,1-.407-.407A.407.407,0,0,1,1514.071,694.444Z" transform="translate(-1167.706 -341.613)" fill="#b0f4f6"/>
      <path id="Path_40" data-name="Path 40" d="M1607.271,735.03a.406.406,0,1,1-.406-.407A.406.406,0,0,1,1607.271,735.03Z" transform="translate(-1120.323 -320.979)" fill="#b0f4f6"/>
      <circle id="Ellipse_15" data-name="Ellipse 15" cx="0.407" cy="0.407" r="0.407" transform="translate(456.077 407.987)" fill="#b0f4f6"/>
      <path id="Path_41" data-name="Path 41" d="M1563.6,712.5a.807.807,0,1,1-.807-.807A.807.807,0,0,1,1563.6,712.5Z" transform="translate(-1142.93 -332.635)" fill="#b0f4f6"/>
      <path id="Path_42" data-name="Path 42" d="M1539.654,734.222a.807.807,0,1,1-.807-.807A.807.807,0,0,1,1539.654,734.222Z" transform="translate(-1155.107 -321.593)" fill="#b0f4f6"/>
      <path id="Path_43" data-name="Path 43" d="M1591.079,717.268a.806.806,0,1,1-.806-.807A.806.806,0,0,1,1591.079,717.268Z" transform="translate(-1128.961 -330.213)" fill="#b0f4f6"/>
      <path id="Path_44" data-name="Path 44" d="M1582.953,658.407a.807.807,0,1,1-.807-.807A.808.808,0,0,1,1582.953,658.407Z" transform="translate(-1133.094 -360.137)" fill="#b0f4f6"/>
      <path id="Path_45" data-name="Path 45" d="M1633.362,713.017a.807.807,0,1,1-.807-.807A.806.806,0,0,1,1633.362,713.017Z" transform="translate(-1107.466 -332.374)" fill="#b0f4f6"/>
    </g>
  </g>
</svg>
