<svg xmlns="http://www.w3.org/2000/svg" width="33.4" height="33.393" viewBox="0 0 33.4 33.393">
  <path id="Icon_awesome-instagram" data-name="Icon awesome-instagram" d="M16.7,10.372a8.561,8.561,0,1,0,8.561,8.561A8.548,8.548,0,0,0,16.7,10.372Zm0,14.127a5.566,5.566,0,1,1,5.566-5.566A5.576,5.576,0,0,1,16.7,24.5ZM27.607,10.022a2,2,0,1,1-2-2A1.992,1.992,0,0,1,27.607,10.022Zm5.67,2.027a9.882,9.882,0,0,0-2.7-7,9.947,9.947,0,0,0-7-2.7c-2.757-.156-11.02-.156-13.777,0a9.933,9.933,0,0,0-7,2.69C.85,7,.246,9.367.112,12.041c-.156,2.757-.156,11.02,0,13.777a9.882,9.882,0,0,0,2.7,7,9.96,9.96,0,0,0,7,2.7c2.757.156,11.02.156,13.777,0a9.882,9.882,0,0,0,7-2.7,9.947,9.947,0,0,0,2.7-7c.156-2.757.156-11.013,0-13.77ZM29.715,28.777a5.635,5.635,0,0,1-3.174,3.174c-2.2.872-7.414.671-9.843.671s-7.652.194-9.843-.671a5.635,5.635,0,0,1-3.174-3.174c-.872-2.2-.671-7.414-.671-9.843s-.194-7.652.671-9.843A5.635,5.635,0,0,1,6.855,5.917c2.2-.872,7.414-.671,9.843-.671s7.652-.194,9.843.671a5.635,5.635,0,0,1,3.174,3.174c.872,2.2.671,7.414.671,9.843S30.587,26.586,29.715,28.777Z" transform="translate(0.005 -2.237)" fill="#e2e2e2"/>
</svg>
