<svg xmlns="http://www.w3.org/2000/svg" width="36.958" height="36.957" viewBox="0 0 36.958 36.957">
  <path id="Icon_awesome-pinterest" data-name="Icon awesome-pinterest" d="M36.958,19.041A18.481,18.481,0,0,1,13.01,36.693,20.772,20.772,0,0,0,15.3,31.85c.224-.864,1.147-4.4,1.147-4.4a4.949,4.949,0,0,0,4.232,2.124c5.573,0,9.59-5.126,9.59-11.5,0-6.1-4.985-10.67-11.393-10.67-7.973,0-12.212,5.35-12.212,11.184,0,2.712,1.446,6.088,3.748,7.16.35.164.536.089.618-.246.06-.253.373-1.513.514-2.094a.553.553,0,0,0-.127-.529,7.277,7.277,0,0,1-1.364-4.217A8,8,0,0,1,18.4,10.651c4.538,0,7.719,3.092,7.719,7.518,0,5-2.526,8.464-5.812,8.464A2.68,2.68,0,0,1,17.577,23.3c.522-2.2,1.527-4.568,1.527-6.155a2.321,2.321,0,0,0-2.34-2.6c-1.855,0-3.346,1.915-3.346,4.486a6.658,6.658,0,0,0,.551,2.742s-1.826,7.734-2.161,9.18a17.887,17.887,0,0,0-.067,5.305A18.481,18.481,0,1,1,36.958,19.041Z" transform="translate(0 -0.563)" fill="#e2e2e2"/>
</svg>
