<svg xmlns="http://www.w3.org/2000/svg" width="38.15" height="30.984" viewBox="0 0 38.15 30.984">
  <path id="Icon_awesome-twitter" data-name="Icon awesome-twitter" d="M34.228,11.1c.024.339.024.678.024,1.017,0,10.336-7.867,22.246-22.246,22.246A22.1,22.1,0,0,1,0,30.855a16.175,16.175,0,0,0,1.888.1,15.659,15.659,0,0,0,9.707-3.34,7.833,7.833,0,0,1-7.31-5.422,9.86,9.86,0,0,0,1.477.121,8.269,8.269,0,0,0,2.058-.266,7.82,7.82,0,0,1-6.27-7.674v-.1a7.874,7.874,0,0,0,3.534.992A7.83,7.83,0,0,1,2.663,4.809a22.224,22.224,0,0,0,16.122,8.182,8.826,8.826,0,0,1-.194-1.791A7.826,7.826,0,0,1,32.122,5.85a15.394,15.394,0,0,0,4.962-1.888A7.8,7.8,0,0,1,33.647,8.27a15.674,15.674,0,0,0,4.5-1.21A16.807,16.807,0,0,1,34.228,11.1Z" transform="translate(0 -3.381)" fill="#e2e2e2"/>
</svg>
