<svg xmlns="http://www.w3.org/2000/svg" width="33.381" height="33.381" viewBox="0 0 33.381 33.381">
  <path id="Icon_awesome-linkedin" data-name="Icon awesome-linkedin" d="M31,2.25H2.377A2.4,2.4,0,0,0,0,4.657V33.224a2.4,2.4,0,0,0,2.377,2.407H31a2.4,2.4,0,0,0,2.384-2.407V4.657A2.4,2.4,0,0,0,31,2.25ZM10.089,30.862H5.141V14.932H10.1v15.93ZM7.615,12.756a2.869,2.869,0,1,1,2.869-2.869A2.87,2.87,0,0,1,7.615,12.756Zm21.02,18.106H23.687V23.113c0-1.848-.037-4.225-2.571-4.225-2.578,0-2.973,2.012-2.973,4.091v7.883H13.2V14.932h4.746v2.176h.067A5.211,5.211,0,0,1,22.7,14.537c5.007,0,5.939,3.3,5.939,7.593Z" transform="translate(0 -2.25)" fill="#e2e2e2"/>
</svg>
