<svg xmlns="http://www.w3.org/2000/svg" width="40.693" height="28.612" viewBox="0 0 40.693 28.612">
  <path id="Icon_awesome-youtube" data-name="Icon awesome-youtube" d="M40.893,8.977a5.113,5.113,0,0,0-3.6-3.621C34.122,4.5,21.4,4.5,21.4,4.5s-12.725,0-15.9.856A5.113,5.113,0,0,0,1.9,8.977c-.85,3.194-.85,9.858-.85,9.858s0,6.664.85,9.858a5.037,5.037,0,0,0,3.6,3.563c3.174.856,15.9.856,15.9.856s12.725,0,15.9-.856a5.037,5.037,0,0,0,3.6-3.563c.85-3.194.85-9.858.85-9.858s0-6.664-.85-9.858ZM17.235,24.886v-12.1L27.87,18.835l-10.636,6.05Z" transform="translate(-1.05 -4.5)" fill="#e2e2e2"/>
</svg>
