<svg xmlns="http://www.w3.org/2000/svg" width="32.691" height="32.69" viewBox="0 0 32.691 32.69">
  <path id="Icon_metro-facebook" data-name="Icon metro-facebook" d="M29.813,1.928H8.019A5.448,5.448,0,0,0,2.571,7.377V29.17a5.448,5.448,0,0,0,5.448,5.449h10.9v-14.3H14.83V16.23h4.086V13.165a5.108,5.108,0,0,1,5.108-5.108h5.108v4.086H24.024A1.022,1.022,0,0,0,23,13.165V16.23h5.619L27.6,20.316H23v14.3h6.811a5.448,5.448,0,0,0,5.448-5.449V7.377a5.448,5.448,0,0,0-5.448-5.449Z" transform="translate(-2.571 -1.928)" fill="#e2e2e2"/>
</svg>
