<?xml version="1.0" encoding="utf-8"?>
<!-- Generator: Adobe Illustrator 23.0.1, SVG Export Plug-In . SVG Version: 6.00 Build 0)  -->
<svg version="1.1" id="Layer_1" xmlns="http://www.w3.org/2000/svg" xmlns:xlink="http://www.w3.org/1999/xlink" x="0px" y="0px"
	 viewBox="0 0 34.4 38.1" style="enable-background:new 0 0 34.4 38.1;" xml:space="preserve">
<style type="text/css">
	.st0{fill:#E2E2E2;}
</style>
<path id="Icon_simple-discord" class="st0" d="M30.3,0c2.2,0,4,1.7,4.1,3.9v34.2l-4.3-3.6l-2.3-2.1l-2.5-2.2l1.1,3.5H4
	c-2.2,0.1-4-1.7-4-3.9c0,0,0-0.1,0-0.1V3.9C0,1.7,1.8,0,4,0H30.3L30.3,0z M20.6,9L20.6,9l-0.4,0.3c1.8,0.5,3.5,1.3,4.9,2.4
	c-1.9-1-3.9-1.6-6-1.8c-1.3-0.2-2.6-0.2-3.9,0h-0.3c-1.5,0.1-3.1,0.5-4.5,1.2c-0.7,0.3-1.2,0.5-1.2,0.5c1.5-1.2,3.2-2.1,5.1-2.4
	L14.1,9c-2,0.1-3.9,0.8-5.5,2c-1.8,3.4-2.8,7.3-2.9,11.2c0,0,1.6,2.8,5.9,2.9c0,0,0.6-0.8,1.3-1.6c-1.3-0.3-2.5-1.1-3.4-2.2
	c0.2,0.1,0.4,0.2,0.5,0.3h0.1c0,0,0.1,0,0.1,0v0c0,0,0.1,0,0.1,0c0.5,0.2,1,0.4,1.5,0.6c0.9,0.4,1.9,0.7,2.9,0.9
	c1.7,0.3,3.4,0.3,5.1,0c1-0.2,1.9-0.5,2.9-0.9c0.8-0.3,1.5-0.7,2.2-1.2c-0.9,1.1-2.1,1.9-3.5,2.2c0.5,0.7,1.3,1.6,1.3,1.6
	c2.3,0,4.6-1,6.2-2.7c-0.1-3.9-1.1-7.7-2.9-11.2C24.4,9.8,22.5,9.1,20.6,9L20.6,9L20.6,9z M20.8,16c1.2-0.1,2.2,0.8,2.2,2
	c0.1,1.2-0.8,2.2-2,2.2s-2.2-0.8-2.2-2c0,0,0-0.1,0-0.1C18.8,17,19.7,16.1,20.8,16C20.8,16,20.8,16,20.8,16z"/>
<path class="st0" d="M13,15.8c1.2-0.1,2.2,0.8,2.2,2c0.1,1.2-0.8,2.2-2,2.2s-2.2-0.8-2.2-2c0,0,0-0.1,0-0.1
	C11,16.8,11.9,15.8,13,15.8C13,15.8,13,15.8,13,15.8z"/>
</svg>
