<svg xmlns="http://www.w3.org/2000/svg" width="34.428" height="38.149" viewBox="0 0 34.428 38.149">
  <path id="Icon_simple-discord" data-name="Icon simple-discord" d="M32.039,0a4.182,4.182,0,0,1,4.144,3.934V38.15l-4.255-3.613L29.592,32.41l-2.55-2.222,1.065,3.5H5.793a3.945,3.945,0,0,1-4.038-3.936V3.942A4.024,4.024,0,0,1,5.8,0H32.028ZM22.315,9.034h-.048l-.321.318a12.8,12.8,0,0,1,4.89,2.443,17.291,17.291,0,0,0-5.951-1.807,16.342,16.342,0,0,0-3.934,0h-.318a14.173,14.173,0,0,0-4.467,1.168c-.742.323-1.168.534-1.168.534a11.341,11.341,0,0,1,5.1-2.443l-.215-.215a9.551,9.551,0,0,0-5.527,2.019A24.878,24.878,0,0,0,7.489,22.209s1.59,2.766,5.95,2.871c0,0,.636-.847,1.28-1.593a6.29,6.29,0,0,1-3.4-2.232,5.272,5.272,0,0,1,.533.318h.1a.127.127,0,0,1,.1.048v.01a.122.122,0,0,0,.1.048c.525.216,1.049.429,1.478.636a13,13,0,0,0,2.861.852,16.327,16.327,0,0,0,5.1,0,14.69,14.69,0,0,0,2.861-.85,22.93,22.93,0,0,0,2.221-1.172,6.317,6.317,0,0,1-3.505,2.232c.525.741,1.264,1.59,1.264,1.59a8.3,8.3,0,0,0,6.152-2.744,24.826,24.826,0,0,0-2.885-11.159,9.56,9.56,0,0,0-5.46-2l.089-.032Zm.267,7.015a2.129,2.129,0,1,1-2.019,2.132,2.073,2.073,0,0,1,2.019-2.132Zm-7.221,0a8.809,8.809,0,1,1-.006,0Z" transform="translate(-1.755)" fill="#e2e2e2"/>
</svg>
